<?xml version="1.0"?>
<svg xmlns="http://www.w3.org/2000/svg" xmlns:xlink="http://www.w3.org/1999/xlink" xmlnsSvgjs="http://svgjs.com/svgjs" version="1.1" width="512" height="512" x="0" y="0" viewBox="0 0 512 512" style="enable-background:new 0 0 512 512" xml:space="preserve" class=""><g><path xmlns="http://www.w3.org/2000/svg" d="m238.75 148.566406c0 49.808594-40.378906 90.183594-90.1875 90.183594-27.519531 0-52.152344-12.320312-68.683594-31.746094-13.421875-15.742187-21.503906-36.148437-21.503906-58.4375 0-49.8125 40.375-90.1875 90.1875-90.1875 45.40625 0 82.972656 33.546875 89.261719 77.214844.609375 4.238281.925781 8.566406.925781 12.972656zm0 0" fill="#fab03c" data-original="#fab03c" style=""/><path xmlns="http://www.w3.org/2000/svg" d="m238.75 148.566406c0 49.808594-40.378906 90.183594-90.1875 90.183594-27.519531 0-52.152344-12.320312-68.683594-31.746094-.609375-4.234375-.921875-8.5625-.921875-12.964844 0-49.8125 40.382813-90.1875 90.1875-90.1875 27.515625 0 52.148438 12.320313 68.679688 31.746094.609375 4.234375.925781 8.5625.925781 12.96875zm0 0" fill="#fd8f3e" data-original="#fd8f3e" style=""/><path xmlns="http://www.w3.org/2000/svg" d="m324.417969 237.070312c0 10.355469-8.394531 18.746094-18.746094 18.746094s-18.742187-8.390625-18.742187-18.746094c0-10.351562 8.390624-18.742187 18.742187-18.742187s18.746094 8.390625 18.746094 18.742187zm0 0" fill="#5f4c2e" data-original="#efa66f" style="" class=""/><path xmlns="http://www.w3.org/2000/svg" d="m174.566406 237.070312c0 10.355469-8.390625 18.746094-18.742187 18.746094-10.355469 0-18.746094-8.390625-18.746094-18.746094 0-10.351562 8.390625-18.742187 18.746094-18.742187 10.351562 0 18.742187 8.390625 18.742187 18.742187zm0 0" fill="#5f4c2e" data-original="#efa66f" style="" class=""/><path xmlns="http://www.w3.org/2000/svg" d="m348.507812 432.648438v71.855468h-235.523437v-71.855468c0-42.660157 22.691406-80.019532 56.65625-100.683594 17.808594-10.832032 38.730469-17.078125 61.105469-17.078125 22.171875 0 42.902344 6.125 60.605468 16.78125 8.269532 4.964843 15.882813 10.933593 22.664063 17.714843 21.3125 21.308594 34.492187 50.75 34.492187 83.265626zm0 0" fill="#f0f5f7" data-original="#f0f5f7" style="" class=""/><g xmlns="http://www.w3.org/2000/svg" fill="#f4bc8e"><path d="m291.617188 438.390625h56.894531v66.109375h-56.894531zm0 0" fill="#5f4c2e" data-original="#f4bc8e" style="" class=""/><path d="m112.984375 438.390625h56.890625v66.109375h-56.890625zm0 0" fill="#5f4c2e" data-original="#f4bc8e" style="" class=""/><path d="m291.351562 331.667969c-13.390624 19.285156-35.703124 31.890625-60.957031 31.890625-25.121093 0-47.339843-12.484375-60.75-31.597656 17.804688-10.832032 38.726563-17.074219 61.101563-17.074219 22.171875 0 42.902344 6.125 60.605468 16.78125zm0 0" fill="#5f4c2e" data-original="#f4bc8e" style="" class=""/></g><path xmlns="http://www.w3.org/2000/svg" d="m161.828125 171.636719v83.914062c0 38.0625 30.855469 68.917969 68.917969 68.917969s68.917968-30.855469 68.917968-68.917969v-83.914062zm0 0" fill="#5f4c2e" data-original="#fbdbb7" style="" class=""/><path xmlns="http://www.w3.org/2000/svg" d="m299.664062 171.636719v83.910156c0 19.03125-7.714843 36.269531-20.191406 48.734375-12.464844 12.46875-29.695312 20.183594-48.726562 20.183594-3.703125 0-7.339844-.289063-10.886719-.863282 14.667969-2.320312 27.792969-9.285156 37.835937-19.320312 12.46875-12.46875 20.183594-29.703125 20.183594-48.734375v-83.910156zm0 0" fill="#5f4c2e" data-original="#f4bc8e" style="" class=""/><path xmlns="http://www.w3.org/2000/svg" d="m230.746094 117.425781c-44.132813 0-79.914063 35.777344-79.914063 79.914063v28.398437s66.832031-4.9375 92.4375-32.589843c7.804688 12.8125 25.929688 29.519531 67.390625 29.519531v-25.328125c0-44.136719-35.777344-79.914063-79.914062-79.914063zm0 0" fill="#000000" data-original="#82807f" style="" class=""/><path xmlns="http://www.w3.org/2000/svg" d="m310.660156 197.34375v25.320312c-8.859375 0-16.652344-.757812-23.511718-2.089843v-23.230469c0-40.140625-29.589844-73.371094-68.160157-79.058594 3.839844-.570312 7.761719-.859375 11.761719-.859375 44.128906 0 79.910156 35.777344 79.910156 79.917969zm0 0" fill="#5b1919" data-original="#6d6d6d" style="" class=""/><path xmlns="http://www.w3.org/2000/svg" d="m318.617188 170.375c0 10.464844-8.484376 18.949219-18.953126 18.949219-10.464843 0-18.949218-8.484375-18.949218-18.949219 0-6.867188 8.160156-20.347656 13.769531-28.804688 2.460937-3.707031 7.898437-3.707031 10.359375 0 5.613281 8.457032 13.773438 21.9375 13.773438 28.804688zm0 0" fill="#a0ecff" data-original="#a0ecff" style="" class=""/><path xmlns="http://www.w3.org/2000/svg" d="m318.613281 170.375c0 10.464844-8.480469 18.949219-18.949219 18.949219-2.621093 0-5.121093-.535157-7.398437-1.496094 6.796875-2.878906 11.558594-9.613281 11.558594-17.453125 0-6.003906-6.234375-17.0625-11.550781-25.398438.761718-1.195312 1.503906-2.335937 2.203124-3.394531 2.460938-3.710937 7.902344-3.722656 10.367188-.011719 5.609375 8.457032 13.769531 21.933594 13.769531 28.804688zm0 0" fill="#60daff" data-original="#60daff" style=""/><path xmlns="http://www.w3.org/2000/svg" d="m351.175781 363.25c0 10.464844-8.484375 18.949219-18.949219 18.949219-10.464843 0-18.949218-8.484375-18.949218-18.949219 0-6.867188 8.160156-20.347656 13.769531-28.804688 2.460937-3.703124 7.898437-3.703124 10.359375 0 5.609375 8.457032 13.769531 21.9375 13.769531 28.804688zm0 0" fill="#a0ecff" data-original="#a0ecff" style="" class=""/><path xmlns="http://www.w3.org/2000/svg" d="m351.175781 363.253906c0 10.460938-8.480469 18.945313-18.949219 18.945313-2.625 0-5.125-.535157-7.398437-1.496094 6.796875-2.878906 11.558594-9.613281 11.558594-17.449219 0-6.007812-6.238281-17.066406-11.550781-25.402344.757812-1.195312 1.5-2.332031 2.203124-3.394531 2.460938-3.710937 7.902344-3.722656 10.363282-.011719 5.613281 8.457032 13.773437 21.9375 13.773437 28.808594zm0 0" fill="#60daff" data-original="#60daff" style=""/><path xmlns="http://www.w3.org/2000/svg" d="m181.425781 277.195312c0 10.464844-8.480469 18.949219-18.949219 18.949219-10.464843 0-18.949218-8.484375-18.949218-18.949219 0-6.871093 8.160156-20.347656 13.769531-28.804687 2.460937-3.707031 7.898437-3.707031 10.359375 0 5.613281 8.457031 13.769531 21.933594 13.769531 28.804687zm0 0" fill="#a0ecff" data-original="#a0ecff" style="" class=""/><path xmlns="http://www.w3.org/2000/svg" d="m181.425781 277.195312c0 10.460938-8.480469 18.949219-18.949219 18.949219-2.621093 0-5.121093-.535156-7.398437-1.5 6.796875-2.878906 11.558594-9.609375 11.558594-17.449219 0-6.003906-6.234375-17.066406-11.550781-25.402343.757812-1.195313 1.5-2.332031 2.203124-3.390625 2.460938-3.714844 7.902344-3.722656 10.363282-.011719 5.613281 8.453125 13.773437 21.933594 13.773437 28.804687zm0 0" fill="#60daff" data-original="#60daff" style=""/><path xmlns="http://www.w3.org/2000/svg" d="m148.5625 34.425781c4.140625 0 7.5-3.359375 7.5-7.5v-19.425781c0-4.144531-3.359375-7.5-7.5-7.5-4.144531 0-7.5 3.355469-7.5 7.5v19.425781c0 4.140625 3.355469 7.5 7.5 7.5zm0 0" fill="#000000" data-original="#000000" style="" class=""/><path xmlns="http://www.w3.org/2000/svg" d="m81.25 46.972656c1.386719 2.40625 3.910156 3.75 6.5 3.75 1.273438 0 2.5625-.324218 3.742188-1.007812 3.589843-2.070313 4.816406-6.65625 2.746093-10.242188l-9.710937-16.824218c-2.070313-3.585938-6.660156-4.8125-10.246094-2.746094-3.585938 2.074218-4.816406 6.660156-2.746094 10.246094zm0 0" fill="#000000" data-original="#000000" style="" class=""/><path xmlns="http://www.w3.org/2000/svg" d="m46.972656 81.25-16.824218-9.714844c-3.589844-2.070312-8.175782-.84375-10.246094 2.746094-2.070313 3.585938-.839844 8.171875 2.746094 10.242188l16.824218 9.714843c1.179688.683594 2.46875 1.007813 3.742188 1.007813 2.589844 0 5.113281-1.347656 6.5-3.753906 2.074218-3.585938.84375-8.171876-2.742188-10.242188zm0 0" fill="#000000" data-original="#000000" style="" class=""/><path xmlns="http://www.w3.org/2000/svg" d="m34.425781 148.5625c0-4.144531-3.359375-7.5-7.5-7.5h-19.425781c-4.140625 0-7.5 3.355469-7.5 7.5s3.359375 7.5 7.5 7.5h19.425781c4.140625 0 7.5-3.359375 7.5-7.5zm0 0" fill="#000000" data-original="#000000" style="" class=""/><path xmlns="http://www.w3.org/2000/svg" d="m253.910156 95.246094c1.269532 0 2.5625-.324219 3.742188-1.007813l16.824218-9.714843c3.585938-2.070313 4.816407-6.65625 2.742188-10.242188-2.070312-3.589844-6.660156-4.816406-10.242188-2.746094l-16.824218 9.714844c-3.585938 2.070312-4.816406 6.65625-2.746094 10.242188 1.390625 2.40625 3.910156 3.753906 6.503906 3.753906zm0 0" fill="#000000" data-original="#000000" style="" class=""/><path xmlns="http://www.w3.org/2000/svg" d="m39.472656 202.886719-16.824218 9.710937c-3.585938 2.070313-4.816407 6.65625-2.746094 10.246094 1.390625 2.40625 3.910156 3.75 6.503906 3.75 1.269531 0 2.5625-.324219 3.742188-1.007812l16.824218-9.710938c3.585938-2.070312 4.816406-6.65625 2.742188-10.246094-2.070313-3.585937-6.65625-4.8125-10.242188-2.742187zm0 0" fill="#000000" data-original="#000000" style="" class=""/><path xmlns="http://www.w3.org/2000/svg" d="m205.628906 49.714844c1.183594.683594 2.472656 1.007812 3.746094 1.007812 2.589844 0 5.113281-1.34375 6.5-3.75l9.710938-16.824218c2.074218-3.585938.84375-8.171876-2.742188-10.246094-3.589844-2.070313-8.175781-.839844-10.246094 2.746094l-9.710937 16.824218c-2.074219 3.585938-.84375 8.171875 2.742187 10.242188zm0 0" fill="#000000" data-original="#000000" style="" class=""/><path xmlns="http://www.w3.org/2000/svg" d="m91.492188 247.40625c-3.585938-2.070312-8.171876-.84375-10.242188 2.746094l-9.714844 16.820312c-2.070312 3.589844-.839844 8.175782 2.746094 10.246094 1.179688.683594 2.472656 1.007812 3.742188 1.007812 2.59375 0 5.113281-1.347656 6.503906-3.753906l9.710937-16.820312c2.070313-3.585938.84375-8.171875-2.746093-10.246094zm0 0" fill="#000000" data-original="#000000" style="" class=""/><path xmlns="http://www.w3.org/2000/svg" d="m348.511719 482.875c-4.140625 0-7.5 3.359375-7.5 7.5v14.125c0 4.144531 3.359375 7.5 7.5 7.5s7.5-3.355469 7.5-7.5v-14.125c0-4.140625-3.359375-7.5-7.5-7.5zm0 0" fill="#000000" data-original="#000000" style="" class=""/><path xmlns="http://www.w3.org/2000/svg" d="m169.878906 402.191406c-4.144531 0-7.5 3.355469-7.5 7.5v21.199219h-41.871094c.234376-15.398437 3.582032-30.253906 9.976563-44.183594 1.726563-3.765625.078125-8.21875-3.6875-9.945312-3.765625-1.726563-8.21875-.078125-9.945313 3.6875-7.542968 16.4375-11.371093 34-11.371093 52.199219v71.851562c0 4.140625 3.359375 7.5 7.503906 7.5 4.140625 0 7.5-3.359375 7.5-7.5v-58.609375h41.894531v58.609375c0 4.140625 3.355469 7.5 7.5 7.5 4.140625 0 7.5-3.359375 7.5-7.5v-94.808594c0-4.140625-3.359375-7.5-7.5-7.5zm0 0" fill="#000000" data-original="#000000" style="" class=""/><path xmlns="http://www.w3.org/2000/svg" d="m198.398438 229.570312h-.085938c-4.144531 0-7.457031 3.359376-7.457031 7.5 0 4.144532 3.402343 7.5 7.542969 7.5 4.144531 0 7.5-3.355468 7.5-7.5 0-4.140624-3.355469-7.5-7.5-7.5zm0 0" fill="#000000" data-original="#000000" style="" class=""/><path xmlns="http://www.w3.org/2000/svg" d="m263.183594 229.570312h-.089844c-4.140625 0-7.457031 3.359376-7.457031 7.5 0 4.144532 3.402343 7.5 7.546875 7.5 4.140625 0 7.5-3.355468 7.5-7.5 0-4.140624-3.359375-7.5-7.5-7.5zm0 0" fill="#000000" data-original="#000000" style="" class=""/><path xmlns="http://www.w3.org/2000/svg" d="m237.96875 273.09375h-6.941406v-36.023438c0-4.140624-3.359375-7.5-7.5-7.5s-7.5 3.359376-7.5 7.5v43.523438c0 4.140625 3.359375 7.5 7.5 7.5h14.441406c4.140625 0 7.5-3.359375 7.5-7.5 0-4.144531-3.359375-7.5-7.5-7.5zm0 0" fill="#000000" data-original="#000000" style="" class=""/><path xmlns="http://www.w3.org/2000/svg" d="m358.675781 363.25c0-2.550781 0-10.3125-15.019531-32.949219-2.546875-3.839843-6.820312-6.132812-11.429688-6.132812-4.605468 0-8.878906 2.292969-11.425781 6.132812-2.332031 3.511719-4.300781 6.667969-5.964843 9.5-11.113282-10.074219-23.898438-18.03125-37.746094-23.546875 16.335937-12.5 27.511718-31.421875 29.6875-52.96875 13.960937-.578125 25.140625-12.113281 25.140625-26.214844 0-9.683593-5.402344-18.535156-13.757813-23.074218v-16.65625c0-2.585938-.113281-5.183594-.339844-7.753906 5.101563-4.828126 8.296876-11.652344 8.296876-19.210938 0-2.550781 0-10.3125-15.023438-32.949219-2.546875-3.84375-6.820312-6.136719-11.425781-6.136719-3.117188 0-6.066407 1.070313-8.449219 2.941407-14.355469-13.753907-32.972656-22.207031-52.765625-23.957031-7.136719-16.769532-18.75-31.121094-33.777344-41.683594-16.488281-11.589844-35.894531-17.714844-56.113281-17.714844-53.867188 0-97.6875 43.820312-97.6875 97.6875 0 17.773438 4.828125 35.183594 13.957031 50.339844 1.410157 2.335937 3.886719 3.628906 6.433594 3.628906 1.316406 0 2.652344-.347656 3.863281-1.074219 3.546875-2.136719 4.6875-6.746093 2.550782-10.296875-7.722657-12.820312-11.804688-27.550781-11.804688-42.597656 0-45.59375 37.09375-82.6875 82.6875-82.6875 30.882812 0 59.246094 17.535156 73.351562 44.496094-44.066406 4.441406-78.578124 41.75-78.578124 86.96875v16.644531c-6.0625 3.285156-10.554688 8.828125-12.574219 15.332031-12.054688-2.652344-23.417969-7.988281-33.203125-15.667968-3.257813-2.554688-7.972656-1.988282-10.527344 1.269531-2.558594 3.261719-1.992188 7.976562 1.265625 10.53125 12.410156 9.738281 26.972656 16.292969 42.394531 19.152343 1.828125 6.148438 5.835938 11.394532 11.265625 14.761719-5.917969 11.28125-5.925781 15.960938-5.925781 17.832031 0 14.582032 11.863281 26.449219 26.449219 26.449219 2.757812 0 5.421875-.425781 7.925781-1.214843 4.078125 5.238281 8.777344 9.878906 13.960938 13.832031-18.578126 7.386719-35.117188 19.121093-48.410157 34.496093-2.707031 3.132813-2.363281 7.867188.769531 10.578126 1.417969 1.226562 3.164063 1.824218 4.902344 1.824218 2.101563 0 4.195313-.878906 5.675782-2.59375 6.140624-7.097656 13.070312-13.308594 20.625-18.558594 15.441406 18.308594 38.296874 29.050782 62.46875 29.050782 24.324218 0 47.273437-10.851563 62.71875-29.351563 5.222656 3.589844 10.152343 7.640625 14.726562 12.117188-2.058594 5.40625-2.066406 8.113281-2.066406 9.425781 0 14.585938 11.867187 26.449219 26.453125 26.449219h.101562c5.53125 13.046875 8.4375 26.878906 8.660157 41.191406h-41.871094v-21.199219c0-4.144531-3.359375-7.5-7.503906-7.5-4.140626 0-7.5 3.355469-7.5 7.5v94.808594c0 4.144531 3.359374 7.5 7.5 7.5 4.144531 0 7.503906-3.355469 7.503906-7.5v-58.609375h41.894531v11.824219c0 4.144531 3.355469 7.5 7.5 7.5 4.140625 0 7.5-3.355469 7.5-7.5v-25.066406c0-16.421876-3.117187-32.308594-9.253906-47.3125 7.167969-4.734376 11.914062-12.863282 11.914062-22.085938zm-127.929687-46.28125c-18.621094 0-36.253906-8.515625-47.875-22.949219 3.78125-4.574219 6.058594-10.4375 6.058594-16.824219 0-2.285156-.011719-8.757812-10.800782-26.339843 2.546875-4.121094 3.9375-8.890625 3.9375-13.785157 0-2.796874-.441406-5.519531-1.28125-8.109374 19.589844-3.949219 44.675782-11.292969 61.34375-24.589844 9.003906 10.703125 24.265625 21.199218 50.039063 24.628906v26.550781c0 33.867188-27.554688 61.417969-61.421875 61.417969zm76.421875-68.765625v-18.074219c1.144531.023438 2.3125.039063 3.492187.039063 1.164063 0 2.261719-.273438 3.242188-.746094 1.890625 2.042969 3.015625 4.757813 3.015625 7.648437 0 5.695313-4.257813 10.398438-9.75 11.132813zm3.945312-77.828125c0 6.3125-5.132812 11.449219-11.449219 11.449219-6.3125 0-11.449218-5.136719-11.449218-11.449219 0-2.070312 2.445312-9.203125 11.449218-23.027344 9.007813 13.824219 11.449219 20.957032 11.449219 23.027344zm-152.78125 26.964844c0-39.929688 32.484375-72.414063 72.414063-72.414063 19.5 0 38.109375 7.871094 51.695312 21.714844-9.21875 15.632813-9.226562 21.566406-9.226562 23.734375 0 14.585938 11.867187 26.449219 26.453125 26.449219 1.179687 0 2.339843-.085938 3.480469-.234375.003906.25.011718.5.011718.75v17.628906c-32.089844-1.753906-46.78125-14.722656-53.484375-25.722656-1.226562-2.007813-3.320312-3.328125-5.660156-3.5625-2.335937-.230469-4.652344.640625-6.25 2.367187-9.421875 10.179688-27.34375 18.617188-51.828125 24.410157-10.945312 2.59375-20.984375 4.113281-27.601562 4.941406v-20.0625zm-13.753906 39.730468c0-1.996093.535156-3.898437 1.480469-5.558593 1.34375 1.113281 3.03125 1.726562 4.773437 1.726562.1875 0 .371094-.007812.554688-.019531.765625-.058594 6.191406-.484375 14.242187-1.644531.941406 1.667969 1.4375 3.539062 1.4375 5.496093 0 .605469-.054687 1.207032-.152344 1.796876-1.410156-.480469-2.898437-.757813-4.433593-.757813-4.609375 0-8.882813 2.292969-11.429688 6.132813-.5.753906-.980469 1.488281-1.445312 2.207031-3.078125-2.03125-5.027344-5.503907-5.027344-9.378907zm6.449219 40.125c0-2.070312 2.445312-9.207031 11.453125-23.03125 9.003906 13.824219 11.449219 20.960938 11.449219 23.03125 0 6.3125-5.136719 11.449219-11.449219 11.449219-6.316407 0-11.453125-5.136719-11.453125-11.449219zm79.367187 78.863282c-18.898437 0-36.808593-8.042969-49.367187-21.855469 6.589844-3.328125 13.53125-6 20.753906-7.960937 9.082031 3.730468 18.910156 5.726562 28.964844 5.726562 10.253906 0 20.035156-2.042969 28.980468-5.722656 7.011719 1.90625 13.796876 4.488281 20.253907 7.714844-12.5625 13.964843-30.558594 22.097656-49.585938 22.097656zm90.382813 7.191406c0-2.070312 2.445312-9.203125 11.449218-23.027344 9.007813 13.824219 11.453126 20.957032 11.453126 23.027344 0 6.3125-5.136719 11.449219-11.453126 11.449219-6.3125 0-11.449218-5.136719-11.449218-11.449219zm0 0" fill="#000000" data-original="#000000" style="" class=""/></g></svg>
