<?xml version="1.0"?>
<svg xmlns="http://www.w3.org/2000/svg" xmlns:xlink="http://www.w3.org/1999/xlink" xmlns:svgjs="http://svgjs.com/svgjs" version="1.1" width="512" height="512" x="0" y="0" viewBox="0 0 512 512" style="enable-background:new 0 0 512 512" xml:space="preserve" class=""><g transform="matrix(1.5000000000000002,0,0,1.5000000000000002,-128.00000000000006,-233.00000000000006)"><g xmlns="http://www.w3.org/2000/svg"><g><path d="m368 256-80-24h-64l-80 24c-35.346 0-64 28.654-64 64v176h352v-176c0-35.346-28.654-64-64-64z" fill="#5f4c2e" data-original="#fab991" style="" class=""/></g><g><path d="m288 208h-64c-26.51 0-48-21.49-48-48v-96c0-26.51 21.49-48 48-48h64c26.51 0 48 21.49 48 48v96c0 26.51-21.49 48-48 48z" fill="#5f4c2e" data-original="#fab991" style="" class=""/></g><g><path d="m336 152v-48c13.255 0 24 10.745 24 24 0 13.255-10.745 24-24 24z" fill="#3c290e" data-original="#f0915a" style="" class=""/></g><g><path d="m368 328v168h16v-152c0-8.837-7.163-16-16-16z" fill="#3c290e" data-original="#f0915a" style="" class=""/></g><g><path d="m144 328v168h-16v-152c0-8.837 7.163-16 16-16z" fill="#3c290e" data-original="#f0915a" style="" class=""/></g><g><circle cx="288" cy="112" fill="#000000" r="8" data-original="#555a6e" style="" class=""/></g><g><path d="m176 152v-48c-13.255 0-24 10.745-24 24 0 13.255 10.745 24 24 24z" fill="#3c290e" data-original="#f0915a" style="" class=""/></g><g><path d="m288 16h-64c-26.51 0-48 21.49-48 48v48c8.836 0 16-7.164 16-16v-16c0-17.673 14.327-32 32-32h64c17.673 0 32 14.327 32 32v16c0 8.836 7.164 16 16 16v-48c0-26.51-21.49-48-48-48z" fill="#000000" data-original="#555a6e" style="" class=""/></g><g><circle cx="224" cy="112" fill="#000000" r="8" data-original="#555a6e" style="" class=""/></g><g><path d="m232 168c0 4.418 3.582 8 8 8h32c4.418 0 8-3.582 8-8z" fill="#000000" data-original="#555a6e" style="" class=""/></g><g><path d="m256 130.667c-4.418 0-8 3.582-8 8v5.333c0 4.418 3.582 8 8 8s8-3.582 8-8v-5.333c0-4.418-3.582-8-8-8z" fill="#3c290e" data-original="#f0915a" style="" class=""/></g><g><path d="m336 408h-48c-17.673 0-32-14.327-32-32 0 17.673-14.327 32-32 32h-48c-17.673 0-32-14.327-32-32v32c0 8.836 7.164 16 16 16h80c8.836 0 16-7.164 16-16 0 8.836 7.164 16 16 16h80c8.836 0 16-7.164 16-16v-32c0 17.673-14.327 32-32 32z" fill="#3c290e" data-original="#f0915a" style="" class=""/></g><g><path d="m314.667 461.333h-26.667c-17.673 0-32-14.327-32-32 0 17.673-14.327 32-32 32h-26.667c-11.782 0-21.333-9.551-21.333-21.333v21.333c0 8.836 7.164 16 16 16h48c8.836 0 16-7.164 16-16 0 8.836 7.164 16 16 16h48c8.836 0 16-7.164 16-16v-21.333c0 11.782-9.551 21.333-21.333 21.333z" fill="#3c290e" data-original="#f0915a" style="" class=""/></g><g><path d="m288 232v-24h-64v24l-80 24h80c17.673 0 32 14.327 32 32 0-17.673 14.327-32 32-32h80z" fill="#3c290e" data-original="#f0915a" style="" class=""/></g><g><circle cx="176" cy="376" fill="#3c290e" r="8" data-original="#f0915a" style="" class=""/></g><g><circle cx="336" cy="376" fill="#3c290e" r="8" data-original="#f0915a" style="" class=""/></g></g></g></svg>
