<?xml version="1.0"?>
<svg xmlns="http://www.w3.org/2000/svg" xmlns:xlink="http://www.w3.org/1999/xlink" xmlns:svgjs="http://svgjs.com/svgjs" version="1.1" width="512" height="512" x="0" y="0" viewBox="0 0 512 512" style="enable-background:new 0 0 512 512" xml:space="preserve" class=""><g><g xmlns="http://www.w3.org/2000/svg"><path d="m105.544 170.883s3.497-140.245 132.193-161.177 169.263 111.638 169.263 205.832-97.921 161.875-137.788 238.626-129.395 53.028-148.979 12.559-14.689-295.84-14.689-295.84z" fill="#5f4c2e" data-original="#fdba91" style="" class=""/><path d="m248.595 8.293c96.595 10.404 128.405 123.853 128.405 207.245 0 94.195-97.921 161.875-137.788 238.626-15.733 30.288-39.199 44.92-63.049 49.06 32.547 5.475 70.641-5.922 93.049-49.06 39.867-76.751 137.788-144.431 137.788-238.626 0-91.49-38.28-219.17-158.405-207.245z" fill="#503f26" data-original="#fc997d" style="" class=""/><path d="m208.877 252.964c10.63-36.246-64.588-70.426-38.901-144.743 13.29-38.451 43.332-65.381 85.827-65.381 70.684 0 100.479 90.652 100.479 157.545 0 55.622-59.938 170.613-156.926 170.613-38.357 0-42.983-32.181-42.983-54.067.001-40.407 41.874-27.72 52.504-63.967z" fill="#503f26" data-original="#fc997d" style="" class=""/><path d="m255.803 42.84c-5.462 0-10.715.452-15.756 1.309 60.459 11.285 86.235 94.027 86.235 156.235 0 52.149-52.687 156.484-139.196 169.311 3.652.836 7.716 1.303 12.271 1.303 96.988 0 156.926-114.991 156.926-170.613-.001-66.893-29.796-157.545-100.48-157.545z" fill="#3c290e" data-original="#eb866c" style="" class=""/><g><path d="m108.338 391.359c.146 0 .296-.004.444-.013 4.135-.242 7.291-3.789 7.05-7.924-5.114-87.565-2.825-211.138-2.802-212.333.008-.335 1.023-33.962 17.177-69.843 21.412-47.56 57.993-75.859 108.727-84.11 44.708-7.271 81.358 4.329 108.94 34.48 2.797 3.056 7.541 3.267 10.597.472 3.056-2.796 3.268-7.54.472-10.596-31.213-34.12-72.403-47.295-122.417-39.161-69.772 11.348-103.767 56.705-119.997 92.757-17.383 38.611-18.459 74.134-18.497 75.67-.023 1.244-2.324 125.387 2.824 213.538.233 3.987 3.539 7.063 7.482 7.063z" fill="#000000" data-original="#000000" style="" class=""/><path d="m378.782 68.452c-2.117-3.56-6.721-4.73-10.28-2.613-3.561 2.117-4.731 6.719-2.613 10.279 21.36 35.915 33.611 86.738 33.611 139.436 0 58.191-40.11 107.024-78.9 154.249-21.429 26.089-43.587 53.066-58.049 80.907-21.227 40.862-54.494 46.549-72.402 46.282-27.391-.389-53.96-14.491-63.176-33.534-2.401-4.962-5.878-17.411-8.802-48.541-.387-4.124-4.041-7.153-8.168-6.766-4.124.387-7.154 4.044-6.766 8.168 2.55 27.159 5.898 44.715 10.234 53.673 11.739 24.255 43.182 41.525 76.466 41.997.452.006.902.01 1.355.01 16.292 0 32.08-4.177 45.74-12.113 16.039-9.318 29.105-23.537 38.832-42.263 13.74-26.448 34.428-51.635 56.33-78.302 40.465-49.265 82.308-100.208 82.308-163.768-.002-55.317-13.021-108.933-35.72-147.101z" fill="#000000" data-original="#000000" style="" class=""/><path d="m177.574 275.451c-12.792 6.857-28.71 15.389-28.71 41.491 0 16.349 2.631 29.061 8.041 38.863 5.717 10.356 17.721 22.7 42.443 22.7 97.77 0 164.432-113.788 164.432-178.103 0-37.875-9.194-78.001-24.593-107.337-19.815-37.747-48.651-57.699-83.391-57.699-38.8 0-70.907 21.291-88.087 58.414-1.739 3.759-.103 8.216 3.657 9.956s8.217.101 9.956-3.657c14.837-32.059 41.285-49.715 74.474-49.715 20.089 0 48.559 8.617 70.108 49.671 14.324 27.286 22.875 64.806 22.875 100.366 0 57.8-61.633 163.104-149.432 163.104-24.54 0-35.484-14.361-35.484-46.564 0-17.124 8.274-21.558 20.797-28.271 11.395-6.108 25.577-13.71 31.406-33.582 5.301-18.077-5.975-34.624-17.913-52.142-3.847-5.645-7.837-11.501-11.504-17.684 11.588 5.934 28.067 12.337 50.332 16.642 11.02 2.131 18.696 6.962 23.465 14.769 10.496 17.182 3.176 42.958 3.105 43.203-1.172 3.973 1.099 8.143 5.072 9.315.708.208 1.422.308 2.124.308 3.239 0 6.228-2.116 7.191-5.38.386-1.308 9.286-32.289-4.647-55.192-6.99-11.489-18.248-18.807-33.462-21.749-36.696-7.096-58.297-20.988-64.661-27.398-2.729-9.42-3.898-19.647-2.45-30.952.526-4.109-2.378-7.865-6.488-8.392-4.098-.52-7.866 2.377-8.392 6.486-4.689 36.62 13.391 63.151 27.919 84.469 10.738 15.757 19.219 28.203 15.914 39.474-4.059 13.845-13.345 18.823-24.097 24.586z" fill="#000000" data-original="#000000" style="" class=""/></g></g></g></svg>
