<?xml version="1.0"?>
<svg xmlns="http://www.w3.org/2000/svg" xmlns:xlink="http://www.w3.org/1999/xlink" xmlns:svgjs="http://svgjs.com/svgjs" version="1.1" width="512" height="512" x="0" y="0" viewBox="0 0 512 512" style="enable-background:new 0 0 512 512" xml:space="preserve" class=""><g><g xmlns="http://www.w3.org/2000/svg"><g><path d="m328.851 185.247v183.669 95.462h-192.584v-68.36c0-6.371-1.366-12.667-4.006-18.465l-5.914-12.989c-7.424-16.306-11.265-34.013-11.265-51.929v-127.388z" fill="#5f4c2e" data-original="#ffcebf" style="" class=""/><path d="m141.804 132.2c14.758 0 26.721 11.963 26.721 26.721v40.395c0 14.758-11.963 26.721-26.721 26.721-14.758 0-26.721-11.963-26.721-26.721v-40.395c0-14.758 11.963-26.721 26.721-26.721z" fill="#5f4c2e" data-original="#ffcebf" style="" class=""/><path d="m141.804 132.2c-4.275 0-8.312 1.009-11.895 2.794 8.786 4.377 14.826 13.444 14.826 23.927v40.395c0 10.483-6.039 19.55-14.826 23.927 3.583 1.785 7.62 2.794 11.895 2.794 14.758 0 26.721-11.963 26.721-26.721v-40.395c0-14.758-11.964-26.721-26.721-26.721z" fill="#3c290e" data-original="#ffb09e" style="" class=""/><path d="m195.246 120.2c14.758 0 26.721 11.963 26.721 26.721v71.219c0 14.758-11.963 26.721-26.721 26.721-14.758 0-26.721-11.963-26.721-26.721v-71.219c0-14.758 11.963-26.721 26.721-26.721z" fill="#5f4c2e" data-original="#ffcebf" style="" class=""/><path d="m195.246 120.2c-4.275 0-8.312 1.009-11.895 2.794 8.786 4.377 14.826 13.444 14.826 23.927v71.219c0 10.483-6.039 19.55-14.826 23.927 3.583 1.785 7.62 2.794 11.895 2.794 14.758 0 26.721-11.963 26.721-26.721v-71.219c0-14.758-11.964-26.721-26.721-26.721z" fill="#3c290e" data-original="#ffb09e" style="" class=""/><path d="m248.688 120.2c14.758 0 26.721 11.963 26.721 26.721v62.528c0 14.758-11.963 26.721-26.721 26.721-14.758 0-26.721-11.963-26.721-26.721v-62.528c0-14.758 11.963-26.721 26.721-26.721z" fill="#5f4c2e" data-original="#ffcebf" style="" class=""/><path d="m248.688 120.2c-4.275 0-8.312 1.009-11.895 2.794 8.786 4.377 14.826 13.444 14.826 23.927v62.528c0 10.483-6.039 19.55-14.826 23.927 3.583 1.785 7.62 2.794 11.895 2.794 14.758 0 26.721-11.963 26.721-26.721v-62.528c0-14.758-11.963-26.721-26.721-26.721z" fill="#3c290e" data-original="#ffb09e" style="" class=""/><path d="m302.13 7.5c14.758 0 26.721 11.963 26.721 26.721v151.026h-53.442v-151.026c0-14.758 11.964-26.721 26.721-26.721z" fill="#3c290e" data-original="#ffb09e" style="" class=""/><path d="m302.13 7.5c-4.275 0-8.312 1.009-11.895 2.794 8.786 4.377 14.826 13.444 14.826 23.927v151.026h23.791v-151.026c-.001-14.758-11.964-26.721-26.722-26.721z" fill="#503c20" data-original="#f99e8a" style="" class=""/><path d="m305.06 185.247v183.669 95.462h23.791v-95.462-183.669z" fill="#3c290e" data-original="#ffb09e" style="" class=""/><path d="m131.157 504.5h204.152c7.043 0 12.752-5.709 12.752-12.752v-39.685c0-7.043-5.709-12.752-12.752-12.752h-204.152c-7.043 0-12.752 5.709-12.752 12.752v39.685c0 7.043 5.709 12.752 12.752 12.752z" fill="#cde2ff" data-original="#cde2ff" style="" class=""/><path d="m335.308 439.311h-23.791c7.043 0 12.752 5.709 12.752 12.752v39.685c0 7.043-5.709 12.752-12.752 12.752h23.791c7.043 0 12.752-5.709 12.752-12.752v-39.685c0-7.043-5.709-12.752-12.752-12.752z" fill="#b3dafe" data-original="#b3dafe" style=""/><path d="m328.851 241.194v-60.972h35.105c12.039 0 22.251 8.844 23.97 20.759l9.038 62.637c0 14.286-5.055 28.11-14.27 39.027l-44.279 52.455c-6.176 7.316-9.564 16.582-9.564 26.157v33.318h-55.039v-140.272z" fill="#5f4c2e" data-original="#ffcebf" style="" class=""/><path d="m387.926 200.982c-1.719-11.916-11.931-20.759-23.97-20.759h-23.791c12.039 0 22.25 8.844 23.97 20.759l9.038 62.637c0 14.286-5.055 28.11-14.27 39.027l-44.279 52.454c-6.176 7.316-9.564 16.582-9.564 26.157v33.318h23.791v-33.318c0-9.575 3.388-18.84 9.564-26.157l44.279-52.455c9.215-10.916 14.27-24.741 14.27-39.027z" fill="#3c290e" data-original="#ffb09e" style="" class=""/><path d="m328.851 241.194-47.846-6.752c-17.365-2.45-30.276-17.311-30.276-34.848 0-10.699 8.673-19.372 19.372-19.372h77.959z" fill="#5f4c2e" data-original="#ffcebf" style="" class=""/></g><g><path d="m344.146 359.938 44.279-52.455c10.038-11.768 16.486-28.87 15.962-44.936l-9.039-62.637c-2.237-15.5-15.733-27.188-31.393-27.188h-81.042v-138.502c0-10.598 8.622-19.22 19.22-19.22s19.22 8.622 19.22 19.22v110.851c0 4.142 3.358 7.5 7.5 7.5s7.5-3.358 7.5-7.5v-110.851c0-18.869-15.351-34.22-34.22-34.22s-34.22 15.351-34.22 34.22v84.407c-5.485-3.738-12.106-5.927-19.23-5.927-10.801 0-20.443 5.035-26.719 12.876-6.276-7.84-15.918-12.876-26.719-12.876-13.886 0-25.858 8.319-31.218 20.23-5.984-5.125-13.746-8.23-22.224-8.23-18.87 0-34.221 15.352-34.221 34.221v40.395c0 18.869 15.352 34.221 34.221 34.221 7.612 0 14.649-2.501 20.339-6.72 3.851 14.681 17.231 25.544 33.103 25.544 12.971 0 24.28-7.254 30.082-17.918 10.541 10.067 28.745 12.569 42.124 3.611 3.871 1.875 8.071 3.189 12.505 3.815l26.91 3.797-36.8 22.138c-2.244 1.248-22.646 13.04-31.129 33.579-1.581 3.829.241 8.214 4.069 9.795.937.387 1.906.57 2.86.57 2.946 0 5.741-1.747 6.935-4.639 6.724-16.281 24.42-26.122 24.583-26.211.099-.054.196-.109.293-.167l63.147-37.499c3.641-1.975 4.991-6.528 3.017-10.169-1.974-3.64-6.525-4.991-10.169-3.017l-6.223 3.376-45.396-6.406c-13.582-1.917-23.824-13.706-23.824-27.422 0-6.546 5.326-11.872 11.872-11.872h93.855c8.254 0 15.368 6.161 16.547 14.331l8.959 62.086c-.122 12.313-4.549 24.251-12.499 33.668l-44.279 52.455c-7.308 8.658-11.333 19.666-11.333 30.995l.002 50.554h-177.59v-35.791c0-7.503-1.572-14.762-4.675-21.581l-5.919-12.987c-7.024-15.431-10.586-31.857-10.586-48.823v-63.69c0-4.142-3.358-7.5-7.5-7.5s-7.5 3.358-7.5 7.5v63.69c0 19.125 4.015 37.642 11.935 55.041l5.919 12.986c2.207 4.85 3.326 10.02 3.326 15.364v35.945c-10.041 1.189-17.859 9.741-17.859 20.097v39.686c0 11.167 9.085 20.252 20.252 20.252h140c4.142 0 7.5-3.358 7.5-7.5s-3.358-7.5-7.5-7.5h-140c-2.896 0-5.252-2.356-5.252-5.252v-39.686c0-2.896 2.356-5.252 5.252-5.252h204.152c2.896 0 5.252 2.356 5.252 5.252v39.686c0 2.896-2.356 5.252-5.252 5.252h-28.331c-4.142 0-7.5 3.358-7.5 7.5s3.358 7.5 7.5 7.5h28.331c11.167 0 20.252-9.085 20.252-20.252v-39.686c0-10.814-8.527-19.65-19.207-20.199l-.002-50.607c0-7.792 2.769-15.363 7.795-21.318zm-183.122-160.622c0 10.598-8.623 19.221-19.221 19.221-10.599 0-19.221-8.623-19.221-19.221v-40.395c0-10.598 8.623-19.221 19.221-19.221s19.221 8.623 19.221 19.221zm34.222 38.045c-10.598 0-19.221-8.623-19.221-19.221v-71.219c0-10.598 8.623-19.221 19.221-19.221 10.583 0 19.194 8.598 19.219 19.175 0 .015-.001.029-.001.044l.003 71.22c0 10.599-8.623 19.222-19.221 19.222zm47.984-37.767c0 10.74 4.079 20.708 10.831 28.31-4.77 1.764-14.214.256-18.969-4.873-3.613-3.605-5.606-8.402-5.625-13.511v-62.599c0-.015-.001-.03-.001-.046.024-10.577 8.635-19.175 19.218-19.175 10.604 0 19.23 8.622 19.23 19.22v25.899c-13.797 1.118-24.684 12.695-24.684 26.775z" fill="#000000" data-original="#000000" style="" class=""/><circle cx="161.128" cy="471.905" r="7.397" fill="#000000" data-original="#000000" style="" class=""/></g></g></g></svg>
