<?xml version="1.0"?>
<svg xmlns="http://www.w3.org/2000/svg" xmlns:xlink="http://www.w3.org/1999/xlink" xmlns:svgjs="http://svgjs.com/svgjs" version="1.1" width="512" height="512" x="0" y="0" viewBox="0 0 512 512" style="enable-background:new 0 0 512 512" xml:space="preserve" class=""><g><g xmlns="http://www.w3.org/2000/svg"><path d="m343.155 66s3.357 73.672 2.481 130.282c-1.087 70.218-98.3 147.96-152.037 157.185s-105.533 13.99-117.834 14.931-53.09 0-53.09 0-15.175.775-15.175 24.035 11.937 31.568 38.482 31.235c26.545-.332 48.882 6.147 67.495 14.621s112.492 11.907 170.33-2.714 90.21 17.722 161.86 8.861 61.702-42.89 52.227-77.399c-21.673-78.934-14.215-118.492-14.322-157.818-.135-49.596 1.805-143.219 1.805-143.219z" fill="#5f4c2e" data-original="#fdba91" style="" class=""/><g><path d="m497.895 367.037c-21.673-78.934-14.215-118.492-14.322-157.818-.136-49.596 1.804-143.219 1.804-143.219h-30s-1.94 93.623-1.805 143.218c.107 39.326-7.351 78.885 14.322 157.818 9.475 34.509 19.423 68.538-52.227 77.399-3.399.42-6.708.747-9.937.991 12.018.908 25.138.839 39.937-.991 71.651-8.86 61.703-42.889 52.228-77.398z" fill="#3c290e" data-original="#fc997d" style="" class=""/></g><g><path d="m505.337 365.894-.228-.829c-17.068-62.167-15.758-99.175-14.602-131.827.293-8.272.569-16.085.548-24.033-.134-48.941 1.784-142.113 1.803-143.049.042-2.016-.729-3.963-2.14-5.404-1.411-1.44-3.343-2.252-5.358-2.252h-37.196c-4.142 0-7.5 3.358-7.5 7.5s3.357 7.5 7.5 7.5h29.546c-.455 23.412-1.766 94.884-1.654 135.745.021 7.661-.251 15.336-.538 23.461-1.194 33.726-2.548 71.952 15.127 136.33l.229.831c5.041 18.352 9.803 35.687 1.915 47.474-6.645 9.929-22.814 16.546-48.057 19.668-27.667 3.424-49.009.471-67.948-3.231-4.077-.793-8.005 1.858-8.799 5.923s1.857 8.005 5.923 8.799c13.302 2.599 28.737 4.999 46.895 4.999 8.039 0 16.616-.471 25.772-1.604 30.18-3.733 49.374-12.307 58.681-26.212 11.702-17.487 5.794-38.992.081-59.789z" fill="#000000" data-original="#000000" style=""/><path d="m344.666 427.24c-16.933-3.024-37.625-5.261-62.706 1.08-58.118 14.694-150.09 10.12-165.379 3.159-23.273-10.595-46.404-15.607-70.694-15.295-12.886.167-21.262-1.874-25.665-6.221-3.515-3.471-5.222-9.2-5.222-17.515 0-14.211 6.531-16.245 8.044-16.526 5.097.113 41.396.877 53.291-.032 8.098-.619 28.585-2.501 54.003-5.621 4.111-.505 7.035-4.247 6.53-8.359-.505-4.111-4.241-7.034-8.358-6.531-25.149 3.088-45.348 4.944-53.319 5.553-11.791.901-51.94-.011-52.343-.02-.186-.005-.37-.001-.556.008-7.71.394-22.292 7.49-22.292 31.528 0 12.533 3.167 21.754 9.682 28.188 7.505 7.413 19.049 10.756 36.392 10.548 22.075-.274 43.071 4.287 64.292 13.948 12.686 5.775 47.544 7.907 73.54 7.977.528.001 1.05.002 1.578.002 37.91 0 74.338-3.723 100.151-10.248 22.262-5.628 40.26-3.737 56.394-.856 4.082.729 7.973-1.987 8.701-6.065.729-4.078-1.986-7.973-6.064-8.702z" fill="#000000" data-original="#000000" style=""/><path d="m415.755 73.501c4.142 0 7.5-3.358 7.5-7.5s-3.357-7.5-7.5-7.5h-72.612c-2.049 0-4.008.838-5.423 2.319s-2.162 3.476-2.069 5.523c.033.734 3.336 74.102 2.474 129.83-.452 29.218-20.105 64.255-53.918 96.127-29.493 27.801-66.419 49.416-91.885 53.789-10.236 1.757-21.073 3.465-32.21 5.075-4.099.593-6.942 4.397-6.349 8.496.54 3.736 3.746 6.428 7.413 6.428.357 0 .719-.025 1.083-.078 11.267-1.629 22.236-3.358 32.601-5.137 28.572-4.906 67.681-27.537 99.634-57.657 21.594-20.353 57.924-61.295 58.628-106.811.703-45.419-1.334-102.354-2.158-122.904z" fill="#000000" data-original="#000000" style=""/><path d="m392.982 278.408c-4.128.342-7.196 3.966-6.854 8.094.325 3.918 3.604 6.881 7.466 6.881.208 0 .418-.009.629-.026 35.869-2.974 47.116-27.019 48.051-39.317.314-4.131-2.776-7.771-6.906-8.085-4.151-.322-7.73 2.742-8.045 6.872-.005.059-.617 5.913-5.043 11.875-5.919 7.973-15.777 12.584-29.298 13.706z" fill="#000000" data-original="#000000" style=""/></g></g></g></svg>
