<?xml version="1.0"?>
<svg xmlns="http://www.w3.org/2000/svg" xmlns:xlink="http://www.w3.org/1999/xlink" xmlns:svgjs="http://svgjs.com/svgjs" version="1.1" width="512" height="512" x="0" y="0" viewBox="0 0 60 60" style="enable-background:new 0 0 512 512" xml:space="preserve" class=""><g transform="matrix(1.02,0,0,1.02,-0.6000000023842063,-5.599999992847433)"><g xmlns="http://www.w3.org/2000/svg" id="Page-1" fill="none" fill-rule="evenodd"><g id="059---Shrinking-Waistline" fill-rule="nonzero"><path id="Shape" d="m49.7 34.79c-2.4939716 1.5560242-5.0785641 2.9618556-7.74 4.21-4.7960955 2.2245194-8.9212746 5.6736659-11.96 10-3.0387254-4.3263341-7.1639045-7.7754806-11.96-10-2.6614359-1.2481444-5.2460284-2.6539758-7.74-4.21.1655894-1.2778217.4127609-2.5437405.74-3.79.219512-.0102338.4298942-.0908803.6-.23l.98-.79c2.54 2.07 7.83 5.02 17.38 5.02s14.84-2.95 17.38-5.02l.98.79c.1701058.1391197.380488.2197662.6.23.3272391 1.2462595.5744106 2.5121783.74 3.79z" fill="#ef314c" data-original="#ef314c" style="" class=""/><path id="Shape" d="m48.96 31c-.219512-.0102338-.4298942-.0908803-.6-.23l-.98-.79c-.4546983.3671025-.9279911.7105569-1.418 1.029.3260942 1.2433708.5725941 2.506265.738 3.781-2.4939716 1.5560242-5.0785641 2.9618556-7.74 4.21-4.0051648 1.9153938-7.5674788 4.6440036-10.46 8.012.5437608.6284851 1.044879 1.2926338 1.5 1.988 3.0387254-4.3263341 7.1639045-7.7754806 11.96-10 2.6614359-1.2481444 5.2460284-2.6539758 7.74-4.21-.1655894-1.2778217-.4127609-2.5437405-.74-3.79z" fill="#bb193b" data-original="#bb193b" style=""/><path id="Shape" d="m30 49v9.99h-14.12c-.365401-.0028325-.7012534-.2012907-.88-.52-4.0177603-7.2027219-5.66238289-15.4888206-4.7-23.68 2.4939716 1.5560242 5.0785641 2.9618556 7.74 4.21 4.7960955 2.2245194 8.9212746 5.6736659 11.96 10z" fill="#5f4c2e" data-original="#ffe0b2" style="" class=""/><path id="Shape" d="m18.04 39c-2.6614359-1.2481444-5.2460284-2.6539758-7.74-4.21-.075.556-.132 1.114-.179 1.674 1.312.73 2.923 1.572 4.919 2.536 4.7960955 2.2245194 8.9212746 5.6736659 11.96 10v9.99h3v-9.99c-3.0387254-4.3263341-7.1639045-7.7754806-11.96-10z" fill="#3c290e" data-original="#dfc49c" style="" class=""/><path id="Shape" d="m45 58.47c-.1787466.3187093-.514599.5171675-.88.52h-14.12v-9.99c3.0387254-4.3263341 7.1639045-7.7754806 11.96-10 2.6614359-1.2481444 5.2460284-2.6539758 7.74-4.21.9623829 8.1911794-.6822397 16.4772781-4.7 23.68z" fill="#5f4c2e" data-original="#ffe0b2" style="" class=""/><path id="Shape" d="m49.7 34.79c-.725.466-1.656 1.026-2.821 1.674.5414633 7.6532157-1.1536539 15.2987882-4.879 22.006-.1787466.3187093-.514599.5171675-.88.52h3c.365401-.0028325.7012534-.2012907.88-.52 4.0177603-7.2027219 5.6623829-15.4888206 4.7-23.68z" fill="#3c290e" data-original="#dfc49c" style="" class=""/><path id="Shape" d="m47.38 29.98c-2.54 2.07-7.83 5.02-17.38 5.02s-14.84-2.95-17.38-5.02l9.02-7.21c.2292703-.1899799.3619561-.4722463.3619561-.77s-.1326858-.5800201-.3619561-.77l-5.99-4.79c1.0252754-4.7092078.5135596-9.62308173-1.46-14.02-.1427596-.30844579-.119079-.66828624.0628713-.95536328.1819502-.28707704.4972573-.46208386.8371287-.46463672h29.82c.3398714.00255286.6551785.17755968.8371287.46463672.1819503.28707704.2056309.64691749.0628713.95536328-1.9735596 4.39691827-2.4852754 9.3107922-1.46 14.02l-5.99 4.79c-.2292703.1899799-.3619561.4722463-.3619561.77s.1326858.5800201.3619561.77z" fill="#5f4c2e" data-original="#ffe0b2" style="" class=""/><path id="Shape" d="m38.36 22.77c-.2292703-.1899799-.3619561-.4722463-.3619561-.77s.1326858-.5800201.3619561-.77l5.99-4.79c-1.0252754-4.7092078-.5135596-9.62308173 1.46-14.02.1427596-.30844579.119079-.66828624-.0628713-.95536328-.1819502-.28707704-.4972573-.46208386-.8371287-.46463672h-3c.3398714.00255286.6551785.17755968.8371287.46463672.1819503.28707704.2056309.64691749.0628713.95536328-1.9735596 4.39691827-2.4852754 9.3107922-1.46 14.02l-5.99 4.79c-.2292703.1899799-.3619561.4722463-.3619561.77s.1326858.5800201.3619561.77l9.02 7.21c-2.4 1.959-7.274 4.7-15.88 4.991.49.017.986.029 1.5.029 9.55 0 14.84-2.95 17.38-5.02z" fill="#3c290e" data-original="#dfc49c" style="" class=""/><path id="Shape" d="m59 19v6c-.0032948 1.1032019-.8967981 1.9967052-2 2h-7v3c.0002179.2722947-.1106119.5329035-.306891.7216334-.196279.1887299-.4610322.2892585-.733109.2783666-.219512-.0102338-.4298942-.0908803-.6-.23l-.98-.79-9.02-7.21c-.2292703-.1899799-.3619561-.4722463-.3619561-.77s.1326858-.5800201.3619561-.77l5.99-4.79 4.01-3.21c.2983354-.2484924.7135425-.3018337 1.0650008-.1368198.3514582.1650139.5756306.5185517.5749992.9068198v3h7c1.1045695 0 2 .8954305 2 2z" fill="#f44335" data-original="#f44335" style="" class=""/><path id="Shape" d="m57 17h-3c1.1045695 0 2 .8954305 2 2v6c-.0032948 1.1032019-.8967981 1.9967052-2 2h3c1.1032019-.0032948 1.9967052-.8967981 2-2v-6c0-1.1045695-.8954305-2-2-2z" fill="#c81e1e" data-original="#c81e1e" style=""/><path id="Shape" d="m21.64 22.77-9.02 7.21-.98.79c-.1701058.1391197-.380488.2197662-.6.23-.2720768.0108919-.53683-.0896367-.733109-.2783666-.1962791-.1887299-.30710893-.4493387-.306891-.7216334v-3h-7c-1.10320187-.0032948-1.9967052-.8967981-2-2v-6c0-1.1045695.8954305-2 2-2h7v-3c-.0006314-.3882681.223541-.7418059.5749992-.9068198.3514583-.1650139.7666654-.1116726 1.0650008.1368198l4.01 3.21 5.99 4.79c.2292703.1899799.3619561.4722463.3619561.77s-.1326858.5800201-.3619561.77z" fill="#f44335" data-original="#f44335" style="" class=""/><path id="Shape" d="m21.64 21.23-5.99-4.79-4.01-3.21c-.2983354-.2484924-.7135425-.3018337-1.0650008-.1368198-.3514582.1650139-.5756306.5185517-.5749992.9068198v.319l2.65 2.121 5.99 4.79c.2292703.1899799.3619561.4722463.3619561.77s-.1326858.5800201-.3619561.77l-8.64 6.906v.324c-.00021793.2722947.1106119.5329035.306891.7216334.196279.1887299.4610322.2892585.733109.2783666.219512-.0102338.4298942-.0908803.6-.23l.98-.79 9.02-7.21c.2292703-.1899799.3619561-.4722463.3619561-.77s-.1326858-.5800201-.3619561-.77z" fill="#c81e1e" data-original="#c81e1e" style=""/><g fill="#000"><path id="Shape" d="m30 24c.5522847 0 1-.4477153 1-1v-2c0-.5522847-.4477153-1-1-1s-1 .4477153-1 1v2c0 .5522847.4477153 1 1 1z" fill="#000000" data-original="#000000" style="" class=""/><path id="Shape" d="m57 16h-6v-2c.0006559-.7729747-.4441724-1.4771267-1.1424951-1.8085414-.6983227-.3314146-1.5251052-.230752-2.1235049.2585414l-2.681 2.146c-.5695196-3.9954053.0082614-8.0703915 1.666-11.75.2891404-.6193823.2419302-1.34353563-.1251805-1.92013454-.3671108-.57659891-1.0032724-.92577682-1.6868195-.92586546h-29.814c-.6831672.00006547-1.3190418.34883665-1.6862762.9249064-.3672343.57606974-.4150204 1.29973708-.1267238 1.9190936 1.6581854 3.67947889 2.2363182 7.7545 1.667 11.75l-2.667-2.133c-.596532-.4968683-1.426713-.603626-2.1295478-.2738508-.70283481.3297753-1.15132608 1.0364954-1.1504522 1.8128508v2h-6c-.79564947 0-1.55871121.3160705-2.12132034.8786797-.56260914.5626091-.87867966 1.3256708-.87867966 2.1213203v6c0 1.6568542 1.34314575 3 3 3h6v2c.00178372.6536826.32818969 1.2637732.871 1.628-.225.97-.422 1.975-.562 3.03-.98877029 8.404741.6960065 16.9073529 4.815 24.3.3546894.6386183 1.0284973 1.0339394 1.759 1.032h14.069c.017 0 .031.01.048.01s.031-.009.048-.01h14.069c.730283.00307 1.4041812-.3921456 1.758-1.031 4.1196619-7.3924159 5.8048108-15.8951395 4.816-24.3-.14-1.057-.337-2.062-.562-3.032.5425175-.3640288.8688844-.9736718.871-1.627v-2h6c1.6568542 0 3-1.3431458 3-3v-6c0-1.6568542-1.3431458-3-3-3zm-41.907-14h29.812c-1.9780145 4.39587356-2.552781 9.294658-1.646 14.029l-5.54 4.433c-.4588664.3821624-.7229574.9493781-.7200549 1.5465364.0029026.5971583.2724952 1.16178.7350549 1.5394636l8.008 6.406c-2.589 1.771-7.515 4.046-15.742 4.046s-13.153-2.276-15.742-4.046l8.023-6.42c.4588664-.3821624.7229574-.9493781.7200549-1.5465364-.0029026-.5971583-.2724952-1.16178-.7350549-1.5394636l-5.525-4.419c.907405-4.7345015.3318947-9.63367235-1.648-14.029zm14.907 45.271c-3.0875064-3.9020174-7.0325482-7.0401888-11.529-9.171-2.4225762-1.1470919-4.7846832-2.4177632-7.077-3.807.133-.87.3-1.706.491-2.5.1357625-.0659639.2635837-.1471521.381-.242l.367-.294c3.067 2.27 8.457 4.743 17.367 4.743s14.3-2.473 17.367-4.746l.352.281c.1227981.0993868.2570941.1836575.4.251.194.8.358 1.636.491 2.507-2.2933843 1.3891688-4.6564864 2.6598368-7.08 3.807-4.4965845 2.1310494-8.4419019 5.2691679-11.53 9.171zm-27-21.271c-.55228475 0-1-.4477153-1-1v-6c0-.5522847.44771525-1 1-1h7c.5522847 0 1-.4477153 1-1l.016-2.987 4.021 3.207c.0225327.0200611.0462414.038761.071.056l5.908 4.711-10.016 8.019v-3.006c0-.5522847-.4477153-1-1-1zm12.875 31.99c-3.6439109-6.5586171-5.295371-14.0377993-4.752-21.521 1.777 1.057 3.944 2.206 6.477 3.431 4.5244853 2.1335439 8.4434238 5.3649493 11.4 9.4v8.69zm28.242 0h-13.117v-8.69c2.9568868-4.0347574 6.8757434-7.2660954 11.4-9.4 2.534-1.225 4.7-2.374 6.477-3.431.5445704 7.4842562-1.1099083 14.9645163-4.76 21.521zm13.883-32.99c0 .5522847-.4477153 1-1 1h-7c-.5522847 0-1 .4477153-1 1v3l-10.016-7.989 10.016-8.011v3c0 .5522847.4477153 1 1 1h7c.5522847 0 1 .4477153 1 1z" fill="#000000" data-original="#000000" style="" class=""/><path id="Shape" d="m19.043 9.186c.051318.51061041.4808175.8994932.994.9.0332992.0021335.0667008.0021335.1 0 .5493903-.0527177.9521958-.54055989.9-1.09-.0951226-1.00746494-.2453476-2.00896453-.45-3h4.413c.5522847 0 1-.44771525 1-1s-.4477153-1-1-1h-5.675c-.3091935-.00015353-.6010691.14272908-.7905975.3870232-.1895285.24429412-.2553917.5625218-.1784025.8619768.3318212 1.29365537.5615275 2.61137366.687 3.941z" fill="#000000" data-original="#000000" style="" class=""/></g></g></g></g></svg>
