<?xml version="1.0" encoding="iso-8859-1"?>
<!-- Generator: Adobe Illustrator 19.0.0, SVG Export Plug-In . SVG Version: 6.00 Build 0)  -->
<svg version="1.1" id="Capa_1" xmlns="http://www.w3.org/2000/svg" xmlns:xlink="http://www.w3.org/1999/xlink" x="0px" y="0px"
	 viewBox="0 0 511.554 511.554" style="enable-background:new 0 0 511.554 511.554;" xml:space="preserve">
<path style="fill:#455A64;" d="M405.111,181.333C405.111,81.344,338.124,0,255.777,0S106.444,81.344,106.444,181.333
	c0,85.333,48.213,157.867,115.925,176.576l-9.259,111.424c0.247,23.564,19.551,42.466,43.115,42.219s42.466-19.55,42.219-43.115
	l-9.195-110.549C356.919,339.2,405.111,266.667,405.111,181.333z"/>
<ellipse style="fill:#BBDEFB;" cx="255.777" cy="181.333" rx="106.667" ry="138.667"/>
<g>
	<path style="fill:#FAFAFA;" d="M223.777,170.667c-5.891,0.011-10.675-4.757-10.686-10.648c-0.005-2.84,1.123-5.565,3.134-7.571
		l21.333-21.333c4.092-4.237,10.845-4.355,15.083-0.262s4.355,10.845,0.262,15.083c-0.086,0.089-0.173,0.176-0.262,0.262
		l-21.333,21.333C229.312,169.533,226.604,170.66,223.777,170.667z"/>
	<path style="fill:#FAFAFA;" d="M223.777,256c-5.891,0.011-10.675-4.757-10.686-10.648c-0.005-2.84,1.123-5.565,3.134-7.571
		l85.333-85.333c4.092-4.237,10.845-4.355,15.083-0.262s4.355,10.845,0.262,15.083c-0.086,0.089-0.173,0.176-0.262,0.262
		l-85.333,85.333C229.312,254.866,226.604,255.994,223.777,256z"/>
</g>
<g>
</g>
<g>
</g>
<g>
</g>
<g>
</g>
<g>
</g>
<g>
</g>
<g>
</g>
<g>
</g>
<g>
</g>
<g>
</g>
<g>
</g>
<g>
</g>
<g>
</g>
<g>
</g>
<g>
</g>
</svg>
