<?xml version="1.0"?>
<svg xmlns="http://www.w3.org/2000/svg" xmlns:xlink="http://www.w3.org/1999/xlink" xmlns:svgjs="http://svgjs.com/svgjs" version="1.1" width="512" height="512" x="0" y="0" viewBox="0 0 497 497" style="enable-background:new 0 0 512 512" xml:space="preserve" class=""><g><g xmlns="http://www.w3.org/2000/svg"><g><path d="m340.256 428.398h-168.968v54.986l13.616 13.616h63.596 105.527v-16.095c0-19.084-5.016-37.003-13.771-52.507z" fill="#676fb2" data-original="#676fb2" style=""/><path d="m156.744 428.398c-8.755 15.504-13.771 33.423-13.771 52.507v16.095h41.931v-16.095c0-10.227 1.23-20.218 3.919-29.594v-22.913z" fill="#4c5699" data-original="#4c5699" style=""/></g><g><path d="m269.448 376.56h-27.701l-52.923 29.361v45.39c18.025 9.23 38.085 14.236 59.677 14.236 35.603 0 67.981-14.142 91.756-37.149-15.174-26.867-41.07-45.771-70.809-51.838z" fill="#7ce3ff" data-original="#7ce3ff" style="" class=""/><path d="m269.448 376.559c-6.773-1.382-13.778-2.107-20.949-2.107-38.625 0-73.236 21.154-91.755 53.946 9.51 9.202 20.161 16.887 32.079 22.913 10.822-37.727 42.056-66.871 80.625-74.752z" fill="#8895ff" data-original="#2ed0fc" style="" class=""/></g><g><path d="m281.38 2.741h-60.314l-170.004 194.697 170.005 194.698h60.314c93.389-15.658 164.558-96.859 164.558-194.698-.001-97.838-71.169-179.04-164.559-194.697z" fill="#7ce3ff" data-original="#7ce3ff" style="" class=""/><path d="m116.555 197.713c0-98.012 71.297-179.36 164.825-194.972-10.694-1.793-21.676-2.741-32.88-2.741-108.786 0-197.438 88.179-197.438 197.438 0 109.339 88.73 197.438 197.438 197.438 11.204 0 22.186-.948 32.88-2.741-93.527-15.611-164.825-96.413-164.825-194.422z" fill="#8895ff" data-original="#2ed0fc" style="" class=""/></g><g><g><path d="m376.797 166.524-128.297-101.03-62.333 49.085v187.643l62.333 27.161c72.681 0 131.945-58.91 131.945-131.944 0-10.654-1.27-21.003-3.648-30.915z" fill="#cd916e" data-original="#ffddcf" style="" class=""/><path d="m248.5 65.494-128.294 101.026c-2.38 9.915-3.65 20.265-3.65 30.919 0 73.07 59.297 131.944 131.945 131.944-72.872-72.871-72.872-191.018-.001-263.889z" fill="#b67f5f" data-original="#ffcbbe" style="" class=""/></g><path d="m376.797 166.524c-13.936-58.068-66.241-101.03-128.297-101.03-62.092 0-114.361 42.99-128.294 101.026 38.086-20.99 81.821-32.943 128.294-32.943 46.46-.001 90.201 11.952 128.297 32.947z" fill="#8895ff" data-original="#2ed0fc" style="" class=""/></g><g fill="#ff8e9e"><path d="m169.5 217.312c-16.016 0-29 10.297-29 23s12.984 23 29 23 29-10.298 29-23c0-12.703-12.984-23-29-23z" fill="#ff8e9e" data-original="#ff8e9e" style="" class=""/><path d="m327.5 217.312c-16.016 0-29 10.297-29 23s12.984 23 29 23 29-10.298 29-23c0-12.703-12.984-23-29-23z" fill="#ff8e9e" data-original="#ff8e9e" style="" class=""/></g><g fill="#313d40"><path d="m186.407 202.188c-4.142 0-7.5 3.358-7.5 7.5v12c0 4.142 3.358 7.5 7.5 7.5s7.5-3.358 7.5-7.5v-12c0-4.142-3.358-7.5-7.5-7.5z" fill="#141516" data-original="#313d40" style="" class=""/><path d="m311.407 202.188c-4.142 0-7.5 3.358-7.5 7.5v12c0 4.142 3.358 7.5 7.5 7.5s7.5-3.358 7.5-7.5v-12c0-4.142-3.358-7.5-7.5-7.5z" fill="#141516" data-original="#313d40" style="" class=""/><path d="m269.298 215.658c-3.123-2.721-7.86-2.396-10.582.727-2.729 3.132-6.669 4.928-10.81 4.928s-8.081-1.796-10.81-4.928c-2.721-3.123-7.459-3.448-10.582-.727s-3.448 7.458-.727 10.582c5.578 6.402 13.64 10.073 22.118 10.073 8.479 0 16.541-3.671 22.119-10.073 2.723-3.124 2.397-7.861-.726-10.582z" fill="#141516" data-original="#313d40" style="" class=""/></g></g></g></svg>
