<svg id="Capa_1" enable-background="new 0 0 512.071 512.071" height="512" viewBox="0 0 512.071 512.071" width="512" xmlns="http://www.w3.org/2000/svg"><g><g><path d="m387.293 137.198c-32.916-43.878-88.812-41.237-131.515-3.078-42.703-38.159-98.599-40.799-131.515 3.078-54.591 72.771-114.309 77.525-114.309 77.525s69.066 34.88 128.272-.533c41.633-24.902 77.091-18.717 97.863-10.552 12.62 4.961 26.758 4.961 39.378 0 20.772-8.166 56.23-14.35 97.863 10.552 59.206 35.413 128.272.533 128.272.533s-59.718-4.754-114.309-77.525z" fill="#ff7e96"/></g><g><path d="m373.334 214.187s-28.247 15.878-28.247 56.699c0 58.297-7.488 136.342-89.307 136.342-81.584 0-90.023-81.26-90.023-139.655 0-37.509-27.531-53.386-27.531-53.386 41.635-24.895 77.095-18.71 97.863-10.546 12.614 4.959 26.757 4.959 39.381 0 20.769-8.164 56.229-14.349 97.864 10.546z" fill="#ff9db0"/></g><g><path d="m165.768 270.357c-80.182-2.343-152.102-52.984-155.68-55.523-.01-.01-.02-.02-.02-.02-.049-.039-.078-.069-.098-.078 1.411.706 69.666 34.5 128.256-.549 0 0 27.531 15.878 27.531 53.386.001.921.001 1.852.011 2.784z" fill="#e0e7ef"/></g><g><path d="m501.581 214.736c-.137.117-1.225 1-3.146 2.499-.029.02-.049.039-.078.059-16.025 10.713-81.437 51.416-153.259 53.092.225-40.449 28.237-56.199 28.237-56.199 58.58 35.048 126.834 1.254 128.246.549z" fill="#e0e7ef"/></g><g><path d="m176.059 348.755c-54.553-16.75-128.531-60.071-166.098-134.019 1.166.833 74.204 53.239 155.807 55.621v.02c.117 24.953 1.921 53.699 10.291 78.378z" fill="#ff7e96"/></g><g><path d="m502.071 214.736c-37.626 74.057-111.702 117.358-166.314 134.088 7.959-24.493 9.331-53.024 9.331-77.938 0-.167 0-.333.01-.5 82.083-1.911 155.797-54.808 156.973-55.65z" fill="#ff7e96"/></g><g><path d="m508.583 207.15c-1.793-1.539-4.006-2.342-6.243-2.403-1.245-.132-14.908-1.75-34.147-11.015-33.63-16.196-58.207-42.946-72.901-62.535-15.782-21.038-37.058-33.442-61.528-35.872-26.333-2.613-53.742 6.482-77.987 25.722-24.245-19.238-51.649-28.335-77.987-25.722-24.47 2.43-45.746 14.834-61.528 35.872-26.623 35.489-54.338 53.596-72.901 62.535-20.089 9.675-34.108 11.013-34.202 11.021-6.972.555-11.253 8.299-8.116 14.511 37.24 73.304 109.958 118.73 167.386 137.552 7.738 20.329 20.062 38.057 39.587 49.026 4.816 2.704 10.912.994 13.616-3.821 2.705-4.814.995-10.911-3.82-13.616-17.745-9.969-41.234-32.904-42.033-116.417-.154-20.821-5.257-40.352-19.809-55.858 24.185-11.048 51.539-12.972 76.459-3.183 4.346 1.708 8.822 2.907 13.35 3.629v85.268c0 5.522 4.477 10 10 10s10-4.478 10-10v-85.269c4.527-.722 9.002-1.921 13.349-3.629 24.879-9.784 52.263-7.892 76.428 3.172-9.394 10.03-20.47 27.616-20.47 54.767 0 44.577-4.718 98.273-41.505 117.987-4.868 2.609-6.699 8.67-4.09 13.538 1.803 3.364 5.255 5.278 8.823 5.278 1.594 0 3.211-.382 4.715-1.188 20.324-10.892 32.841-28.772 40.489-49.656 57.485-18.835 130.216-64.26 167.468-137.582 2.088-4.107 1.094-9.109-2.403-12.112zm-135.45 50.572c-5.701.921-11.44 1.624-17.197 2.09 2.029-12.883 8.09-25.223 18.077-33.783 18.384 9.66 39.058 14.125 59.758 14.125-19.49 7.997-39.816 14.213-60.638 17.568zm-240.871-114.523c30.285-40.372 82.624-32.209 116.853-1.623 3.795 3.391 9.531 3.391 13.326 0 34.227-30.584 86.569-38.748 116.853 1.623 31.674 42.222 65.098 62.639 88.871 72.473-30.024 7.203-62.639 5.966-89.699-10.069-32.391-19.365-71.092-25.251-106.658-11.271-10.246 4.029-21.813 4.028-32.061 0-35.567-13.984-74.288-8.08-106.652 11.271-25.645 17.096-60.986 16.961-89.708 10.071 23.774-9.834 57.201-30.253 88.875-72.475zm17.747 116.027c-25.907-2.873-50.551-10.495-71.492-19.075 20.431-.074 40.851-4.584 58.994-14.102 9.952 8.524 16.115 20.763 17.754 33.693-1.754-.15-3.507-.319-5.256-.516zm-109.215-14.416c28.154 14.615 69.578 31.604 114.717 35.012.127.01.254.022.381.032.351 15.551 1.573 34.57 5.562 53.244-40.92-15.857-87.468-45.147-120.66-88.288zm309.288 88.478c3.646-18.189 4.699-36.959 4.942-53.355.041-.003.081-.007.122-.01 45.573-3.16 87.563-20.335 116.131-35.164-33.322 43.332-80.118 72.698-121.195 88.529z"/><path d="m265.011 403.408c-1.615-3.943-5.718-6.462-9.964-6.145-4.17.312-7.777 3.27-8.896 7.3-2.404 8.661 7.455 15.876 14.997 11.095 4.041-2.561 5.703-7.837 3.863-12.25z"/></g></g></svg>