<svg height="512pt" viewBox="-5 0 512 512.00002" width="512pt" xmlns="http://www.w3.org/2000/svg"><path d="m457.445312 121.65625c-6.628906 33.285156-35.339843 129.011719-141.796874 82.058594 0 0-1.910157-8.214844.40625-18.515625 3.84375-17.078125 19.300781-39.882813 74.386718-40.371094 1.679688-.011719 3.378906-.011719 5.125.019531 0 0 38.136719-.5 57.890625-25.070312 1.484375-1.847656 4.449219-.4375 3.988281 1.878906zm0 0" fill="#1ab975"/><path d="m390.441406 144.828125c-14.277344 22.992187-37.386718 42.695313-74.386718 40.371094 3.84375-17.078125 19.300781-39.882813 74.386718-40.371094zm0 0" fill="#1ed688"/><path d="m175.050781 376.925781c-42.082031 108.46875-130.0625 61.085938-158.285156 42.238281-1.972656-1.316406-.867187-4.394531 1.492187-4.144531 21.992188 2.390625 42.019532-10.007812 51.996094-17.605469 4.238282-3.238281 6.671875-5.605468 6.671875-5.605468 43.449219-44.816406 72.484375-36.644532 87.074219-26.125 7.367188 5.324218 11.050781 11.242187 11.050781 11.242187zm0 0" fill="#1ab975"/><path d="m164 365.683594c-32.8125 37.949218-66.046875 41.101562-93.746094 31.730468 4.238282-3.238281 6.671875-5.605468 6.671875-5.605468 43.449219-44.816406 72.484375-36.644532 87.074219-26.125zm0 0" fill="#1ed688"/><path d="m204.328125 100.710938c-106.457031 46.945312-135.179687-48.773438-141.796875-82.054688-.460938-2.328125 2.496094-3.726562 3.976562-1.878906 16 19.890625 44.074219 24.003906 54.15625 24.847656 2.371094.199219 3.75.222656 3.75.222656 61.417969-.960937 76.6875 24.515625 79.894532 42.257813 1.6875 9.382812.019531 16.605469.019531 16.605469zm0 0" fill="#1ab975"/><path d="m204.308594 84.105469c-43.03125 5.886719-68.613282-16.761719-83.644532-42.480469 2.371094.199219 3.75.222656 3.75.222656 61.417969-.960937 76.6875 24.515625 79.894532 42.257813zm0 0" fill="#1ed688"/><path d="m370.769531 357.6875h-18.222656c-4.324219 0-7.828125 3.503906-7.828125 7.828125 0 4.320313 3.503906 7.824219 7.828125 7.824219h18.222656c9.484375 0 17.199219 7.71875 17.199219 17.203125s-7.71875 17.199219-17.199219 17.199219h-115.632812c-4.324219 0-7.824219 3.503906-7.824219 7.828124 0 4.324219 3.5 7.828126 7.824219 7.828126h115.632812c18.117188 0 32.855469-14.738282 32.855469-32.855469 0-18.117188-14.738281-32.855469-32.855469-32.855469zm0 0"/><path d="m385.90625 449.917969h-208.738281c-4.324219 0-7.828125 3.503906-7.828125 7.828125 0 4.320312 3.503906 7.824218 7.828125 7.824218h208.738281c4.324219 0 7.828125-3.503906 7.828125-7.824218 0-4.324219-3.503906-7.828125-7.828125-7.828125zm0 0"/><path d="m473.113281 449.917969h-55.894531c-4.324219 0-7.828125 3.503906-7.828125 7.828125 0 4.320312 3.503906 7.824218 7.828125 7.824218h55.894531c6.910157 0 12.535157 5.625 12.535157 12.535157 0 6.914062-5.625 12.535156-12.535157 12.535156h-14.828125c-4.324218 0-7.828125 3.507813-7.828125 7.828125 0 4.324219 3.503907 7.828125 7.828125 7.828125h14.828125c15.542969 0 28.1875-12.644531 28.1875-28.191406 0-15.542969-12.644531-28.1875-28.1875-28.1875zm0 0"/><path d="m337.738281 496.34375h-41.746093c-4.324219 0-7.828126 3.503906-7.828126 7.828125s3.503907 7.828125 7.828126 7.828125h41.746093c4.324219 0 7.828125-3.503906 7.828125-7.828125s-3.503906-7.828125-7.828125-7.828125zm0 0"/><path d="m264.679688 496.34375h-14.605469c-4.324219 0-7.828125 3.503906-7.828125 7.828125s3.503906 7.828125 7.828125 7.828125h14.605469c4.324218 0 7.828124-3.503906 7.828124-7.828125s-3.503906-7.828125-7.828124-7.828125zm0 0"/><path d="m329.980469 58.328125h82.121093c14.117188 0 25.601563-11.484375 25.601563-25.601563 0-14.117187-11.484375-25.601562-25.601563-25.601562h-12.941406c-4.324218 0-7.828125 3.503906-7.828125 7.824219 0 4.324219 3.503907 7.828125 7.828125 7.828125h12.941406c5.484376 0 9.945313 4.464844 9.945313 9.949218 0 5.484376-4.460937 9.945313-9.945313 9.945313h-82.121093c-4.324219 0-7.828125 3.507813-7.828125 7.828125 0 4.324219 3.507812 7.828125 7.828125 7.828125zm0 0"/><path d="m33.902344 183.019531h82.117187c4.324219 0 7.828125-3.503906 7.828125-7.828125 0-4.320312-3.503906-7.828125-7.828125-7.828125h-82.117187c-5.484375 0-9.949219-4.460937-9.949219-9.945312s4.464844-9.949219 9.949219-9.949219h12.9375c4.324218 0 7.828125-3.503906 7.828125-7.828125 0-4.320313-3.503907-7.824219-7.828125-7.824219h-12.9375c-14.117188 0-25.605469 11.484375-25.605469 25.601563 0 14.117187 11.488281 25.601562 25.605469 25.601562zm0 0"/><path d="m332.066406 80.054688c-4.324218 0-7.828125 3.503906-7.828125 7.828124 0 4.324219 3.503907 7.828126 7.828125 7.828126h41.75c4.324219 0 7.828125-3.503907 7.828125-7.828126 0-4.324218-3.503906-7.828124-7.828125-7.828124zm0 0"/><path d="m286.148438 95.710938h14.609374c4.324219 0 7.824219-3.503907 7.824219-7.828126 0-4.324218-3.5-7.828124-7.824219-7.828124h-14.609374c-4.324219 0-7.828126 3.503906-7.828126 7.828124 0 4.324219 3.503907 7.828126 7.828126 7.828126zm0 0"/><path d="m148.664062 228.34375c4.324219 0 7.828126-3.503906 7.828126-7.828125 0-4.320313-3.503907-7.828125-7.828126-7.828125h-58.136718c-4.324219 0-7.828125 3.507812-7.828125 7.828125 0 4.324219 3.503906 7.828125 7.828125 7.828125zm0 0"/><path d="m61.222656 321.433594c0 4.324218 3.503906 7.828125 7.828125 7.828125h111.46875c4.324219 0 7.828125-3.503907 7.828125-7.828125 0-4.320313-3.503906-7.828125-7.828125-7.828125h-111.46875c-4.324219 0-7.828125 3.507812-7.828125 7.828125zm0 0"/><path d="m225.605469 293.863281c4.324219 0 7.828125-3.503906 7.828125-7.828125 0-4.324218-3.503906-7.828125-7.828125-7.828125h-36.222657c-4.324218 0-7.828124 3.503907-7.828124 7.828125 0 4.324219 3.503906 7.828125 7.828124 7.828125zm0 0"/><path d="m276.746094 241.382812c-5.855469 6.648438-15.964844 11.179688-22.75 7.25-3.738282-2.167968-8.53125-.894531-10.699219 2.847657-7.648437 13.207031 24.292969 23.984375 45.199219.246093 11.027344-12.519531 14.355468-27.179687 25.089844-40.375 31.816406 13.8125 66.671874 19.519532 96.925781 1.992188 48.167969-27.910156 56.164062-98.695312 56.480469-101.695312.914062-8.632813-10.90625-12.082032-14.785157-4.324219-14.027343 28.058593-54.609375 29.636719-56.671875 29.695312-37.007812-.550781-62.925781 8.097657-77.140625 25.703125-9.203125 11.402344-11.230469 23.914063-11.300781 32.445313-17.679688 18.019531-19.230469 33.59375-30.347656 46.214843zm100.003906-66.863281c-.230469-4.316406-3.957031-7.621093-8.238281-7.394531-15.109375.816406-29.816407 5.53125-42.691407 13.277344 10.636719-24.230469 43.636719-27.546875 69.84375-27.722656 1.527344-.019532 28.101563-.597657 49.703126-15.074219-18.515626 60.941406-58.417969 85.925781-119.65625 61.832031 12.414062-9.78125 27.757812-15.820312 43.644531-16.679688 4.320312-.230468 7.628906-3.921874 7.394531-8.238281zm0 0"/><path d="m228.203125 391.675781c31.554687 1.992188 46.578125-28.195312 31.78125-32.136719-4.171875-1.109374-8.464844 1.371094-9.578125 5.550782-2.015625 7.574218-12.339844 11.527344-21.214844 10.960937-16.753906-1.0625-28.957031-10.984375-54.132812-11.21875-6.085938-5.984375-16.363282-13.394531-30.933594-14.949219-22.5-2.402343-46.964844 9.832032-72.71875 36.367188-1.582031 1.488281-31.359375 28.984375-61.074219 19.078125-8.234375-2.746094-14.144531 8.050781-7.398437 13.511719 2.019531 1.632812 43.640625 34.808594 89.527344 34.808594 45.054687 0 73.042968-31.207032 89.445312-72.785157 17.316406 1.78125 29.410156 9.742188 46.296875 10.8125zm-191.578125 30.21875c16.914062-3.355469 36.453125-14.804687 45.917969-24.636719 18.042969-18.613281 44.75-39.015624 68.832031-29.625-14.585938 3.625-28.3125 10.691407-39.578125 20.800782-5.351563 4.800781-1.898437 13.652344 5.230469 13.652344 1.863281 0 3.730468-.660157 5.226562-2 11.84375-10.628907 26.964844-17.207032 42.65625-19.070313-25.90625 59.511719-71.171875 71.316406-128.285156 40.878906zm0 0"/><path d="m109.460938 110.339844c30.066406 17.417968 64.789062 11.957031 96.921874-1.992188 10.660157 13.101563 14.089844 27.882813 25.089844 40.378906 20.875 23.703126 52.875 13.003907 45.199219-.25-2.164063-3.738281-6.957031-5.015624-10.695313-2.847656-6.789062 3.925782-16.894531-.601562-22.753906-7.25-10.839844-12.308594-12.945312-28.484375-30.34375-46.210937-.070312-8.535157-2.097656-21.042969-11.300781-32.445313-14.214844-17.609375-40.167969-26.253906-77.148437-25.703125-2.144532-.054687-42.574219-1.519531-56.664063-29.695312-3.882813-7.769531-15.699219-4.3046878-14.789063 4.320312.320313 3 8.316407 73.785157 56.484376 101.695313zm15.074218-60.667969c25.886719-.402344 59.214844 4.023437 69.617188 27.726563-12.878906-7.75-27.582032-12.460938-42.695313-13.277344-4.308593-.226563-8.003906 3.078125-8.238281 7.394531s3.078125 8.003906 7.394531 8.238281c15.886719.859375 31.234375 6.898438 43.644531 16.679688-60.398437 23.765625-100.757812.09375-119.617187-61.808594 14.621094 9.785156 35.710937 15.046875 49.894531 15.046875zm0 0"/></svg>