<?xml version="1.0"?>
<svg xmlns="http://www.w3.org/2000/svg" xmlns:xlink="http://www.w3.org/1999/xlink" xmlns:svgjs="http://svgjs.com/svgjs" version="1.1" width="512" height="512" x="0" y="0" viewBox="0 0 128 128" style="enable-background:new 0 0 512 512" xml:space="preserve" class=""><g><g xmlns="http://www.w3.org/2000/svg"><path d="m124.186 87.94c.291-.224.559-.483.798-.774.924-1.127 1.288-2.606.998-4.059-.447-2.232-2.503-3.853-4.889-3.853l-7.204-.007c.788-1.083 1.091-2.448.835-3.792-.432-2.259-2.492-3.898-4.899-3.898h-25.301c-4.976 0-9.708 1.925-13.325 5.42-.215.208-.481.322-.75.322h-37.551c-1.654 0-3-1.346-3-3v-43.756c0-8.956-7.286-16.242-16.242-16.242h-6.735c-.552 0-1 .448-1 1v68.644c0 8.071 6.563 14.637 14.629 14.637h49.089c.433 0 .813.296.969.755.937 2.765 3.143 5.459 6.187 7.571l13.151 9.712c.871.706 1.935 1.081 3.041 1.081.17 0 .342-.009.513-.027 1.287-.135 2.444-.762 3.258-1.767s1.189-2.267 1.054-3.554-.762-2.444-1.764-3.255l-5.847-4.784h24.94c2.407 0 4.467-1.639 4.898-3.898.256-1.342-.046-2.706-.832-3.788h1.882c2.407 0 4.467-1.639 4.899-3.898.276-1.445-.096-2.914-1.02-4.031-.233-.285-.497-.538-.782-.759z" fill="#3f4144" data-original="#e6e7e8" style="" class=""/><g><g><g><path d="m109.741 71.643c.469 2.455-1.4 4.601-3.77 4.601l11.121.011c1.848 0 3.547 1.237 3.909 3.049.494 2.47-1.382 4.637-3.764 4.637 2.37 0 4.239 2.146 3.77 4.601-.349 1.827-2.056 3.085-3.916 3.085h-5.803c2.37 0 4.239 2.146 3.77 4.601-.349 1.827-2.056 3.085-3.916 3.085h-27.741l8.015 6.558c1.649 1.336 1.902 3.756.566 5.405s-3.756 1.902-5.405.566l-13.187-9.739c-2.613-1.813-4.879-4.271-5.834-7.087-.285-.84-1.029-1.434-1.916-1.434-5.177 0-32.248 0-49.088 0-7.531 0-13.63-6.105-13.63-13.637v-68.645h6.735c8.418 0 15.242 6.824 15.242 15.242v43.758c0 2.209 1.791 4 4 4h37.551c.543 0 1.054-.226 1.444-.603 3.282-3.172 7.733-5.14 12.63-5.14h25.301c1.86 0 3.567 1.258 3.916 3.086z" fill="#5f4c2e" data-original="#ffd7e5" style="" class=""/><g><path d="m5.921 79.944v-68.644h-3v68.644c0 7.531 6.098 13.637 13.63 13.637h3c-7.532 0-13.63-6.105-13.63-13.637z" fill="#3c290e" data-original="#ffffff" style="" class=""/></g></g><g fill="#3a2c60"><path d="m24.898 46.785c-.552 0-1 .448-1 1v7.875c0 .552.448 1 1 1s1-.448 1-1v-7.875c0-.553-.448-1-1-1z" fill="#000000" data-original="#3a2c60" style="" class=""/><path d="m120.186 83.94c.292-.224.56-.483.798-.774.924-1.127 1.288-2.606.997-4.059-.446-2.232-2.503-3.853-4.889-3.853l-7.204-.007c.788-1.083 1.091-2.449.834-3.792-.431-2.259-2.491-3.898-4.898-3.898h-25.3c-4.976 0-9.708 1.925-13.325 5.421-.215.208-.481.322-.749.322h-37.552c-1.654 0-3-1.346-3-3v-10.765c0-.552-.448-1-1-1s-1 .448-1 1v10.765c0 2.757 2.243 5 5 5h37.117c-.079.23-.145.45-.189.643-.122.539.215 1.074.754 1.196.075.017.149.025.222.025.457 0 .869-.315.974-.779.102-.447.179-1.215.812-1.969.436-.519 1.34-1.199 2.063-1.712 2.887-2.044 6.311-3.148 9.873-3.148h25.301c1.425 0 2.687.977 2.934 2.273.167.87-.045 1.715-.596 2.381-.542.656-1.342 1.033-2.192 1.033h-10.673c-.552 0-1 .448-1 1s.448 1 1 1h10.671l11.122.011c1.437 0 2.668.944 2.929 2.246.175.875-.032 1.726-.583 2.398-.543.663-1.345 1.042-2.2 1.042h-21.939c-.552 0-1 .448-1 1s.448 1 1 1h21.939c.851 0 1.65.376 2.192 1.033.55.666.762 1.511.596 2.381-.248 1.296-1.509 2.273-2.934 2.273h-5.803-15.99c-.552 0-1 .448-1 1s.448 1 1 1h15.99c.851 0 1.649.376 2.192 1.033.55.666.762 1.511.595 2.38-.247 1.296-1.508 2.273-2.934 2.273h-26.81c-.473-4.071-3.455-8.15-5.642-9.685-.453-.317-1.076-.207-1.393.245s-.208 1.076.245 1.393c2.004 1.406 4.823 5.532 4.859 9.057.003.299.144.557.353.739.006.007.007.02.014.025l8.018 6.561c.59.478.958 1.158 1.038 1.913.079.755-.141 1.496-.619 2.086s-1.158.958-1.913 1.038c-.756.082-1.496-.141-2.122-.646l-13.211-9.757c-1.963-1.362-3.512-2.96-4.523-4.633-.317-.524-.706-1.394-.948-2.081-.241-.687-.48-1.815-.701-3.108-.093-.544-.607-.908-1.154-.817-.544.093-.91.61-.817 1.154.044.256.1.533.159.813-.111-.013-.222-.028-.336-.028h-49.087c-6.964 0-12.63-5.669-12.63-12.637v-67.645h5.735c7.853 0 14.242 6.389 14.242 14.242v17.305c0 .552.448 1 1 1s1-.448 1-1v-17.305c0-8.956-7.286-16.242-16.242-16.242h-6.735c-.552 0-1 .448-1 1v68.644c0 8.071 6.563 14.637 14.63 14.637h49.088c.433 0 .813.296.969.755.039.116.094.232.138.348.001.003.005.016.005.018.003.01.009.017.012.026 1.007 2.626 3.132 5.168 6.031 7.179l13.152 9.712c.871.706 1.935 1.081 3.041 1.081.17 0 .342-.009.513-.027 1.287-.135 2.444-.762 3.258-1.767s1.189-2.267 1.054-3.554-.762-2.444-1.764-3.255l-5.847-4.784h24.94c2.407 0 4.467-1.639 4.898-3.898.256-1.342-.046-2.706-.832-3.788h1.882c2.407 0 4.467-1.639 4.898-3.898.276-1.444-.096-2.914-1.019-4.03-.233-.285-.496-.538-.782-.759z" fill="#000000" data-original="#3a2c60" style="" class=""/></g></g></g></g></g></svg>
