<?xml version="1.0"?>
<svg xmlns="http://www.w3.org/2000/svg" xmlns:xlink="http://www.w3.org/1999/xlink" xmlns:svgjs="http://svgjs.com/svgjs" version="1.1" width="512" height="512" x="0" y="0" viewBox="0 0 423.8639 423" style="enable-background:new 0 0 512 512" xml:space="preserve" class=""><g><path xmlns="http://www.w3.org/2000/svg" d="m14.796875 166.589844s202.226563 291.667968 402.242187-28.34375v3.089844c-200.015624-320.011719-409.554687 5.15625-409.554687 5.15625zm0 0" fill="#5f4c2e" data-original="#ffd578" style="" class=""/><path xmlns="http://www.w3.org/2000/svg" d="m375.378906 159.726562-.136718.148438c-1.65625 1.820312-18.230469 19.570312-45.777344 36.71875-27.5625 17.167969-65.964844 33.679688-111.519532 33.671875-47.019531-.042969-102.039062-17.386719-162.027343-71.078125-2.039063-1.828125-4.957031-2.261719-7.441407-1.101562l-12.988281 6.058593c-2.175781 1.015625-4.515625 1.511719-6.847656 1.511719-4.753906 0-9.316406-2.066406-12.128906-5.589844-1.960938-2.453125-2.851563-5.1875-2.859375-7.925781.011718-3.378906 1.363281-6.742187 4.269531-9.449219 15.082031-14.003906 42.820313-37.261718 78.863281-56.910156 36.054688-19.667969 80.332032-35.671875 128.605469-35.660156 57.988281.070312 122.101563 22.757812 186.664063 91.515625 2.578124 2.75 6.898437 2.890625 9.652343.308593 2.75-2.578124 2.890625-6.898437.3125-9.648437-66.5-71.054687-134.941406-95.902344-196.625-95.832031-51.328125.011718-97.730469 16.933594-135.144531 37.328125-37.421875 20.414062-65.945312 44.351562-81.617188 58.890625-5.628906 5.207031-8.6445308 12.308594-8.632812 19.460937-.0078125 5.796875 1.976562 11.640625 5.867188 16.472657 5.652343 7.015624 14.15625 10.6875 22.769531 10.691406 4.257812 0 8.578125-.898438 12.625-2.789063l12.988281-6.0625-2.886719-6.183593-4.558593 5.082031c61.902343 55.539062 120.648437 74.605469 171.140624 74.5625 50.492188-.011719 92.34375-18.824219 121.507813-37.484375 29.183594-18.6875 45.820313-37.300782 46.109375-37.613282 2.507812-2.8125 2.265625-7.128906-.546875-9.640624-2.8125-2.511719-7.128906-2.265626-9.636719.546874zm0 0" fill="#000000" data-original="#54596e" style="" class=""/><path xmlns="http://www.w3.org/2000/svg" d="m55.015625 143.925781s160.898437 168.660157 314.480469 0v1.628907c-153.578125-168.660157-314.480469 0-314.480469 0" fill="#ffffff" data-original="#ffffff" style="" class=""/><path xmlns="http://www.w3.org/2000/svg" d="m59.785156 145.261719.15625-.148438c1.867188-1.789062 20.058594-18.855469 48.6875-35.347656 28.636719-16.511719 67.621094-32.363281 111.078125-32.34375 44.859375.070313 94.742188 16.546875 144.910157 67.730469 2.636718 2.695312 6.957031 2.742187 9.652343.109375 2.695313-2.640625 2.742188-6.960938.105469-9.65625-52.222656-53.492188-106.351562-71.90625-154.667969-71.835938-48.324219.019531-90.574219 18.015625-120.761719 35.839844-30.195312 17.851563-48.425781 35.628906-48.699218 35.882813-2.695313 2.632812-2.75 6.953124-.117188 9.652343 2.632813 2.699219 6.957032 2.753907 9.65625.117188zm0 0" fill="#000000" data-original="#54596e" style="" class=""/><path xmlns="http://www.w3.org/2000/svg" d="m143.863281 87.277344c-6.445312 11.703125-10.132812 25.140625-10.132812 39.445312 0 45.246094 36.679687 81.921875 81.917969 81.921875 45.242187 0 81.921874-36.675781 81.921874-81.921875 0-15.128906-4.171874-29.253906-11.328124-41.414062-53.03125-24.058594-103.265626-15.085938-142.378907 1.96875zm0 0" fill="#4d7db3" data-original="#55a6ff" style="" class=""/><path xmlns="http://www.w3.org/2000/svg" d="m143.863281 87.277344-6.550781-3.609375c-7.03125 12.765625-11.0625 27.460937-11.058594 43.054687.003906 49.378906 40.023438 89.394532 89.398438 89.398438 49.371094-.003906 89.390625-40.019532 89.398437-89.398438.003907-16.511718-4.566406-31.964844-12.359375-45.203125-.777344-1.316406-1.964844-2.386719-3.355468-3.019531-24.109376-10.941406-47.824219-15.375-70.171876-15.367188-28.921874.003907-55.519531 7.363282-78.289062 17.289063-1.527344.667969-2.757812 1.789063-3.558594 3.246094l6.546875 3.609375 2.988281 6.855468c21.351563-9.316406 45.949219-16.050781 72.3125-16.046874 20.386719.007812 41.851563 4 63.988282 14.035156l3.089844-6.808594-6.445313 3.792969c6.515625 11.078125 10.292969 23.871093 10.296875 37.621093-.003906 20.578126-8.324219 39.140626-21.804688 52.636719-13.496093 13.484375-32.058593 21.800781-52.636718 21.804688-20.582032-.003907-39.144532-8.320313-52.636719-21.804688-13.484375-13.492187-21.800781-32.058593-21.804687-52.636719 0-13.019531 3.34375-25.195312 9.203124-35.839843l-6.550781-3.609375 2.988281 6.855468zm0 0" fill="#000000" data-original="#54596e" style="" class=""/><path xmlns="http://www.w3.org/2000/svg" d="m266.851562 126.722656c0 28.277344-22.921874 51.199219-51.199218 51.199219s-51.203125-22.921875-51.203125-51.199219 22.925781-51.199218 51.203125-51.199218 51.199218 22.921874 51.199218 51.199218zm0 0" fill="#000000" data-original="#54596e" style="" class=""/><path xmlns="http://www.w3.org/2000/svg" d="m191.757812 113.070312c0 9.425782-7.640624 17.066407-17.066406 17.066407-9.425781 0-17.066406-7.640625-17.066406-17.066407 0-9.425781 7.640625-17.066406 17.066406-17.066406 9.425782 0 17.066406 7.640625 17.066406 17.066406zm0 0" fill="#ffffff" data-original="#ffffff" style="" class=""/></g></svg>
