<?xml version="1.0"?>
<svg xmlns="http://www.w3.org/2000/svg" xmlns:xlink="http://www.w3.org/1999/xlink" xmlns:svgjs="http://svgjs.com/svgjs" version="1.1" width="512" height="512" x="0" y="0" viewBox="0 0 512 512" style="enable-background:new 0 0 512 512" xml:space="preserve" class=""><g><g xmlns="http://www.w3.org/2000/svg"><g fill="#eb866c"><path d="m135.093 238.447c0 33.689-20.608 61-46.03 61-30.63 0-27.26-30.019-31.653-40.791-3.885-9.529-12.41-14.258-12.41-33.874 0-25.227 12.69-47.335 44.063-47.335 25.422 0 46.03 27.31 46.03 61z" fill="#5f4c2e" data-original="#eb866c" style="" class=""/><path d="m376.907 238.447c0 33.689 20.608 61 46.03 61 30.63 0 27.26-30.019 31.653-40.791 3.886-9.529 12.41-14.258 12.41-33.874 0-25.227-12.69-47.335-44.063-47.335-25.422 0-46.03 27.31-46.03 61z" fill="#5f4c2e" data-original="#eb866c" style="" class=""/></g><path d="m170 380.5h172v124h-172z" fill="#3c290e" data-original="#fc997d" style="" class=""/><path d="m312 380.5h30v124h-30z" fill="#5f4c2e" data-original="#eb866c" style="" class=""/><path d="m289.776 427.105h-62.159c-22.029 0-42.728-10.542-55.683-28.36l-25.129-34.561c-27.967-38.465-43.031-84.8-43.031-132.358v-72.1c0-84.072 68.154-152.226 152.226-152.226 84.072 0 152.226 68.154 152.226 152.226v76.94c0 44.552-13.222 88.102-37.992 125.133l-23.234 34.736c-12.776 19.103-34.242 30.57-57.224 30.57z" fill="#5f4c2e" data-original="#fdba91" style="" class=""/><g fill="#fc997d"><path d="m256 7.5c-5.062 0-10.065.253-15 .736 77.031 7.535 137.226 72.48 137.226 151.49v76.94c0 44.552-13.222 88.102-37.992 125.133l-23.234 34.736c-12.777 19.102-34.243 30.569-57.224 30.569h30c22.981 0 44.447-11.467 57.224-30.569l23.234-34.736c24.769-37.032 37.992-80.581 37.992-125.133v-76.94c0-84.072-68.154-152.226-152.226-152.226z" fill="#3c290e" data-original="#fc997d" style="" class=""/><path d="m292.37 285.17c-.01.01-.01.03-.02.04-3.37 4.22-14.51 15.69-36.35 15.69-.71 0-1.41-.01-2.09-.04h-.01s14.03-25.49 16.33-53.71c1.23-15.07-2.15-31.52 7.08-31.6 9.23-.09 20.75 58.24 15.06 69.62z" fill="#3c290e" data-original="#fc997d" style="" class=""/><path d="m294.81 339.86-.33 4.4c-.74 9.99-8.25 18.16-18.14 19.73-5.79.91-12.75 1.63-20.34 1.63-7.61 0-14.62-.72-20.47-1.64-9.98-1.57-17.53-9.85-18.19-19.93l-.27-4.22c7.57 1.98 20.51 4.37 38.93 4.37 18.33 0 31.23-2.36 38.81-4.34z" fill="#3c290e" data-original="#fc997d" style="" class=""/></g><g><path d="m422.94 169.95c-2.426 0-4.834.214-7.214.621v-10.845c0-88.073-71.653-159.726-159.726-159.726-45.949 0-89.706 19.816-120.051 54.366-2.733 3.112-2.426 7.851.686 10.584s7.852 2.426 10.584-.686c27.498-31.308 67.147-49.264 108.781-49.264 79.802 0 144.726 64.924 144.726 144.726v76.94c0 18.207-2.292 36.272-6.756 53.773-.021.086-.046.17-.064.256-5.102 19.898-13.015 39.065-23.57 56.88-2.112 3.563-.935 8.164 2.629 10.276 3.563 2.11 8.164.935 10.275-2.629 9.68-16.337 17.275-33.741 22.683-51.788 5.451 2.314 11.206 3.517 17.017 3.517 30.135 0 34.475-24.415 36.807-37.531 1.365-7.679 1.417-8.171 5.501-14.444 4.122-6.33 9.252-14.208 9.252-30.195 0-33.822-19.757-54.831-51.56-54.831zm29.738 76.84c-5.379 8.262-6.021 10.559-7.7 20.004-2.702 15.196-5.695 25.156-22.039 25.156-4.541 0-8.938-1.087-13.127-3.231 3.906-17.006 5.913-34.467 5.913-52.053v-10.129c.899-1.388 2.578-3.657 4.997-5.598 4.781-3.839 10.149-4.534 16.412-2.127 3.865 1.486 8.205-.442 9.691-4.31 1.486-3.866-.443-8.205-4.31-9.691-10.852-4.172-19.879-2.488-26.791 1.409v-20.314c2.37-.633 4.783-.956 7.214-.956 32.998 0 36.56 27.854 36.56 39.83.002 11.534-3.159 16.388-6.82 22.01z" fill="#000000" data-original="#000000" style="" class=""/><path d="m363.449 371.944c-3.442-2.303-8.1-1.379-10.404 2.064-11.845 17.495-12.737 19.561-16.73 24.217-.057.067-.114.133-.169.202-11.572 13.379-28.413 21.178-46.37 21.178h-62.16c-19.563 0-38.112-9.447-49.617-25.271l-25.129-34.561c-15.432-21.225-26.733-44.642-33.63-69.378-.083-.571-.239-1.134-.456-1.682-4.962-18.368-7.51-37.447-7.51-56.888v-72.1c0-24.765 6.36-49.2 18.393-70.665 2.025-3.613.739-8.184-2.875-10.209s-8.184-.739-10.209 2.875c-13.286 23.7-20.309 50.671-20.309 78v10.845c-2.38-.407-4.788-.621-7.214-.621-31.803 0-51.56 21.009-51.56 54.83 0 15.988 5.13 23.865 9.252 30.195 4.079 6.265 4.136 6.759 5.501 14.444 2.332 13.116 6.672 37.531 36.807 37.531 6.266 0 12.445-1.396 18.261-4.074 7.482 23.331 18.688 45.46 33.418 65.719l21.761 29.929v105.976c0 4.142 3.358 7.5 7.5 7.5h22.231c4.142 0 7.5-3.358 7.5-7.5s-3.358-7.5-7.5-7.5h-14.731v-81.176c13.763 11.954 31.571 18.781 50.117 18.781h62.16c16.322 0 31.897-5.184 44.724-14.462v76.857h-110.424c-4.142 0-7.5 3.358-7.5 7.5s3.358 7.5 7.5 7.5h117.923c4.142 0 7.5-3.358 7.5-7.5v-98.693c3.427-4.31 4.239-5.994 16.013-23.459 2.303-3.443 1.379-8.101-2.064-10.404zm-274.389-79.994c-16.343 0-19.337-9.96-22.039-25.156-1.683-9.465-2.324-11.747-7.7-20.004-3.661-5.621-6.822-10.476-6.822-22.01 0-11.976 3.563-39.83 36.56-39.83 2.431 0 4.844.323 7.214.956v20.314c-6.911-3.896-15.938-5.58-26.791-1.409-3.866 1.486-5.796 5.825-4.31 9.691s5.826 5.797 9.691 4.31c8.987-3.455 16.291-.173 21.409 7.731v5.283c0 19.22 2.332 38.109 6.877 56.372-4.473 2.488-9.194 3.752-14.089 3.752z" fill="#000000" data-original="#000000" style="" class=""/><path d="m297.423 277.294c-3.52-2.185-8.143-1.103-10.328 2.416-.085.137-9.112 13.687-31.095 13.687-21.824 0-30.682-13.059-31.13-13.743-2.198-3.475-6.792-4.532-10.292-2.36-3.519 2.185-4.601 6.809-2.416 10.328.527.848 13.25 20.775 43.839 20.775s43.312-19.927 43.839-20.775c2.183-3.518 1.102-8.143-2.417-10.328z" fill="#000000" data-original="#000000" style="" class=""/><path d="m189.401 158.451c-25.182-2.175-46.128 5.491-47.007 5.819-3.882 1.445-5.857 5.763-4.413 9.645 1.445 3.882 5.762 5.856 9.645 4.413.184-.068 18.625-6.814 40.487-4.932 19.539 1.685 29.534 16.96 29.989 17.671 2.199 3.495 6.809 4.554 10.313 2.371 3.516-2.19 4.59-6.816 2.4-10.332-.566-.91-14.194-22.309-41.414-24.655z" fill="#000000" data-original="#000000" style="" class=""/><path d="m374.019 173.915c1.445-3.882-.531-8.2-4.413-9.645-.879-.327-21.824-7.99-47.007-5.819-27.22 2.346-40.847 23.746-41.414 24.655-2.182 3.502-1.114 8.092 2.377 10.293 3.485 2.196 8.11 1.157 10.333-2.328.416-.652 10.413-15.988 29.992-17.676 21.705-1.869 40.313 4.868 40.487 4.932 3.882 1.446 8.2-.531 9.645-4.412z" fill="#000000" data-original="#000000" style="" class=""/><path d="m212.059 330.352c-3.766-1.682-8.189-.006-9.892 3.757-1.707 3.774-.032 8.217 3.742 9.925.692.313 17.324 7.667 50.091 7.667s49.399-7.354 50.091-7.667c3.759-1.701 5.42-6.11 3.74-9.879s-6.107-5.463-9.885-3.805c-.145.063-14.793 6.35-43.946 6.35-28.962 0-43.609-6.204-43.941-6.348z" fill="#000000" data-original="#000000" style="" class=""/></g></g></g></svg>
