<svg id="Layer_1" enable-background="new 0 0 512 512" height="512" viewBox="0 0 512 512" width="512" xmlns="http://www.w3.org/2000/svg"><g><g><path d="m485.657 138.343-8-8c-1.501-1.5-3.535-2.343-5.657-2.343h-200v-16c13.255 0 24-10.745 24-24v-8c4.418 0 8-3.582 8-8v-8c0-4.418-3.582-8-8-8v-16c0-13.255-10.745-24-24-24h-32c-13.255 0-24 10.745-24 24v16c-4.418 0-8 3.582-8 8v8c0 4.418 3.582 8 8 8v8c0 13.255 10.745 24 24 24v16h-200c-2.122 0-4.157.843-5.657 2.343l-8 8c-3.125 3.124-3.125 8.19 0 11.314 1.562 1.562 3.61 2.343 5.657 2.343s4.095-.781 5.657-2.343l5.656-5.657h12.687c-4.418 0-8 3.582-8 8s3.582 8 8 8h8.698c1.649 4.658 6.08 8 11.302 8h116v304h-4c-6.627 0-12 5.373-12 12s5.373 12 12 12h40c6.627 0 12-5.373 12-12v-164h32v164c0 6.627 5.373 12 12 12h40c6.627 0 12-5.373 12-12s-5.373-12-12-12h-4v-304h116c5.223 0 9.654-3.342 11.302-8h8.698c4.418 0 8-3.582 8-8s-3.582-8-8-8h12.687l5.656 5.657c1.563 1.562 3.609 2.343 5.657 2.343s4.095-.781 5.657-2.343c3.124-3.124 3.124-8.19 0-11.314z" fill="#fab991"/></g><g><path d="m288 240c-13.255 0-24-10.745-24-24v-48c0-4.418 3.582-8 8-8 22.091 0 40 17.909 40 40v16c0 13.255-10.745 24-24 24z" fill="#f0915a"/></g><g><path d="m305.333 200h-8c0-6.617-5.383-12-12-12h-13.333v-8h13.333c11.028 0 20 8.972 20 20z" fill="#d73728"/></g><g><path d="m285.333 220h-22.666v-8h22.666c6.617 0 12-5.383 12-12h8c0 11.028-8.972 20-20 20z" fill="#2387c3"/></g><g><path d="m224 240c13.255 0 24-10.745 24-24v-48c0-4.418-3.582-8-8-8-22.091 0-40 17.909-40 40v16c0 13.255 10.745 24 24 24z" fill="#f0915a"/></g><g><g><path d="m262.667 212h8v72h-8z" fill="#d73728"/></g><g><path d="m241.333 212h8v72h-8z" fill="#2387c3"/></g><g><path d="m296 478.667v-8c3.676 0 6.667-2.991 6.667-6.667v-152c0-11.028-8.972-20-20-20h-32c-11.028 0-20 8.972-20 20v152c0 8.087-6.58 14.667-14.667 14.667v-8c3.676 0 6.667-2.991 6.667-6.667v-152c0-15.439 12.561-28 28-28h32c15.439 0 28 12.561 28 28v152c0 8.087-6.579 14.667-14.667 14.667z" fill="#d73728"/></g><g><path d="m296 478.667c-8.088 0-14.667-6.579-14.667-14.667v-152c0-11.028-8.972-20-20-20h-32c-11.028 0-20 8.972-20 20v152c0 3.676 2.991 6.667 6.667 6.667v8c-8.087 0-14.667-6.579-14.667-14.667v-152c0-15.439 12.561-28 28-28h32c15.439 0 28 12.561 28 28v152c0 3.676 2.991 6.667 6.667 6.667z" fill="#2387c3"/></g></g><g><path d="m214.667 200h-8c0-11.028 8.972-20 20-20h13.333v8h-13.333c-6.617 0-12 5.383-12 12z" fill="#d73728"/></g><g><path d="m249.333 220h-22.667c-11.028 0-20-8.972-20-20h8c0 6.617 5.383 12 12 12h22.667z" fill="#2387c3"/></g><g><path d="m241.333 142.667h8v32h-8z" fill="#2387c3"/></g><g><g><path d="m256 228c-2.7 0-5.267-.842-7.421-2.436-5.97-4.416-19.925-16.416-20.557-32.438-.379-9.61 6.633-17.696 15.963-18.408.453-.035.903-.052 1.348-.052 3.944 0 7.659 1.304 10.667 3.673 3.008-2.369 6.723-3.673 10.666-3.673.445 0 .896.017 1.349.052 9.33.713 16.342 8.799 15.963 18.408-.632 16.023-14.587 28.022-20.557 32.438-2.154 1.594-4.72 2.436-7.421 2.436z" fill="#f05a4b"/></g><g><path d="m266.667 178.667c.345 0 .693.013 1.044.04 7.234.553 12.557 7.013 12.271 14.262-.565 14.322-13.499 25.357-18.938 29.379-1.461 1.08-3.229 1.652-5.044 1.652-1.815 0-3.583-.572-5.042-1.652-5.439-4.023-18.373-15.057-18.938-29.379-.286-7.25 5.036-13.71 12.271-14.262.351-.027.699-.04 1.044-.04 4.369 0 8.235 2.111 10.667 5.358 2.43-3.248 6.295-5.358 10.665-5.358m0-8c-3.774 0-7.455 1.024-10.667 2.883-3.212-1.859-6.892-2.883-10.667-2.883-.548 0-1.104.021-1.653.063-11.486.877-20.119 10.784-19.655 22.554.7 17.753 15.741 30.737 22.175 35.496 2.848 2.106 6.237 3.22 9.799 3.22 3.563 0 6.952-1.113 9.8-3.22 6.434-4.759 21.475-17.743 22.175-35.496.464-11.77-8.169-21.677-19.655-22.555-.548-.041-1.105-.062-1.652-.062z" fill="#d73728"/></g></g><g><path d="m272 64h-32c-8.837 0-16-7.163-16-16v-8c0-8.837 7.163-16 16-16h32c8.837 0 16 7.163 16 16v8c0 8.837-7.164 16-16 16z" fill="#f0915a"/></g><path d="m424 134.667h-60.687c-8.364 0-16.228 3.257-22.142 9.172-4.403 4.403-10.258 6.828-16.485 6.828h-137.373c-6.228 0-12.082-2.425-16.485-6.828-5.915-5.914-13.778-9.172-22.142-9.172h-60.686c-6.617 0-12 5.383-12 12h8c0-2.206 1.794-4 4-4h60.686c6.227 0 12.082 2.425 16.485 6.828 5.914 5.914 13.778 9.172 22.142 9.172h75.354v16h8v-16h54.02c8.364 0 16.228-3.257 22.142-9.172 4.403-4.403 10.258-6.828 16.485-6.828h60.686c2.206 0 4 1.794 4 4h8c0-6.617-5.383-12-12-12z" fill="#d73728"/><g><path d="m424 158.667h-60.687c-8.364 0-16.228-3.257-22.142-9.172-4.403-4.403-10.258-6.828-16.485-6.828h-137.373c-6.228 0-12.082 2.425-16.485 6.828-5.915 5.914-13.778 9.172-22.143 9.172h-60.685c-6.617 0-12-5.383-12-12h8c0 2.206 1.794 4 4 4h60.686c6.227 0 12.082-2.425 16.486-6.828 5.914-5.914 13.777-9.172 22.142-9.172h137.373c8.364 0 16.228 3.257 22.142 9.172 4.403 4.403 10.258 6.828 16.485 6.828h60.686c2.206 0 4-1.794 4-4h8c0 6.616-5.383 12-12 12z" fill="#2387c3"/></g><g><path d="m256 260h-20c-8.822 0-16-7.178-16-16s7.178-16 16-16h9.333v8h-9.333c-4.411 0-8 3.589-8 8s3.589 8 8 8h20z" fill="#2387c3"/></g><g><path d="m276 260h-20v-8h20c4.411 0 8-3.589 8-8s-3.589-8-8-8h-9.333v-8h9.333c8.822 0 16 7.178 16 16s-7.178 16-16 16z" fill="#d73728"/></g><g><path d="m252 134.667h-8v-37.735c-9.118-1.858-16-9.94-16-19.598v-13.334c0-11.028 8.972-20 20-20h8v8h-8c-6.617 0-12 5.383-12 12v13.333c0 6.617 5.383 12 12 12 2.209 0 4 1.791 4 4z" fill="#2387c3"/></g><g><path d="m268 150.667h-8v-57.334c0-2.209 1.791-4 4-4 6.617 0 12-5.383 12-12v-13.333c0-6.617-5.383-12-12-12h-8v-8h8c11.028 0 20 8.972 20 20v13.333c0 9.658-6.883 17.74-16 19.598z" fill="#d73728"/></g></g></svg>