<?xml version="1.0"?>
<svg xmlns="http://www.w3.org/2000/svg" xmlns:xlink="http://www.w3.org/1999/xlink" xmlns:svgjs="http://svgjs.com/svgjs" version="1.1" width="512" height="512" x="0" y="0" viewBox="0 0 512 512" style="enable-background:new 0 0 512 512" xml:space="preserve" class=""><g><g xmlns="http://www.w3.org/2000/svg"><g><path d="m424.339 408.307h-336.677c-15.024 10.016-24.048 26.878-24.048 44.935v51.258h384.774v-51.259c-.001-18.056-9.025-34.918-24.049-44.934z" fill="#e5646e" data-original="#e5646e" style="" class=""/><path d="m424.339 408.307h-153.284l-13.599 8.016h-2.912l-13.599-8.016h-153.283c-7.347 4.898-13.23 11.448-17.354 18.959l8.423 3.369 152.88 61.152c7.79 3.117 15.997 4.697 24.39 4.697s16.6-1.581 24.392-4.698l152.878-61.151 8.423-3.369c-4.125-7.511-10.008-14.062-17.355-18.959z" fill="#db4655" data-original="#db4655" style="" class=""/><path d="m352.194 432.355h-192.387l32.064-96.193h128.258z" fill="#ffc269" data-original="#ffc269" style="" class=""/><path d="m181.231 368.082c21.064 15.162 46.834 24.192 74.77 24.192s53.706-9.03 74.77-24.192l-10.641-31.921h-128.259z" fill="#ffa95f" data-original="#ffa95f" style="" class=""/><path d="m368.228 70.978c-13.282 10.294-31.71 16.683-52.107 16.683-24.903 0-46.869-9.524-60.121-24.048-13.252 14.525-35.218 24.048-60.121 24.048-20.404 0-38.836-6.393-52.12-16.693l-8.001 16.696v32.062l8.016 8.016h224.452l8.016-8.016v-32.061z" fill="#fff0a0" data-original="#fff0a0" style="" class=""/><path d="m151.791 231.952v32.064c0 57.553 46.656 104.21 104.21 104.21s104.21-46.656 104.21-104.21v-32.064z" fill="#4d281b" data-original="#966a5b" style="" class=""/><path d="m183.855 264.017v-32.064h-32.065v32.064c0 57.553 46.656 104.21 104.21 104.21 5.467 0 10.793-.547 16.032-1.359-49.921-7.729-88.177-50.765-88.177-102.851z" fill="#2d160e" data-original="#785353" style="" class=""/><path d="m371.091 199.888h-10.881v-56.113h-208.419v56.113h-10.881c-10.483 0-20.035 7.542-21.079 17.973-1.201 11.996 8.186 22.108 19.937 22.108h8.457c2.864 0 5.471 1.555 6.906 4.034 4.148 7.162 11.835 11.999 20.71 11.999h56.115l24.044-8.018 24.046 8.016h56.116c8.875 0 16.562-4.837 20.71-11.999 1.436-2.479 4.042-4.034 6.906-4.034h8.457c11.75 0 21.138-10.112 19.936-22.108-1.045-10.429-10.597-17.972-21.08-17.971z" fill="#064137" data-original="#ffe09f" style="" class=""/><path d="m151.791 143.775v56.113h-10.881c-10.483 0-20.035 7.542-21.079 17.973-1.201 11.996 8.186 22.108 19.937 22.108h8.456c2.865 0 5.471 1.555 6.907 4.034 4.148 7.161 11.835 11.998 20.709 11.998h8.016v-64.129c0-8.854 7.178-16.032 16.032-16.032h144.29v-32.065z" fill="#05352d" data-original="#f6d190" style="" class=""/><path d="m256 7.5-24.048 40.081 24.048 40.081 24.049-40.081z" fill="#ffe07d" data-original="#ffe07d" style="" class=""/><path d="m256 247.984h-24.048c-13.282 0-24.048 10.767-24.048 24.048h24.048c13.281.001 24.048-10.766 24.048-24.048z" fill="#2d160e" data-original="#785353" style="" class=""/><path d="m256 247.984h24.048c13.282 0 24.048 10.767 24.048 24.048h-24.048c-13.281.001-24.048-10.766-24.048-24.048z" fill="#2d160e" data-original="#785353" style="" class=""/><path d="m247.984 440.371-53.491-86.923c-5.427-8.82-17.668-10.257-24.991-2.934l-33.744 33.744 96.194 56.113z" fill="#ffd064" data-original="#ffd064" style=""/><path d="m151.791 199.888h-16.032v-48.097l32.065-8.016v40.081c-.001 8.854-7.179 16.032-16.033 16.032z" fill="#2d160e" data-original="#785353" style="" class=""/><path d="m360.21 199.888h16.032v-48.097l-32.065-8.016v40.081c.001 8.854 7.179 16.032 16.033 16.032z" fill="#4d281b" data-original="#966a5b" style="" class=""/><path d="m264.016 440.371 53.491-86.923c5.427-8.82 17.668-10.257 24.991-2.934l33.744 33.744-96.194 56.113z" fill="#ffd064" data-original="#ffd064" style=""/><path d="m398.199 382.167c-8.106-8.106-20.807-9.364-30.344-3.005l-103.838 61.21h-16.032l-103.838-61.21c-9.538-6.358-22.238-5.101-30.344 3.005l-26.14 26.14 152.88 61.152c4.917 1.967 10.163 2.977 15.459 2.977 5.295 0 10.542-1.01 15.459-2.977l152.88-61.152z" fill="#ffe07d" data-original="#ffe07d" style="" class=""/><circle cx="256" cy="448.388" fill="#fff5d7" r="24.048" data-original="#fff5d7" style=""/><circle cx="256" cy="448.388" fill="#ffffff" r="8.016" data-original="#ffffff" style=""/><path d="m183.855 119.726v-32.887c-15.561-1.975-29.486-7.643-40.095-15.87l-8.001 16.696v64.126h240.484v-32.065z" fill="#ffe07d" data-original="#ffe07d" style="" class=""/><path d="m135.758 7.5v80.162l32.065-40.081z" fill="#ffd064" data-original="#ffd064" style=""/><path d="m376.242 87.662v-80.162l-32.064 40.081z" fill="#ffe07d" data-original="#ffe07d" style="" class=""/></g><g><path d="m207.904 200.404c-4.142 0-7.5 3.358-7.5 7.5v8.016c0 4.142 3.358 7.5 7.5 7.5s7.5-3.358 7.5-7.5v-8.016c0-4.142-3.358-7.5-7.5-7.5z" fill="#000000" data-original="#000000" style="" class=""/><path d="m304.097 200.404c-4.142 0-7.5 3.358-7.5 7.5v8.016c0 4.142 3.358 7.5 7.5 7.5s7.5-3.358 7.5-7.5v-8.016c0-4.142-3.358-7.5-7.5-7.5z" fill="#000000" data-original="#000000" style="" class=""/><path d="m199.887 191.355h16.032c4.142 0 7.5-3.357 7.5-7.5 0-4.142-3.358-7.5-7.5-7.5h-16.032c-4.142 0-7.5 3.358-7.5 7.5 0 4.143 3.358 7.5 7.5 7.5z" fill="#000000" data-original="#000000" style="" class=""/><path d="m296.081 191.355h16.032c4.142 0 7.5-3.357 7.5-7.5 0-4.142-3.358-7.5-7.5-7.5h-16.032c-4.142 0-7.5 3.358-7.5 7.5 0 4.143 3.358 7.5 7.5 7.5z" fill="#000000" data-original="#000000" style="" class=""/><path d="m239.968 303.581h32.064c4.142 0 7.5-3.358 7.5-7.5s-3.358-7.5-7.5-7.5h-32.064c-4.142 0-7.5 3.358-7.5 7.5s3.358 7.5 7.5 7.5z" fill="#000000" data-original="#000000" style="" class=""/><path d="m429.162 402.523-25.659-25.659c-8.455-8.455-20.822-11.212-31.81-7.761l-23.538-23.538c-2.843-2.843-6.275-4.854-9.992-5.946 18.333-19.909 29.548-46.468 29.548-75.602v-16.548h4.524c15.186 0 27.541-12.354 27.541-27.54 0-11.079-6.579-20.645-16.033-25.012v-187.417c0-3.185-2.012-6.023-5.018-7.077-3.005-1.055-6.349-.095-8.339 2.392l-32.064 40.081c-2.191 2.739-2.191 6.631 0 9.37l11.573 14.467c-5.602 7.065-19.288 13.428-37.781 13.428-17.004 0-29.7-5.424-35.983-11.472l10.35-17.25c1.425-2.375 1.425-5.343 0-7.718l-24.048-40.08c-1.357-2.258-3.799-3.641-6.433-3.641s-5.076 1.382-6.431 3.642l-24.048 40.08c-1.425 2.375-1.425 5.343 0 7.718l10.356 17.26c-7.107 6.878-21.139 11.462-35.989 11.462-14.092 0-31.031-4.675-37.801-13.404l11.593-14.492c2.191-2.739 2.191-6.631 0-9.37l-32.065-40.081c-1.989-2.486-5.332-3.446-8.339-2.392-3.006 1.054-5.018 3.892-5.018 7.077v187.416c-9.454 4.367-16.033 13.933-16.033 25.012 0 15.186 12.354 27.54 27.541 27.54h4.524v16.548c0 29.133 11.215 55.693 29.548 75.602-3.718 1.091-7.149 3.103-9.992 5.946l-23.538 23.538c-10.989-3.452-23.355-.695-31.81 7.761l-25.659 25.659c-16.748 11.481-26.726 30.376-26.726 50.719v51.259c0 4.142 3.358 7.5 7.5 7.5s7.5-3.358 7.5-7.5v-51.259c0-14.344 6.571-27.727 17.725-36.509l144.011 53.057c4.137 4.472 9.548 7.744 15.652 9.238v25.473c0 4.142 3.358 7.5 7.5 7.5s7.5-3.358 7.5-7.5v-25.473c6.104-1.494 11.515-4.767 15.652-9.238l144.011-53.057c11.154 8.782 17.725 22.165 17.725 36.509v51.259c0 4.142 3.358 7.5 7.5 7.5s7.5-3.358 7.5-7.5v-51.259c-.002-20.342-9.98-39.237-26.727-50.718zm-158.79 17.794c-4.313-2.217-9.197-3.478-14.372-3.478s-10.058 1.26-14.372 3.478l-31.858-54.614c14.095 6.434 29.751 10.023 46.23 10.023s32.134-3.589 46.23-10.023zm81.305-261.027h17.064v33.097h-8.532c-4.705 0-8.532-3.828-8.532-8.533zm17.065-130.409v37.399l-14.96-18.7zm-112.742-6.803 15.302 25.503-15.302 25.503-15.302-25.503zm-56.113 73.084c17.457 0 33.517-5.071 43.82-13.411l5.862 9.77c1.355 2.259 3.797 3.641 6.431 3.641s5.076-1.382 6.431-3.641l5.845-9.743c10.279 8.401 26.18 13.384 43.836 13.384 19.826 0 37.419-6.39 47.276-16.56l9.353 11.69v21.934h-24.566c-4.142 0-7.5 3.358-7.5 7.5 0 4.143 3.358 7.5 7.5 7.5h24.566v17.064h-225.482v-17.064h168.851c4.142 0 7.5-3.357 7.5-7.5 0-4.142-3.358-7.5-7.5-7.5h-168.851v-21.934l9.345-11.681c9.84 10.176 27.391 16.551 47.283 16.551zm-39.564 64.128v24.564c0 4.705-3.828 8.533-8.532 8.533h-8.532v-33.097zm-17.064-130.409 14.96 18.7-14.96 18.7zm16.032 229.922c4.814 2.978 10.483 4.697 16.548 4.697 4.142 0 7.5-3.358 7.5-7.5s-3.358-7.5-7.5-7.5c-9.125 0-16.548-7.424-16.548-16.548 0-4.142-3.358-7.5-7.5-7.5s-7.5 3.358-7.5 7.5v.516h-4.524c-6.915 0-12.541-5.625-12.541-12.54s5.625-12.541 12.541-12.541h12.024c12.976 0 23.532-10.557 23.532-23.533v-24.564h161.354v24.564c0 12.976 10.557 23.533 23.532 23.533h12.024c6.915 0 12.541 5.625 12.541 12.541 0 6.915-5.625 12.54-12.541 12.54h-4.524v-.516c0-4.142-3.358-7.5-7.5-7.5s-7.5 3.358-7.5 7.5c0 9.125-7.423 16.548-16.548 16.548h-35.13c-5.58-4.981-12.932-8.016-20.983-8.016h-48.097c-17.396 0-31.548 14.153-31.548 31.548 0 4.142 3.358 7.5 7.5 7.5h24.048c9.628 0 18.257-4.34 24.048-11.161 5.792 6.821 14.42 11.161 24.048 11.161h24.048c4.142 0 7.5-3.358 7.5-7.5 0-2.957-.418-5.816-1.182-8.532h25.747c6.065 0 11.734-1.72 16.548-4.697v5.213c0 53.326-43.384 96.709-96.71 96.709s-96.709-43.384-96.709-96.709v-5.213zm135.507 5.73h-14.749c-6.427 0-12.01-3.682-14.749-9.048h14.749c6.426-.001 12.009 3.681 14.749 9.048zm-48.097-9.049c-2.739 5.366-8.322 9.048-14.749 9.048h-14.749c2.739-5.366 8.322-9.048 14.749-9.048zm-145.448 149.838 17.852-17.852c5.559-5.559 14.339-6.428 20.881-2.067l55.741 37.161c3.447 2.297 8.103 1.367 10.4-2.081 2.298-3.446 1.367-8.103-2.08-10.4l-50.104-33.403 20.509-20.509c1.886-1.885 4.486-2.77 7.128-2.428 2.645.342 4.932 1.859 6.275 4.162l42.271 72.464c-3.571 5.113-5.674 11.323-5.674 18.019 0 .794.04 1.579.097 2.359zm154.747 59.614c-9.125 0-16.548-7.424-16.548-16.548 0-9.125 7.423-16.548 16.548-16.548s16.548 7.423 16.548 16.548c.001 9.124-7.423 16.548-16.548 16.548zm31.451-14.189c.058-.78.097-1.564.097-2.359 0-6.696-2.103-12.906-5.674-18.019l42.271-72.464c1.343-2.303 3.631-3.82 6.275-4.162s5.242.542 7.128 2.428l20.509 20.509-50.104 33.403c-3.447 2.298-4.378 6.954-2.08 10.4 2.298 3.447 6.955 4.378 10.4 2.081l55.741-37.161c6.541-4.36 15.323-3.49 20.881 2.067l17.852 17.852z" fill="#000000" data-original="#000000" style="" class=""/></g></g></g></svg>
