<svg id="Capa_1" enable-background="new 0 0 512.8 512.8" height="512" viewBox="0 0 512.8 512.8" width="512" xmlns="http://www.w3.org/2000/svg"><g><g><circle cx="256.409" cy="303.264" fill="#fe9738" r="202.036"/></g><g><path d="m458.449 303.267c0 111.58-90.46 202.03-202.04 202.03-21.42 0-42.06-3.33-61.43-9.51 13.56 2.87 27.62 4.38 42.03 4.38 111.58 0 202.04-90.46 202.04-202.04 0-90.16-59.07-166.53-140.61-192.52 91.41 19.34 160.01 100.49 160.01 197.66z" fill="#fe860a"/></g><g><path d="m256.409 512.8c-115.539 0-209.536-93.998-209.536-209.537 0-33.904 8.287-67.582 23.965-97.395 15.172-28.852 37.236-54.146 63.807-73.149 3.369-2.407 8.053-1.632 10.464 1.737 2.409 3.369 1.632 8.054-1.737 10.464-24.678 17.649-45.168 41.139-59.257 67.93-14.551 27.668-22.241 58.932-22.241 90.413 0 107.269 87.269 194.537 194.536 194.537 46.559 0 91.605-16.704 126.843-47.035 34.872-30.017 58.046-71.426 65.254-116.6.652-4.091 4.495-6.877 8.588-6.225 4.091.652 6.877 4.498 6.225 8.588-7.766 48.671-32.726 93.278-70.28 125.604-37.96 32.674-86.483 50.668-136.631 50.668z"/></g><g><path d="m329.227 111.319c8.149-4.337 15.505-10.276 21.712-17.068 9.697-10.61 16.178-23.817 17.746-38.115.174-1.582-.604-3.12-1.981-3.917-12.28-7.105-26.545-9.738-40.656-8.329-11.472 1.145-23.362 4.433-32.965 11.061-15.294 10.557-27.705 26.293-31.639 44.817-.374 1.764-.673 3.543-.896 5.332-.037.296-.144 1.586-.243 2.826-.126 1.573.686 3.074 2.071 3.829 3.533 1.924 7.248 3.511 11.08 4.739 17.964 5.76 39.043 3.727 55.771-5.175z" fill="#00c27a"/></g><g><path d="m368.689 56.137c-1.57 14.3-8.05 27.5-17.75 38.11-6.21 6.8-13.56 12.74-21.71 17.07-16.73 8.9-37.81 10.94-55.77 5.18-3.83-1.23-7.55-2.82-11.08-4.74-1.39-.76-2.2-2.26-2.07-3.83.1-1.24.2-2.53.24-2.83.02-.14.03-.27.06-.41 17.57 5.11 37.86 2.93 54.06-5.7 8.15-4.33 15.5-10.27 21.71-17.06 9.07-9.92 15.33-22.12 17.38-35.35 4.49 1.38 8.83 3.26 12.95 5.64 1.37.8 2.15 2.34 1.98 3.92z" fill="#08b865"/></g><g><path d="m238.472 121.92c-2.599-17.791-6.087-65.934-2.837-95.438 1.463-13.284 14.61-21.983 27.375-18.024.183.057.366.113.549.169 10.221 3.141 16.467 13.431 14.612 23.962-3.274 18.584-7.522 62.983-7.824 87.161-.11 8.797-7.221 15.892-16.019 15.892-7.962-.001-14.705-5.844-15.856-13.722z" fill="#d77f4a"/></g><g><path d="m278.169 32.587c-3.27 18.59-7.52 62.98-7.82 87.16-.11 8.8-7.22 15.89-16.02 15.89-3.7 0-7.15-1.26-9.88-3.41 3.7-2.9 6.09-7.41 6.15-12.48.3-24.18 4.55-68.57 7.82-87.16 1.66-9.39-3.13-18.59-11.43-22.69 4.73-2.48 10.41-3.18 16.02-1.44.18.06.37.11.55.17 10.22 3.14 16.47 13.43 14.61 23.96z" fill="#c86d36"/></g><g><path d="m403.682 154.212c-18.092-17.877-38.888-32.05-61.443-42.181 5.056-3.635 9.82-7.888 14.236-12.72 11.166-12.219 17.966-26.865 19.665-42.354.498-4.536-1.73-8.942-5.68-11.229-13.317-7.704-28.933-10.925-45.157-9.3-14.215 1.419-26.829 5.69-36.48 12.353-2.071 1.43-4.056 2.93-5.968 4.483.915-7.762 1.849-14.531 2.702-19.373 2.511-14.25-5.999-28.192-19.811-32.438l-.514-.158c-8.203-2.545-17.026-1.304-24.209 3.403-7.216 4.729-11.896 12.37-12.843 20.962-2.156 19.58-1.409 47.671.151 69.918-21.47 2.858-42.226 9.023-61.989 18.44l-1 .481c-3.731 1.797-5.301 6.279-3.504 10.012 1.798 3.732 6.284 5.3 10.011 3.504l.974-.469c18.09-8.622 37.098-14.296 56.76-16.991.481 4.877.983 9.124 1.469 12.448 1.676 11.479 11.683 20.137 23.276 20.137 10.952 0 20.247-7.644 22.812-17.891 5.761 1.331 11.708 2.007 17.686 2.007 10.443 0 20.957-2.01 30.647-5.93 25.048 9.497 48.066 24.187 67.667 43.555 36.615 36.182 57.139 84.433 57.79 135.864.052 4.11 3.399 7.405 7.497 7.405.032 0 .064 0 .097-.001 4.142-.052 7.457-3.452 7.404-7.594-.702-55.398-22.807-107.371-62.246-146.343zm-132.898-122.923c-3.311 18.798-7.624 63.267-7.937 88.368-.059 4.678-3.88 8.484-8.52 8.484-4.2 0-7.826-3.141-8.435-7.305-2.682-18.358-5.911-65.314-2.803-93.533.454-4.127 2.698-7.793 6.155-10.06 2.257-1.479 4.853-2.239 7.48-2.239 1.359 0 2.729.204 4.063.617l.567.175c6.577 2.022 10.63 8.681 9.43 15.493zm7.347 78.755c.422-9.895 1.252-21.536 2.272-32.95 4.61-5.96 10.321-11.399 16.941-15.969 7.568-5.225 17.752-8.604 29.449-9.771 12.251-1.223 24.004.934 34.138 6.246-1.743 11.471-7.082 22.35-15.528 31.592-5.848 6.398-12.659 11.761-19.699 15.507-14.21 7.561-32.202 9.535-47.573 5.345z"/><path d="m273.75 149.674c-10.416 9.38-28.233 9.63-38.907.549-3.154-2.686-7.889-2.302-10.572.852-2.685 3.155-2.303 7.889.852 10.572 8.014 6.819 18.409 10.211 28.809 10.211 10.849 0 21.701-3.691 29.858-11.037 3.077-2.772 3.325-7.515.554-10.593-2.775-3.078-7.517-3.325-10.594-.554z"/></g></g></svg>