<svg height="512pt" viewBox="0 -2 512 511" width="512pt" xmlns="http://www.w3.org/2000/svg"><path d="m408.960938 325.324219c52.765624 0 95.539062-42.773438 95.539062-95.539063 0-48.988281-36.871094-89.355468-84.371094-94.886718-11.714844-72.003907-74.179687-126.972657-149.492187-126.972657-59.503907 0-110.980469 34.3125-135.753907 84.226563-3.480468-.3125-7-.480469-10.558593-.480469-64.519531 0-116.824219 52.304687-116.824219 116.824219 0 64.523437 52.304688 116.828125 116.824219 116.828125zm0 0" fill="#c1c4c7"/><path d="m208.859375 21.070312c-32.144531 14.382813-58.367187 39.628907-73.976563 71.082032-3.480468-.308594-7-.476563-10.558593-.476563-64.519531-.003906-116.824219 52.300781-116.824219 116.820313 0 64.523437 52.304688 116.828125 116.824219 116.828125h57.238281c-139.828125-139.828125 25.992188-302.972657 27.296875-304.253907zm0 0" fill="#adb0b3"/><path d="m93.324219 408.082031c19.8125 11.789063 42.941406-12.035156 31.246093-52.503906-41.144531 9.019531-51.054687 40.714844-31.246093 52.503906zm0 0" fill="#bbe8ee"/><path d="m218.722656 408.082031c19.808594 11.789063 42.941406-12.035156 31.246094-52.503906-41.144531 9.019531-51.054688 40.714844-31.246094 52.503906zm0 0" fill="#8dcdd7"/><path d="m344.121094 408.082031c19.808594 11.789063 42.941406-12.035156 31.246094-52.503906-41.144532 9.019531-51.054688 40.714844-31.246094 52.503906zm0 0" fill="#bbe8ee"/><path d="m143.324219 497.605469c19.8125 11.789062 42.941406-12.035157 31.246093-52.503907-41.144531 9.023438-51.054687 40.714844-31.246093 52.503907zm0 0" fill="#8dcdd7"/><path d="m268.722656 497.605469c19.808594 11.789062 42.941406-12.035157 31.246094-52.503907-41.144531 9.023438-51.054688 40.714844-31.246094 52.503907zm0 0" fill="#bbe8ee"/><path d="m394.121094 497.605469c19.808594 11.789062 42.941406-12.035157 31.246094-52.503907-41.144532 9.023438-51.054688 40.714844-31.246094 52.503907zm0 0" fill="#8dcdd7"/><path d="m60.40625 119.875c18.695312-13.496094 40.796875-20.628906 63.917969-20.628906 5.539062 0 14.148437 2.609375 17.273437-3.6875 11.75-23.667969 29.78125-43.664063 52.148438-57.828125 22.972656-14.542969 49.5625-22.230469 76.886718-22.230469 34.382813 0 67.664063 12.3125 93.710938 34.675781 25.773438 22.125 42.957031 52.664063 48.378906 86 .539063 3.308594 3.207032 5.855469 6.535156 6.246094 44.320313 5.160156 77.742188 42.75 77.742188 87.433594 0 16.507812-4.601562 32.601562-13.300781 46.542969-2.191407 3.511718-1.121094 8.136718 2.390625 10.332031 3.472656 2.164062 8.171875 1.074219 10.335937-2.390625 10.1875-16.328125 15.574219-35.167969 15.574219-54.484375 0-50.417969-36.359375-93.117188-85.453125-101.535157-6.910156-34.691406-25.386719-66.3125-52.429687-89.527343-28.769532-24.695313-65.519532-38.292969-103.480469-38.292969-30.171875 0-59.535157 8.492188-84.914063 24.558594-23.257812 14.726562-42.273437 35.171875-55.242187 59.34375-2.070313-.105469-4.128907-.15625-6.15625-.15625-26.296875 0-51.433594 8.113281-72.699219 23.46875-3.355469 2.421875-4.113281 7.109375-1.691406 10.46875 2.425781 3.359375 7.117187 4.117187 10.472656 1.691406zm0 0"/><path d="m124.324219 332.894531h284.636719c24.183593 0 47.691406-8.550781 66.199218-24.082031 3.171875-2.664062 3.585938-7.394531.925782-10.566406-2.664063-3.171875-7.394532-3.585938-10.566407-.925782-15.808593 13.269532-35.894531 20.574219-56.554687 20.574219h-284.640625c-60.28125 0-109.324219-49.042969-109.324219-109.324219 0-25.304687 8.847656-49.976562 24.910156-69.472656 2.632813-3.195312 2.175782-7.921875-1.019531-10.558594-3.195313-2.632812-7.921875-2.175781-10.558594 1.019532-18.269531 22.175781-28.332031 50.234375-28.332031 79.011718 0 68.550782 55.773438 124.324219 124.324219 124.324219zm0 0"/><path d="m174.0625 172.367188v13.472656c0 4.140625 3.359375 7.5 7.5 7.5s7.5-3.359375 7.5-7.5v-13.472656c0-4.144532-3.359375-7.5-7.5-7.5s-7.5 3.355468-7.5 7.5zm0 0"/><path d="m322.9375 172.367188v13.472656c0 4.140625 3.359375 7.5 7.5 7.5s7.5-3.359375 7.5-7.5v-13.472656c0-4.144532-3.359375-7.5-7.5-7.5s-7.5 3.355468-7.5 7.5zm0 0"/><path d="m268.726562 179.964844c-3.089843 3.535156-7.730468 5.5625-12.726562 5.5625s-9.632812-2.027344-12.726562-5.5625c-2.722657-3.121094-7.460938-3.4375-10.582032-.710938-3.121094 2.726563-3.4375 7.464844-.710937 10.582032 5.941406 6.796874 14.695312 10.695312 24.019531 10.695312s18.078125-3.898438 24.019531-10.691406c2.726563-3.121094 2.40625-7.859375-.710937-10.585938-3.117188-2.726562-7.855469-2.410156-10.582032.710938zm0 0"/><path d="m122.964844 348.324219c-25.429688 5.574219-43.726563 20.695312-46.609375 38.519531-1.84375 11.386719 3.066406 21.761719 13.132812 27.753906 12.828125 7.632813 28.039063 3.699219 36.828125-7.988281 9.542969-12.691406 11.535156-32.023437 5.460938-53.042969-1.097656-3.796875-4.949219-6.089844-8.8125-5.242187zm-8.640625 49.269531c-4.070313 5.417969-10.839844 7.878906-17.164063 4.113281-4.78125-2.847656-6.855468-7.15625-6-12.464843 1.378906-8.503907 10.511719-18.773438 27.914063-24.359376 2.511719 13.363282.855469 25.257813-4.75 32.710938zm0 0"/><path d="m248.363281 348.324219c-25.429687 5.574219-43.726562 20.695312-46.609375 38.519531-1.84375 11.386719 3.066406 21.761719 13.132813 27.753906 12.828125 7.632813 28.042969 3.691406 36.828125-7.988281 9.542968-12.691406 11.53125-32.023437 5.460937-53.042969-1.097656-3.796875-4.949219-6.089844-8.8125-5.242187zm-8.640625 49.269531c-4.097656 5.453125-10.808594 7.894531-17.164062 4.113281-4.785156-2.847656-6.859375-7.15625-6-12.464843 1.378906-8.503907 10.511718-18.773438 27.914062-24.359376 2.511719 13.363282.855469 25.261719-4.75 32.710938zm0 0"/><path d="m373.761719 348.324219c-25.429688 5.574219-43.726563 20.695312-46.609375 38.519531-1.84375 11.386719 3.066406 21.761719 13.132812 27.753906 12.644532 7.523438 27.976563 3.78125 36.824219-7.988281 9.546875-12.695313 11.535156-32.027344 5.460937-53.042969-1.097656-3.796875-4.949218-6.089844-8.808593-5.242187zm-8.640625 49.269531c-4.101563 5.453125-10.828125 7.886719-17.164063 4.113281-4.785156-2.847656-6.859375-7.15625-6-12.464843 1.375-8.503907 10.511719-18.773438 27.910157-24.359376 2.515624 13.363282.859374 25.261719-4.746094 32.710938zm0 0"/><path d="m139.488281 504.121094c12.835938 7.640625 28.039063 3.695312 36.828125-7.988282 9.542969-12.691406 11.535156-32.023437 5.460938-53.039062-1.097656-3.796875-4.949219-6.089844-8.8125-5.246094-25.429688 5.578125-43.726563 20.695313-46.609375 38.519532-1.84375 11.390624 3.066406 21.765624 13.132812 27.753906zm1.671875-25.355469c1.378906-8.5 10.511719-18.769531 27.914063-24.359375 2.515625 13.363281.855469 25.261719-4.75 32.710938-4.070313 5.417968-10.839844 7.878906-17.164063 4.117187-4.78125-2.847656-6.855468-7.160156-6-12.46875zm0 0"/><path d="m298.363281 437.847656c-25.429687 5.578125-43.726562 20.699219-46.609375 38.523438-1.84375 11.386718 3.066406 21.761718 13.132813 27.75 12.832031 7.636718 28.039062 3.699218 36.828125-7.988282 9.542968-12.691406 11.53125-32.023437 5.460937-53.039062-1.097656-3.796875-4.949219-6.089844-8.8125-5.246094zm-8.640625 49.273438c-4.21875 5.613281-10.910156 7.835937-17.164062 4.113281-4.785156-2.847656-6.859375-7.160156-6-12.464844 1.378906-8.503906 10.511718-18.773437 27.914062-24.363281 2.511719 13.363281.855469 25.261719-4.75 32.714844zm0 0"/><path d="m390.285156 504.121094c12.839844 7.640625 28.039063 3.695312 36.824219-7.988282 9.546875-12.691406 11.535156-32.023437 5.460937-53.039062-1.097656-3.796875-4.949218-6.089844-8.8125-5.246094-25.425781 5.578125-43.722656 20.695313-46.609374 38.519532-1.839844 11.390624 3.070312 21.765624 13.136718 27.753906zm1.671875-25.355469c1.378907-8.5 10.511719-18.769531 27.914063-24.359375 2.511718 13.363281.855468 25.261719-4.75 32.714844-4.242188 5.640625-10.871094 7.855468-17.164063 4.113281-4.785156-2.847656-6.859375-7.160156-6-12.46875zm0 0"/></svg>