<?xml version="1.0"?>
<svg xmlns="http://www.w3.org/2000/svg" xmlns:xlink="http://www.w3.org/1999/xlink" xmlns:svgjs="http://svgjs.com/svgjs" version="1.1" width="512" height="512" x="0" y="0" viewBox="0 0 55 60" style="enable-background:new 0 0 512 512" xml:space="preserve" class=""><g><g xmlns="http://www.w3.org/2000/svg" id="Page-1" fill="none" fill-rule="evenodd"><g id="042---Shouting-Girl" fill-rule="nonzero" transform="translate(-1 -1)"><path id="Shape" d="m46 29.73v3.27c.0060341 2.541346-.5327346 5.0544631-1.58 7.37-3.2459938 7.2229838-10.8312442 11.4761782-18.6869332 10.4781193-7.8556889-.9980588-14.1363925-7.0129113-15.4730668-14.8181193.4037355-.190963.7945674-.4080918 1.17-.65 2.7038538-1.735552 4.8143365-4.2541776 6.05-7.22.8221574-1.9852078 1.2794793-4.1024386 1.35-6.25 2.25 2.79 5.43 5.1 9.03 5.46 3.41.35 7.15-1.41 8.4-4.59 1.6355824 1.9565979 3.5102274 3.7002194 5.58 5.19 1.2610166.8479259 2.6733277 1.4454421 4.16 1.76z" fill="#5f4c2e" data-original="#ffe0b2" style="" class=""/><path id="Shape" d="m36.26 22.78c-.2829412.7073181-.6892499 1.3587665-1.2 1.924 2.271 2.353 4.732 4.396 7.94 5.026 0 3.845.217 6.675-1.58 10.64-2.6745661 5.9819899-8.3969021 10.0307113-14.928 10.562 5.0181702.4246443 9.9845952-1.2734527 13.6922754-4.6815991 3.7076802-3.4081465 5.817144-8.214296 5.8157246-13.2504009v-3.27c-4.09-.807-6.986-3.922-9.74-6.95z" fill="#3c290e" data-original="#dfc49c" style="" class=""/><path id="Shape" d="m33 50.29v2.71c0 1.6568542-1.3431458 3-3 3h-4c-1.6548028-.0049422-2.9950578-1.3451972-3-3v-2.7c3.2680033.9367332 6.7338767.9332674 10-.01z" fill="#5f4c2e" data-original="#ffe0b2" style="" class=""/><path id="Shape" d="m44 60h-32c0-3.8659932 3.1340068-7 7-7h4c.0049422 1.6548028 1.3451972 2.9950578 3 3h4c1.6568542 0 3-1.3431458 3-3h4c3.8659932 0 7 3.1340068 7 7z" fill="#02a9f4" data-original="#02a9f4" style="" class=""/><path id="Shape" d="m54.32 24.94c-.4419901 2.167175-2.0283239 3.9221046-4.14 4.58-.3569282.1304163-.7251673.2274975-1.1.29-1.0228181.1634575-2.0670467.1363347-3.08-.08-1.4866723-.3145579-2.8989834-.9120741-4.16-1.76-2.0697726-1.4897806-3.9444176-3.2334021-5.58-5.19-1.25 3.18-4.99 4.94-8.4 4.59-3.6-.36-6.78-2.67-9.03-5.46-.0705207 2.1475614-.5278426 4.2647922-1.35 6.25-1.2356635 2.9658224-3.3461462 5.484448-6.05 7.22-.3754326.2419082-.7662645.459037-1.17.65-1.18328646.6180499-2.52190558.8753429-3.85.74-.15522112-.0193825-.30891959-.0494539-.46-.09-1.27631696-.2982199-2.39160256-1.0703407-3.12-2.16-.8038249-1.2330016-1.03706238-2.7526896-.64-4.17.53279753-1.3232409 1.20314362-2.5868433 2-3.77.67-1.26 1.05-2.87.28-4.08-1.14-1.8-.6-4.35-.49-6.48.04111005-2.1507551.70072726-4.2441718 1.9-6.03 2.10598545-2.81056438 5.6967006-4.07717927 9.1-3.21 2.0903967-2.91039983 5.419403-4.67835447 9.0012713-4.7803573 3.5818684-.10200282 7.006092 1.4736364 9.2587287 4.2603573 3.0626483-.72182662 6.2396118-.8170675 9.34-.28 3.1205788.56531299 5.881786 2.3640629 7.66 4.99 1.7298871 2.6973078 1.6627717 6.1715163-.17 8.8 2.56-.09 4.63 2.66 4.25 5.17z" fill="#000000" data-original="#a0522d" style="" class=""/><path id="Shape" d="m50.07 19.77c1.8327717-2.6284837 1.8998871-6.1026922.17-8.8-1.778214-2.6259371-4.5394212-4.42468701-7.66-4.99-1.6999693-.33476002-3.4377052-.43569337-5.165-.3.7273937.05308758 1.4505783.15329792 2.165.3 3.1205788.56531299 5.881786 2.3640629 7.66 4.99 1.7298871 2.6973078 1.6627717 6.1715163-.17 8.8 2.56-.09 4.63 2.66 4.25 5.17-.4419901 2.167175-2.0283239 3.9221046-4.14 4.58-.3005086.1072263-.6087288.1914687-.922.252.9316153.1735171 1.8860503.1863691 2.822.038.3748327-.0625025.7430718-.1595837 1.1-.29 2.1116761-.6578954 3.6980099-2.412825 4.14-4.58.38-2.51-1.69-5.26-4.25-5.17z" fill="#3c290e" data-original="#783e22" style="" class=""/><path id="Shape" d="m15.89 46.31c-2.0302434 1.3602326-4.4885151 1.9294417-6.91 1.6-.95513114-.1189118-1.87667103-.4283587-2.71-.91-.82557917-.4912989-1.47614871-1.2293106-1.86-2.11-.44406174-1.4503562-.35178075-3.0120345.26-4.4.52787903-1.2337222.95591908-2.5078102 1.28-3.81.15108041.0405461.30477888.0706175.46.09 1.32809442.1353429 2.66671354-.1219501 3.85-.74.668483 3.9618522 2.6517346 7.5831356 5.63 10.28z" fill="#040201" data-original="#825a2c" style="" class=""/><path id="Shape" d="m51.7 44.89c-.3838513.8806894-1.0344208 1.6187011-1.86 2.11-.833329.4816413-1.7548689.7910882-2.71.91-2.4431505.3364073-4.9240758-.2481785-6.96-1.64 1.8019793-1.6582244 3.2479421-3.665561 4.25-5.9 1.0472654-2.3155369 1.5860341-4.828654 1.58-7.37v-3.27c1.0129533.2163347 2.0571819.2434575 3.08.08.3748327-.0625025.7430718-.1595837 1.1-.29-.7009245 2.3342183-.7078733 4.8219024-.02 7.16.3240809 1.3021898.752121 2.5762778 1.28 3.81.6117808 1.3879655.7040617 2.9496438.26 4.4z" fill="#040201" data-original="#825a2c" style="" class=""/><path id="Shape" d="m50.18 29.52c-.9926094.3432394-2.0481603.4657556-3.093.359-.6014795 2.2302481-.5762201 4.5831785.073 6.8.3240809 1.3021898.752121 2.5762778 1.28 3.81.955 2.694.814 5.02-1.6 6.51-.7917504.4581977-1.6648865.7584126-2.571.884 2.854.444 6.346-.343 7.431-2.994 1.606-4.014-3.695-7.869-1.52-15.369z" fill="#3c290e" data-original="#624421" style="" class=""/><path id="Shape" d="m31.85 46.95c-2.3757381 1.4000714-5.3242619 1.4000714-7.7 0 .468554-1.7409455 2.047104-2.95082 3.85-2.95082s3.381446 1.2098745 3.85 2.95082z" fill="#e91e63" data-original="#e91e63" style="" class=""/><path id="Shape" d="m34 43.5c-.0673509 1.4458218-.8817125 2.752588-2.15 3.45-.468554-1.7409455-2.047104-2.95082-3.85-2.95082s-3.381446 1.2098745-3.85 2.95082c-1.2682875-.697412-2.0826491-2.0041782-2.15-3.45 0-2.49 2.69-4.5 6-4.5s6 2.01 6 4.5z" fill="#ad1457" data-original="#ad1457" style="" class=""/><path id="Shape" d="m41.95 55.05c-1.3102237-1.3166613-3.0925123-2.0547808-4.95-2.05l-3-.0000231c3.8659932.0000231 7 3.1340299 7 7.0000231h3.0000231c.0047577-1.8574877-.7333618-3.6397763-2.0500231-4.95z" fill="#0377bc" data-original="#0377bc" style="" class=""/><g fill="#000"><path id="Shape" d="m55.307 25.087c.2166334-1.664382-.3091951-3.339866-1.438-4.582-.5869502-.6682145-1.3329591-1.1775917-2.169-1.481 1.2440016-2.7832393 1.0147212-6.0040483-.611-8.583-1.9173745-2.86386414-4.9146312-4.82727296-8.306-5.441-3.0346027-.55870037-6.1504794-.50259215-9.163.165-2.4454096-2.73644273-5.970696-4.25871562-9.6393295-4.16241085-3.6686336.09630476-7.1091978 1.80143717-9.4076705 4.66241085-3.6246425-.66884118-7.31387836.78411797-9.509 3.745-1.30878811 1.941546-2.03247083 4.2181096-2.085 6.559-.021.408-.058.832-.1 1.262-.166 1.91-.354 4.074.746 5.808.662 1.044-.078 2.613-.321 3.07-.213.4-.455.787-.7 1.174-.59380927.8622291-1.06089715 1.8051606-1.387 2.8-.84360716 2.9653384.67832945 6.0906286 3.533 7.255-.169.567-.387 1.138-.618 1.73-.141.363-.282.724-.412 1.089-.71075413 1.6155329-.79768329 3.4371263-.244 5.113.46792311 1.0787075 1.26351812 1.982761 2.274 2.584.94796.5547975 1.99898997.9106982 3.089 1.046.49068355.0682865.98559058.1017036 1.481.1 1.9250392-.0032652 3.8159401-.5085624 5.486-1.466 1.8277715 1.5370562 3.9292156 2.7153442 6.194 3.473v.993h-3c-4.4162219.0049599-7.9950401 3.5837781-8 8 0 .5522847.4477153 1 1 1h32c.5522847 0 1-.4477153 1-1 0-4.418278-3.581722-8-8-8h-3v-.987c2.2874536-.7628302 4.4093364-1.9528898 6.253-3.507 1.6826218.9760463 3.5927814 1.4913548 5.538 1.494.4967549.0022369.9930299-.0311823 1.485-.1 1.0902062-.1356985 2.141288-.4922973 3.089-1.048 1.0073607-.6048377 1.7992975-1.5108078 2.264-2.59.551005-1.6744452.4630243-3.4935444-.247-5.107-.13-.364-.272-.726-.413-1.09-.354973-.8268381-.6311954-1.6853038-.825-2.564-.0098738-.053024-.0239174-.105186-.042-.156-.5651663-1.9906714-.5917379-4.095697-.077-6.1 2.2084327-.8836479 3.8198116-2.8246782 4.282-5.158zm-51.641 8.885c-.64386774-.9893148-.83247902-2.2072776-.518-3.345.28009776-.8117373.67077626-1.5809802 1.161-2.286.266-.426.531-.853.765-1.293 1-1.89 1.093-3.74.244-5.08-.738-1.163-.588-2.892-.443-4.563.041-.456.079-.9.1-1.337.03452309-1.9558175.62824745-3.8608711 1.711-5.49 1.46118932-1.93750776 3.7482739-3.07530919 6.175-3.072.6251226-.00161053 1.2476488.08045128 1.851.244.4040865.11077968.8343892-.04210151 1.078-.383 1.9087948-2.65577716 4.9472489-4.26907644 8.216484-4.36262885 3.269235-.09355241 6.3949737 1.34335236 8.452516 3.88562885.2348554.29048032.6120302.42584673.978.351 2.9271637-.70826209 5.9691162-.80392954 8.935-.281 2.8548268.5015957 5.3851973 2.13704826 7.015 4.534 1.5064776 2.3414346 1.4671036 5.3567009-.1 7.658-.2380171.3067111-.2770025.7234658-.1 1.069.1726378.3492198.5358949.5628543.925.544.8782215-.0043817 1.7111188.3894519 2.265 1.071.7297917.7998609 1.0780133 1.8762486.955 2.952-.4858896 2.1325906-2.2443859 3.7396298-4.412 4.032-2.3115856.2755628-4.642317-.3276434-6.53-1.69-1.9979527-1.4444111-3.8085142-3.1316932-5.39-5.023-.2326641-.2558901-.5810336-.3733941-.9211544-.3107028-.3401207.0626913-.6237033.2966773-.7498456.6187028-1.016 2.585-4.179 4.285-7.367 3.961-3.1714572-.4843853-6.0387006-2.1603118-8.017-4.686-.0336045-.0396061-.0703939-.0763955-.11-.11.0142431-.969427-.0415689-1.9386163-.167-2.9-.0405409-.3590204-.271591-.6682534-.6043913-.8089059-.3328003-.1406526-.7155911-.0908492-1.0013217.1302778-.2857307.2211271-.429962.5791865-.377287.9366281.4106495 2.9948385.0204066 6.0450128-1.131 8.84-1.1555309 2.7745625-3.1274149 5.1321741-5.654 6.76-1.25823495.9131822-2.79823129 1.3533329-4.349 1.243-1.17518624-.165229-2.22439224-.8231193-2.885-1.809zm24.334 16.028c-8.0175365-.0004915-14.9423194-5.6086109-16.609-13.451.192-.107.381-.2.574-.32 1.9370795-1.2395837 3.5932558-2.8708934 4.862-4.789l3.195 1.371-4.3 1.227c-.480989.1364979-.7872478.6072659-.7171048 1.1023033.0701429.4950375.4951289.8621939.9951048.8596967.092942-.0004747.1854121-.0132524.275-.038l7-2c.4070661-.1161467.6969015-.4760172.7236286-.8984844.026727-.4224672-.2154453-.8159948-.6046286-.9825156l-5.536-2.374c.194-.378.3736667-.7633333.539-1.156.5783463-1.3783688.9853873-2.8224914 1.212-4.3 2.1763699 2.250583 5.0487875 3.7005337 8.152 4.115 3.3922599.3965134 6.73187-1.0825225 8.718-3.861 1.4234941 1.6229922 3.0390109 3.066917 4.811 4.3 1.1412397.7561986 2.39275 1.3310163 3.71 1.704v2.491c.0078267 2.4006083-.5013816 4.7747534-1.493 6.961-2.7437468 6.1057594-8.8130902 10.0349616-15.507 10.039zm-18.874-3.079c-.8192383-.0988385-1.6102442-.3613736-2.326-.772-.64319237-.3787964-1.15244069-.9485114-1.457-1.63-.35543214-1.223593-.25816019-2.5342793.274-3.692.123-.346.257-.688.391-1.032.253-.647.507-1.312.705-2 .145.01.287.029.433.029.8136948-.0072938 1.62082787-.1464314 2.39-.412.7779832 3.2603849 2.4054794 6.2566063 4.717 8.684-1.5897271.7762267-3.3740159 1.0633417-5.127.825zm32.117 8.836c.8841017.8788334 1.4696844 2.0132687 1.674 3.243h-29.834c.4918328-2.8850396 2.9903399-4.996335 5.917-5h3.142c.4545933 1.7606851 2.0395884 2.9931852 3.858 3h4c1.8184116-.0068148 3.4034067-1.2393149 3.858-3h3.142c1.5922272-.0045083 3.1200824.6281671 4.243 1.757zm-9.243-2.757c0 1.1045695-.8954305 2-2 2h-4c-1.1045695 0-2-.8954305-2-2v-1.442c2.6341133.5852744 5.3641428.5893695 8 .012zm18.775-8.489c-.3030897.683414-.812141 1.2550478-1.456 1.635-.7165916.4123357-1.5091208.675605-2.33.774-1.7807452.2392355-3.5922998-.0617612-5.2-.864 3.3493004-3.521251 5.2152248-8.1962671 5.211-13.056v-2.129c.6189272.0510739 1.2414354.0393474 1.858-.035-.3592236 2.03185-.2456203 4.1191389.332 6.1.2175882.9785936.5241979 1.9352426.916 2.858.134.345.269.688.392 1.032.5305592 1.1555493.6288488 2.4631205.277 3.685z" fill="#000000" data-original="#000000" style="" class=""/><path id="Shape" d="m40.919 29.606c-.2176426-.5075063-.8054496-.7425395-1.313-.525l-7 3c-.3891833.1665208-.6313556.5600484-.6046286.9825156.0267271.4224672.3165625.7823377.7236286.8984844l7 2c.0895879.0247476.182058.0375253.275.038.4993965.0009775.9229574-.3666287.9922769-.8611918s-.2368556-.9644514-.7172769-1.1008082l-4.3-1.226 4.415-1.893c.2444347-.1037625.4375618-.3004857.5367976-.5467929.0992357-.2463072.0964303-.5219705-.0077976-.7662071z" fill="#000000" data-original="#000000" style="" class=""/><path id="Shape" d="m27 36h2c.5522847 0 1-.4477153 1-1s-.4477153-1-1-1h-2c-.5522847 0-1 .4477153-1 1s.4477153 1 1 1z" fill="#000000" data-original="#000000" style="" class=""/><path id="Shape" d="m28 38c-3.86 0-7 2.468-7 5.5.067254 1.7440745 1.0166427 3.3343006 2.52 4.221.0263475.0188411.0537232.0362013.082.052 2.705056 1.6365985 6.094944 1.6365985 8.8 0 .0282768-.0157987.0556525-.0331589.082-.052 1.5018216-.8876701 2.4495997-2.4777222 2.516-4.221 0-3.032-3.14-5.5-7-5.5zm-2.567 8.472c.5334438-.9118497 1.5105757-1.472272 2.567-1.472272s2.0335562.5604223 2.567 1.472272c-1.6388332.704477-3.4951668.704477-5.134 0zm6.782-1.136c-.9084706-1.4530627-2.5013168-2.3357361-4.215-2.3357361s-3.3065294.8826734-4.215 2.3357361c-.4825417-.4919752-.7627071-1.1472409-.785-1.836 0-1.9 2.29-3.5 5-3.5s5 1.6 5 3.5c-.0222929.6887591-.3024583 1.3440248-.785 1.836z" fill="#000000" data-original="#000000" style="" class=""/></g></g></g></g></svg>
