<?xml version="1.0"?>
<svg xmlns="http://www.w3.org/2000/svg" xmlns:xlink="http://www.w3.org/1999/xlink" xmlns:svgjs="http://svgjs.com/svgjs" version="1.1" width="512" height="512" x="0" y="0" viewBox="0 0 512 512" style="enable-background:new 0 0 512 512" xml:space="preserve" class=""><g transform="matrix(1.0799999999999998,0,0,1.0799999999999998,-4.389103240966762,-20.47999999999996)"><path xmlns="http://www.w3.org/2000/svg" d="m447.203125 145.113281c-16.871094-38.042969-25.828125-78.785156-25.828125-120.019531v-1.546875c0-8.890625-7.648438-16.097656-17.082031-16.097656h-323.351563c-9.433594 0-17.082031 7.207031-17.082031 16.097656v1.546875c0 41.230469-8.960937 81.976562-25.828125 120.019531-24.792969 55.914063-51.917969 167.492188-3.234375 347.175781 1.9375 7.144532 8.742187 12.160157 16.566406 12.160157h167.285157c6.089843 0 11.027343-4.9375 11.027343-11.03125v-131.800781c0-7.28125 5.90625-13.1875 13.1875-13.1875s13.183594 5.902343 13.183594 13.1875v131.800781c0 6.09375 4.9375 11.03125 11.027344 11.03125h166.796875c7.824218 0 14.628906-5.015625 16.566406-12.160157 48.683594-179.683593 21.558594-291.261718-3.234375-347.175781zm0 0" fill="#5f4c2e" data-original="#ffcdbe" style="" class=""/><path xmlns="http://www.w3.org/2000/svg" d="m70.457031 492.289062c-48.6875-179.683593-21.5625-291.257812 3.234375-347.175781 16.867188-38.042969 25.824219-78.785156 25.824219-120.019531v-1.546875c0-8.890625 7.648437-16.097656 17.082031-16.097656h-35.65625c-9.433594 0-17.082031 7.207031-17.082031 16.097656v1.546875c0 41.230469-8.960937 81.976562-25.828125 120.019531-24.792969 55.914063-51.917969 167.492188-3.234375 347.175781 1.9375 7.144532 8.742187 12.160157 16.566406 12.160157h35.65625c-7.824219 0-14.625-5.015625-16.5625-12.160157zm0 0" fill="#3c290e" data-original="#f7c1b3" style="" class=""/><path xmlns="http://www.w3.org/2000/svg" d="m443.222656 135.671875-103.183594-4.859375c-64.910156-3.058594-129.933593-3.058594-194.847656 0l-103.179687 4.859375c-1.28125 3.160156-2.59375 6.3125-3.980469 9.441406-4.460938 10.0625-9 21.9375-13.15625 35.679688 100.28125 29.394531 186.351562 101.101562 210.800781 122.792969 3.960938 3.515624 9.917969 3.515624 13.882813 0 24.449218-21.691407 110.519531-93.398438 210.796875-122.792969-4.15625-13.742188-8.691407-25.617188-13.152344-35.679688-1.390625-3.128906-2.703125-6.28125-3.980469-9.441406zm0 0" fill="#63a1fc" data-original="#63a1fc" style="" class=""/><path xmlns="http://www.w3.org/2000/svg" d="m78.351562 133.960938-36.339843 1.710937c-2.511719 6.746094-9.613281 20.261719-17.136719 45.121094 11.027344 3.234375 21.878906 6.976562 32.5 11.109375 4.949219-18.554688 10.691406-34.109375 16.316406-46.789063 1.632813-3.691406 3.171875-7.414062 4.660156-11.152343zm0 0" fill="#4188ff" data-original="#4188ff" style="" class=""/><path xmlns="http://www.w3.org/2000/svg" d="m438.066406 326.242188c.59375.144531 1.183594.210937 1.769532.210937 3.382812 0 6.453124-2.304687 7.285156-5.738281.421875-1.753906.800781-3.550782 1.117187-5.339844.726563-4.078125-1.992187-7.972656-6.074219-8.699219-4.082031-.71875-7.972656 1.996094-8.695312 6.074219-.265625 1.488281-.578125 2.980469-.929688 4.4375-.976562 4.027344 1.5 8.082031 5.527344 9.054688zm0 0" fill="#000000" data-original="#000000" style="" class=""/><path xmlns="http://www.w3.org/2000/svg" d="m390.308594 367.550781c-1.375.601563-2.789063 1.171875-4.203125 1.695313-3.886719 1.429687-5.878907 5.738281-4.445313 9.628906 1.113282 3.03125 3.984375 4.910156 7.039063 4.910156.859375 0 1.734375-.148437 2.589843-.464844 1.699219-.625 3.398438-1.308593 5.050782-2.035156 3.792968-1.667968 5.519531-6.089844 3.851562-9.882812-1.667968-3.792969-6.089844-5.515625-9.882812-3.851563zm0 0" fill="#000000" data-original="#000000" style="" class=""/><path xmlns="http://www.w3.org/2000/svg" d="m425.730469 250.089844c3.050781-2.800782 3.257812-7.542969.460937-10.597656-1.21875-1.328126-2.5-2.644532-3.8125-3.90625-2.980468-2.878907-7.726562-2.796876-10.605468.1875-2.875 2.980468-2.789063 7.726562.191406 10.601562 1.089844 1.054688 2.152344 2.148438 3.167968 3.253906 1.476563 1.613282 3.5 2.429688 5.53125 2.429688 1.8125.003906 3.625-.648438 5.066407-1.96875zm0 0" fill="#000000" data-original="#000000" style="" class=""/><path xmlns="http://www.w3.org/2000/svg" d="m416.414062 359.597656c1.429688 1.277344 3.214844 1.90625 4.992188 1.90625 2.0625 0 4.117188-.847656 5.597656-2.503906 1.203125-1.347656 2.386719-2.753906 3.507813-4.179688 2.566406-3.253906 2.011719-7.96875-1.242188-10.535156-3.25-2.566406-7.964843-2.011718-10.53125 1.242188-.9375 1.1875-1.917969 2.355468-2.921875 3.480468-2.761718 3.089844-2.492187 7.832032.597656 10.589844zm0 0" fill="#000000" data-original="#000000" style="" class=""/><path xmlns="http://www.w3.org/2000/svg" d="m350.347656 373.082031c-4.101562-.566406-7.886718 2.304688-8.449218 6.40625-.566407 4.105469 2.304687 7.890625 6.40625 8.453125 1.796874.246094 3.621093.441406 5.429687.578125.191406.015625.382813.019531.570313.019531 3.886718 0 7.175781-2.996093 7.472656-6.9375.3125-4.128906-2.785156-7.730468-6.914063-8.042968-1.503906-.109375-3.019531-.273438-4.515625-.476563zm0 0" fill="#000000" data-original="#000000" style="" class=""/><path xmlns="http://www.w3.org/2000/svg" d="m317.011719 359.648438c-3.347657-2.4375-8.039063-1.699219-10.476563 1.652343-2.4375 3.351563-1.695312 8.042969 1.652344 10.480469 1.46875 1.0625 2.984375 2.097656 4.511719 3.074219 1.25.796875 2.644531 1.175781 4.027343 1.175781 2.476563 0 4.898438-1.226562 6.328126-3.46875 2.230468-3.492188 1.203124-8.128906-2.289063-10.355469-1.269531-.8125-2.53125-1.671875-3.753906-2.558593zm0 0" fill="#000000" data-original="#000000" style="" class=""/><path xmlns="http://www.w3.org/2000/svg" d="m439.554688 286.859375c.613281 0 1.242187-.078125 1.871093-.238281 4.011719-1.03125 6.425781-5.117188 5.394531-9.132813-.449218-1.757812-.960937-3.519531-1.519531-5.238281-1.273437-3.941406-5.503906-6.101562-9.441406-4.828125-3.941406 1.273437-6.105469 5.503906-4.828125 9.441406.460938 1.429688.886719 2.894531 1.261719 4.359375.871093 3.386719 3.917969 5.636719 7.261719 5.636719zm0 0" fill="#000000" data-original="#000000" style="" class=""/><path xmlns="http://www.w3.org/2000/svg" d="m283.871094 328.636719c-3.726563 1.8125-5.273438 6.304687-3.457032 10.027343.792969 1.628907 1.644532 3.253907 2.535157 4.828126 1.378906 2.4375 3.921875 3.808593 6.535156 3.808593 1.253906 0 2.519531-.3125 3.6875-.972656 3.605469-2.039063 4.875-6.613281 2.835937-10.21875-.738281-1.3125-1.449218-2.664063-2.109374-4.015625-1.816407-3.722656-6.304688-5.273438-10.027344-3.457031zm0 0" fill="#000000" data-original="#000000" style="" class=""/><path xmlns="http://www.w3.org/2000/svg" d="m49.75 312.746094c-.726562-4.078125-4.617188-6.789063-8.699219-6.070313-4.078125.726563-6.796875 4.617188-6.070312 8.699219.316406 1.785156.691406 3.582031 1.117187 5.339844.828125 3.433594 3.898438 5.738281 7.285156 5.738281.582032 0 1.175782-.070313 1.769532-.210937 4.023437-.972657 6.5-5.027344 5.527344-9.054688-.351563-1.457031-.667969-2.949219-.929688-4.441406zm0 0" fill="#000000" data-original="#000000" style="" class=""/><path xmlns="http://www.w3.org/2000/svg" d="m128.910156 388.539062c.191406 0 .382813-.003906.570313-.019531 1.808593-.136719 3.636719-.328125 5.429687-.578125 4.105469-.5625 6.972656-4.347656 6.410156-8.449218-.566406-4.105469-4.347656-6.976563-8.453124-6.410157-1.492188.207031-3.011719.367188-4.511719.480469-4.132813.3125-7.226563 3.910156-6.914063 8.042969.296875 3.9375 3.582032 6.933593 7.46875 6.933593zm0 0" fill="#000000" data-original="#000000" style="" class=""/><path xmlns="http://www.w3.org/2000/svg" d="m166.492188 376.03125c1.378906 0 2.773437-.378906 4.023437-1.175781 1.527344-.976563 3.046875-2.011719 4.511719-3.074219 3.351562-2.4375 4.089844-7.128906 1.652344-10.480469-2.4375-3.351562-7.128907-4.089843-10.476563-1.652343-1.222656.886718-2.484375 1.746093-3.753906 2.558593-3.492188 2.226563-4.519531 6.863281-2.289063 10.355469 1.429688 2.242188 3.851563 3.46875 6.332032 3.46875zm0 0" fill="#000000" data-original="#000000" style="" class=""/><path xmlns="http://www.w3.org/2000/svg" d="m190.046875 346.328125c1.164063.660156 2.433594.976563 3.683594.976563 2.617187 0 5.15625-1.371094 6.535156-3.8125.894531-1.574219 1.746094-3.199219 2.539063-4.828126 1.816406-3.722656.269531-8.210937-3.457032-10.027343-3.722656-1.8125-8.210937-.265625-10.027344 3.457031-.660156 1.355469-1.371093 2.707031-2.109374 4.015625-2.039063 3.605469-.769532 8.183594 2.835937 10.21875zm0 0" fill="#000000" data-original="#000000" style="" class=""/><path xmlns="http://www.w3.org/2000/svg" d="m47.359375 267.421875c-3.9375-1.277344-8.171875.882813-9.445313 4.828125-.554687 1.714844-1.066406 3.480469-1.519531 5.238281-1.03125 4.011719 1.386719 8.101563 5.398438 9.132813.625.160156 1.253906.234375 1.871093.234375 3.34375 0 6.390626-2.25 7.257813-5.632813.378906-1.464844.800781-2.933594 1.265625-4.359375 1.273438-3.941406-.886719-8.167969-4.828125-9.441406zm0 0" fill="#000000" data-original="#000000" style="" class=""/><path xmlns="http://www.w3.org/2000/svg" d="m64.480469 345.527344c-2.566407-3.25-7.28125-3.808594-10.535157-1.242188-3.25 2.566406-3.808593 7.28125-1.242187 10.535156 1.125 1.425782 2.304687 2.832032 3.511719 4.179688 1.480468 1.660156 3.53125 2.503906 5.597656 2.503906 1.777344 0 3.5625-.628906 4.992188-1.90625 3.089843-2.757812 3.355468-7.5.597656-10.589844-1.003906-1.121093-1.984375-2.292968-2.921875-3.480468zm0 0" fill="#000000" data-original="#000000" style="" class=""/><path xmlns="http://www.w3.org/2000/svg" d="m97.113281 369.246094c-1.417969-.523438-2.828125-1.09375-4.203125-1.695313-3.792968-1.660156-8.214844.058594-9.882812 3.851563-1.667969 3.792968.058594 8.21875 3.851562 9.882812 1.652344.726563 3.351563 1.410156 5.050782 2.039063.855468.3125 1.730468.464843 2.589843.464843 3.054688 0 5.925781-1.882812 7.039063-4.914062 1.433594-3.886719-.558594-8.199219-4.445313-9.628906zm0 0" fill="#000000" data-original="#000000" style="" class=""/><path xmlns="http://www.w3.org/2000/svg" d="m60.835938 235.585938c-1.308594 1.261718-2.589844 2.578124-3.8125 3.90625-2.796876 3.054687-2.589844 7.796874.464843 10.597656 1.4375 1.320312 3.253907 1.972656 5.0625 1.972656 2.03125 0 4.054688-.820312 5.53125-2.433594 1.015625-1.105468 2.078125-2.199218 3.167969-3.25 2.980469-2.878906 3.066406-7.625.191406-10.605468-2.875-2.980469-7.625-3.066407-10.605468-.1875zm0 0" fill="#000000" data-original="#000000" style="" class=""/><path xmlns="http://www.w3.org/2000/svg" d="m404.046875 0h-323.351563c-13.554687 0-24.582031 10.585938-24.582031 23.601562 0 39.761719-7.640625 78.964844-25.183593 118.523438-46.960938 105.929688-34.035157 239.898438-3.613282 352.179688 2.824219 10.417968 12.609375 17.695312 23.800782 17.695312h167.289062c10.21875 0 18.527344-8.3125 18.527344-18.527344v-131.222656c2.039062-3.917969 3.855468-7.953125 5.4375-12.097656 1.707031 4.472656 3.691406 8.820312 5.929687 13.03125v130.289062c0 10.21875 8.3125 18.527344 18.527344 18.527344h166.796875c11.191406 0 20.980469-7.277344 23.804688-17.695312 18.1875-67.125 27.371093-130.613282 27.296874-188.703126-.003906-4.136718-3.359374-7.488281-7.5-7.488281h-.007812c-4.144531.003907-7.496094 3.367188-7.492188 7.511719.070313 56.753906-8.9375 118.914062-26.777343 184.753906-1.054688 3.898438-4.886719 6.621094-9.320313 6.621094h-166.800781c-1.941406 0-3.523437-1.582031-3.523437-3.527344v-108.378906c23.261718 27.027344 58.695312 44.324219 98.324218 44.324219 4.140625 0 7.5-3.359375 7.5-7.5 0-4.144531-3.359375-7.5-7.5-7.5-60.320312 0-109.621094-45.09375-111.679687-101.25 15.34375-13.984375 102.554687-90.566407 205.117187-122.9375 6.921875 24.832031 11.433594 51.890625 13.457032 80.902343.289062 4.132813 3.878906 7.253907 8.003906 6.960938 4.132812-.289062 7.25-3.875 6.960937-8.007812-2.914062-41.773438-11.191406-83.878907-27.121093-122.003907-8.710938-20.90625-27.734376-61.382812-27.734376-124.480469 0-13.015624-11.03125-23.601562-24.585937-23.601562zm-182.113281 493.472656c0 1.941406-1.582032 3.527344-3.527344 3.527344h-167.289062c-4.433594 0-8.265626-2.726562-9.324219-6.621094-38.292969-141.328125-28.617188-239.859375-11.996094-300.113281 102.511719 32.394531 189.660156 108.921875 205 122.902344-2.058594 56.15625-51.359375 101.25-111.679687 101.25-4.140626 0-7.5 3.355469-7.5 7.5 0 4.140625 3.359374 7.5 7.5 7.5 39.910156 0 75.5625-17.542969 98.816406-44.898438zm209.921875-365.78125c-97.8125-4.605468-122.441407-6.117187-171.917969-6.535156-.023438 0-.042969 0-.066406 0-4.109375 0-7.460938 3.3125-7.496094 7.433594-.035156 4.144531 3.292969 7.53125 7.4375 7.566406 49.082031.414062 72.175781 1.851562 178.046875 6.832031 2.605469 6.226563 7.246094 15.855469 12.824219 32.886719-73.917969 23.3125-152.652344 73.855469-208.3125 123.894531-55.699219-50.078125-134.394532-100.574219-208.265625-123.878906 5.582031-17.175781 10.46875-27.371094 12.785156-32.902344 105.609375-4.972656 128.859375-6.417969 178.046875-6.832031 4.140625-.035156 7.472656-3.421875 7.4375-7.566406-.035156-4.117188-3.386719-7.433594-7.5-7.433594-.023438 0-.042969 0-.066406 0-49.539063.417969-74.265625 1.933594-171.917969 6.535156 12.777344-35.199218 18.226563-69.214844 18.226563-104.089844 0-4.742187 4.296874-8.601562 9.578124-8.601562h323.351563c5.285156 0 9.582031 3.859375 9.582031 8.601562 0 34.917969 5.464844 68.929688 18.226563 104.089844zm0 0" fill="#000000" data-original="#000000" style="" class=""/></g></svg>
