<?xml version="1.0"?>
<svg xmlns="http://www.w3.org/2000/svg" xmlns:xlink="http://www.w3.org/1999/xlink" xmlns:svgjs="http://svgjs.com/svgjs" version="1.1" width="512" height="512" x="0" y="0" viewBox="0 0 128 128" style="enable-background:new 0 0 512 512" xml:space="preserve" class=""><g transform="matrix(0.9799999999999999,0,0,0.9799999999999999,-18.719991455078116,21.280029907226577)"><g xmlns="http://www.w3.org/2000/svg"><path d="M96,7H7V70.369S50.534,64,81.869,49.324c0,0-13,26.374.09,52.327C88.423,114.468,88.678,121,88.678,121H121V32A25,25,0,0,0,96,7Z" fill="#5f4c2e" data-original="#fcbfab" style="" class=""/><path d="M7,58.043V70.369s39.546-5.786,70.385-19.035C67.555,53.356,7,58.043,7,58.043Z" fill="#3c290e" data-original="#fca17a" style="" class=""/><g><path d="M121,90a1.75,1.75,0,0,0-1.75,1.75V121a1.75,1.75,0,0,0,3.5,0V91.753A1.75,1.75,0,0,0,121,90Z" fill="#000000" data-original="#000000" style=""/><path d="M121,76.267a1.75,1.75,0,0,0-1.75,1.75v4.5a1.75,1.75,0,0,0,3.5,0v-4.5A1.75,1.75,0,0,0,121,76.267Z" fill="#000000" data-original="#000000" style=""/><path d="M96,5.25H7a1.75,1.75,0,0,0,0,3.5H96A23.276,23.276,0,0,1,119.25,32V68.36a1.75,1.75,0,1,0,3.5,0V32A26.78,26.78,0,0,0,96,5.25Z" fill="#000000" data-original="#000000" style=""/><path d="M83.439,50.1a1.751,1.751,0,0,0-2.312-2.358,201.539,201.539,0,0,1-25.595,9.674,1.75,1.75,0,1,0,1.036,3.344,217.66,217.66,0,0,0,22-8.026c-3.154,8.61-8.541,29.135,1.834,49.709,6.158,12.209,6.53,18.574,6.533,18.628a1.749,1.749,0,0,0,1.747,1.682h.07a1.751,1.751,0,0,0,1.68-1.817c-.011-.283-.345-7.062-6.905-20.069C71,76.026,83.313,50.353,83.439,50.1Z" fill="#000000" data-original="#000000" style=""/><path d="M46.613,60.022A372.274,372.274,0,0,1,6.747,68.638,1.75,1.75,0,0,0,7,72.119a1.844,1.844,0,0,0,.255-.018A375.574,375.574,0,0,0,47.544,63.4a1.75,1.75,0,1,0-.931-3.373Z" fill="#000000" data-original="#000000" style=""/><path d="M110.841,41.772,108.913,40.7a12.243,12.243,0,0,1-6.032-8.17l-1.713-8.1a1.75,1.75,0,1,0-3.424.724l1.714,8.1a15.74,15.74,0,0,0,7.754,10.5l1.928,1.072a1.75,1.75,0,1,0,1.7-3.058Z" fill="#000000" data-original="#000000" style=""/></g></g></g></svg>
