<svg id="Capa_1" enable-background="new 0 0 512 512" height="512" viewBox="0 0 512 512" width="512" xmlns="http://www.w3.org/2000/svg"><g><g><path clip-rule="evenodd" d="m13.3 187.1c-10.3 56.4-7.9 115.3 16.7 168.8 41.2 89.5 131.9 136.8 223.7 136.9h.3 2 2.3c91.9-.1 182.5-47.4 223.7-136.9 24.6-53.4 27-112.3 16.7-168.7-19.6-107.1-92.5-196.6-242.7-158.8-150.2-37.8-223.1 51.7-242.7 158.7z" fill="#f47c7c" fill-rule="evenodd"/></g><g><path clip-rule="evenodd" d="m443.6 194.5c9.4 23.6 14.6 52.2 15.6 86.2-.3 11.5-.9 19.9-3.8 27.1-2.5 6.3-6.7 11.9-13.8 18-3.6 17-8.7 33.6-15.4 49.9-17.6 42.2-44.2 75.9-76.1 100.6 56.3-20.9 104.9-61.6 132-120.5 24.6-53.4 27-112.3 16.7-168.7-15.7-85.5-65.3-159.8-161.3-167 59.9 29.1 93.1 95.4 105.3 169.4.2 1.7.5 3.3.8 5z" fill="#ee6161" fill-rule="evenodd"/></g><g><path clip-rule="evenodd" d="m355.3 174.5h-99.3-99.3-78.6c-15.6 26.9-24.1 61.9-25.3 106.2.3 11.5.9 19.9 3.8 27.1h398.6c2.9-7.3 3.5-15.6 3.8-27.1-1.2-44.3-9.6-79.2-25.3-106.2z" fill="#685e68" fill-rule="evenodd"/></g><g><path clip-rule="evenodd" d="m256 280.8c-51.9-54.2-185.1-49.8-199.3 27 4.1 10.4 12.8 18.7 31.6 31 23.3 15 45.3 26.6 68.4 35v-12.4c0-11.6 10.8-21.1 24.1-21.1h75.2 75.2c13.3 0 24.1 9.5 24.1 21.1v12.4c23.1-8.4 45.1-20 68.4-35 18.9-12.3 27.5-20.6 31.6-31-14.2-76.7-147.4-81.2-199.3-27z" fill="#ee6161" fill-rule="evenodd"/></g><g><path clip-rule="evenodd" d="m256 340.4h-75.2c-13.2 0-24.1 9.5-24.1 21.1v12.4c29.8 10.8 61.2 16.3 99.3 17z" fill="#f8f7f7" fill-rule="evenodd"/></g><g><path clip-rule="evenodd" d="m256 340.4v50.4c38-.7 69.5-6.2 99.3-17v-12.4c0-11.6-10.8-21.1-24.1-21.1z" fill="#f8f7f7" fill-rule="evenodd"/></g><g><path clip-rule="evenodd" d="m455.3 307.8c-13.7-73.7-136.9-80.8-192.7-33.2 62.3-20.9 155.3-.4 173 56 10.8-8.1 16.6-14.8 19.7-22.8z" fill="#e94444" fill-rule="evenodd"/></g><g><path clip-rule="evenodd" d="m455.3 307.8c2.9-7.3 3.5-15.6 3.8-27.1-1.2-44.3-9.6-79.2-25.3-106.2h-44.2c10.4 21.9 16.8 48.4 19 80.1 23.9 10 42 27.6 46.7 53.2z" fill="#554e56" fill-rule="evenodd"/></g><g><path clip-rule="evenodd" d="m78.1 174.5h78.6v-61.7c-34.9 11.7-61.2 31.7-78.6 61.7z" fill="#f8f7f7" fill-rule="evenodd"/></g><g><path clip-rule="evenodd" d="m156.7 174.5h99.3v-74.7c-38.5-.3-71.6 3.8-99.3 13z" fill="#f8f7f7" fill-rule="evenodd"/></g><g><path clip-rule="evenodd" d="m256 174.5h99.3v-61.7c-27.7-9.3-60.8-13.3-99.3-13z" fill="#f8f7f7" fill-rule="evenodd"/></g><g><path clip-rule="evenodd" d="m355.3 174.5h34.4 44.2c-17.4-30-43.6-50-78.6-61.7z" fill="#f8f7f7" fill-rule="evenodd"/></g><g><path d="m466.6 280.9c0-.1 0-.3 0-.4-1.8-67.6-20.3-115.4-56.4-146-14.3-12.2-31.5-21.6-51.8-28.5-.4-.2-.8-.3-1.3-.4-27.8-9.2-61.2-13.6-101-13.2-39.7-.3-73.2 4.1-100.9 13.2-.5.1-1 .3-1.4.5-20.3 6.9-37.5 16.3-51.8 28.5-36.2 30.7-54.6 78.4-56.4 146.1v.4c.8 30 4 41.5 38.9 64.2 57.2 36.9 105.2 51.8 170.9 53.2h1.6c65.8-1.3 113.8-16.3 171-53.2 34.6-22.9 37.8-34.5 38.6-64.4zm-46.6-113.9h-57.3v-43.5c14.5 5.8 27 13.3 37.7 22.3 7.4 6.3 13.9 13.3 19.6 21.2zm-156.5 0v-59.8c32.8.2 60.7 3.9 84.3 11v48.8zm-99.3 0v-48.7c23.5-7.2 51.5-10.8 84.3-11v59.7zm-52.7-21.1c10.7-9.1 23.2-16.5 37.7-22.3v43.4h-57.2c5.7-7.9 12.2-14.9 19.5-21.1zm219.7 202c9 0 16.6 6.2 16.6 13.6v7c-26.2 9-53.2 13.5-84.3 14.6v-35.2zm-82.7 35.2c-31.1-1.1-58.1-5.7-84.3-14.6v-7c0-7.4 7.6-13.6 16.6-13.6h67.7zm114.3-20.3v-1.4c0-15.8-14.2-28.6-31.6-28.6h-150.4c-17.4 0-31.6 12.8-31.6 28.6v1.4c-18.6-7.6-37.1-17.6-56.8-30.3-16.2-10.5-24-17.4-27.9-25.5 7.2-32.3 37.4-45.3 55.1-50.2 4-1.1 6.3-5.2 5.2-9.2s-5.2-6.3-9.2-5.2c-24.9 7-43.8 19.6-55.1 36.6 1.3-39.7 8.6-71.8 22.1-96.9h346.9c13.6 25.2 20.8 57.3 22.1 97-11-16.4-28.9-28.7-52.5-35.8-24.3-7.3-52.6-8.2-79.7-2.6-25.2 5.2-47.4 15.7-63.3 29.9-24.7-22-63.8-34.7-104.3-33.3-4.1.1-7.4 3.6-7.2 7.7.1 4.1 3.6 7.4 7.7 7.2 38.1-1.3 74.6 10.9 96.3 31.8v17.9c0 4.1 3.4 7.5 7.5 7.5s7.5-3.4 7.5-7.5v-17.9c29.2-28.3 86.1-39.9 131.2-26.4 16.9 5 45.8 18.1 52.7 49.5-3.9 8.1-11.7 14.9-27.9 25.4-19.7 12.7-38.2 22.7-56.8 30.3z"/><path d="m506 185.8c-5.8-31.6-15.7-59.9-29.5-84.1-15.2-26.7-34.7-47.9-58.1-62.9-43.3-27.8-98-33.9-162.5-18-64.6-15.9-119.2-9.8-162.5 18-23.3 15-42.9 36.2-58.1 62.9-13.7 24.2-23.6 52.5-29.3 84.1-11.8 64.4-6 122.7 17.2 173.2 19.3 42 50.5 77.2 90.3 101.9 37.5 23.3 81.4 36.8 127.1 39h.4c4 0 7.3-3.1 7.5-7.1.2-4.1-3-7.7-7.1-7.9-90.6-4.4-168.9-55.1-204.5-132.2-22-47.7-27.4-102.9-16.2-164.2 8.1-44 28.6-103.6 80.9-137.2 40.1-25.8 91.4-31 152.6-15.6 1.2.3 2.5.3 3.7 0 61.1-15.4 112.5-10.1 152.5 15.6 52.2 33.6 72.8 93.1 80.9 137.2 11.2 61.3 5.8 116.6-16.1 164.2-35.3 76.7-110.1 126.1-200 132-4.1.3-7.3 3.8-7 8 .3 4.1 3.8 7.3 8 7 44.8-2.9 87.8-16.8 124.4-40 38.8-24.6 69.3-59.4 88.3-100.7 23.2-50.5 29-108.8 17.1-173.2z"/></g></g></svg>