<?xml version="1.0"?>
<svg xmlns="http://www.w3.org/2000/svg" xmlns:xlink="http://www.w3.org/1999/xlink" xmlns:svgjs="http://svgjs.com/svgjs" version="1.1" width="512" height="512" x="0" y="0" viewBox="0 0 386 386.09088" style="enable-background:new 0 0 512 512" xml:space="preserve" class=""><g><path xmlns="http://www.w3.org/2000/svg" d="m167.867188 13.417969s-159.828126 143.839843-159.828126 183.800781c0 39.953125 15.980469 63.929688 31.960938 63.929688 15.988281 0 71.925781 7.992187 71.925781 31.964843 0 23.972657-31.964843 47.945313-23.972656 63.929688 0 0 55.9375-23.972657 95.890625 15.984375l7.429688 7.429687c12.730468 12.726563 34.164062 2.324219 32.339843-15.582031-1.863281-18.171875-.539062-36.152344 8.179688-47.785156 23.972656-31.96875 31.964843-47.949219 7.992187-103.886719-23.972656-55.941406-32.890625-87.90625 15.980469-143.84375 52.585937-60.183594-31.960937-87.910156-87.898437-55.941406" fill="#5f4c2e" data-original="#ffd578" style="" class=""/><path xmlns="http://www.w3.org/2000/svg" d="m92.890625 353.988281c-.378906-.777343-.550781-1.503906-.5625-2.558593-.042969-2.066407 1.003906-5.492188 3.171875-9.578126 3.191406-6.160156 8.503906-13.574218 13.179688-21.648437 4.628906-8.089844 8.855468-17.023437 8.90625-27.089844.015624-4.335937-1.316407-8.4375-3.460938-11.855469-3.789062-6.011718-9.632812-10.203124-16.183594-13.597656-9.859375-5.042968-21.703125-8.257812-32.566406-10.351562-10.890625-2.078125-20.621094-2.976563-26.535156-2.988282-2.261719-.007812-4.761719-.8125-7.585938-2.960937-4.207031-3.1875-8.75-9.492187-12.066406-18.683594-3.332031-9.175781-5.492188-21.160156-5.488281-35.457031-.011719-1.359375.390625-3.582031 1.390625-6.335938 1.855468-5.191406 5.714844-12.15625 11.054687-19.992187 18.71875-27.582031 55.167969-65.976563 86.742188-97.113281 15.800781-15.59375 30.40625-29.425782 41.058593-39.355469 5.324219-4.964844 9.660157-8.953125 12.664063-11.699219 3-2.742187 4.652344-4.226562 4.65625-4.234375 2.804687-2.519531 3.03125-6.835937.507813-9.640625-2.523438-2.800781-6.839844-3.027344-9.640626-.503906-.0625.054688-40.089843 36.074219-80.234374 77.222656-20.078126 20.582032-40.179688 42.425782-55.425782 61.863282-7.625 9.726562-14.042968 18.839843-18.679687 27.066406-2.320313 4.121094-4.199219 8.019531-5.546875 11.757812-1.339844 3.742188-2.1875002 7.328125-2.199219 10.964844.015625 20.890625 4.128906 37.90625 10.820313 50.214844 3.359374 6.148437 7.386718 11.152344 12.078124 14.761718 4.671876 3.59375 10.160157 5.785157 15.894532 5.777344 3.464844-.003906 9.773437.464844 16.964844 1.546875 10.8125 1.605469 23.863281 4.65625 33.558593 9.144531 4.847657 2.21875 8.796875 4.804688 11.214844 7.335938 2.4375 2.589844 3.328125 4.6875 3.355469 7.113281.011718 3.957031-1.207032 8.375-3.339844 13.082031-3.175781 7.066407-8.320312 14.535157-12.902344 21.90625-2.289062 3.703126-4.445312 7.394532-6.113281 11.207032-1.652344 3.804687-2.886719 7.785156-2.902344 12.117187-.007812 2.875.609375 5.894531 2.003907 8.667969 1.6875 3.375 5.789062 4.742188 9.160156 3.050781 3.371094-1.6875 4.738281-5.78125 3.050781-9.15625zm0 0" fill="#000000" data-original="#54596e" style="" class=""/><path xmlns="http://www.w3.org/2000/svg" d="m110.800781 244.511719-.039062-.171875c-.214844-.992188-1.175781-6.046875-1.164063-10.765625-.039062-2.917969.449219-5.683594 1.011719-6.761719l.300781-.515625.058594-.066406-.230469-.28125.117188.34375.113281-.0625-.230469-.28125.121094.34375.316406-.027344c.996094-.117187 5.21875 1.054687 11.707031 5.949219 6.519532 4.820312 15.363282 12.980468 26.785157 25.539062l5.046875-4.59375v-6.832031h-28.898438c-3.773437 0-6.828125 3.058594-6.828125 6.832031 0 3.769532 3.054688 6.824219 6.828125 6.824219h28.898438c2.699218 0 5.15625-1.601563 6.242187-4.066406 1.09375-2.46875.621094-5.359375-1.191406-7.355469-11.808594-12.960938-21.121094-21.65625-28.757813-27.320312-7.667968-5.585938-13.601562-8.511719-19.832031-8.628907-2.894531-.027343-5.851562.851563-8.125 2.496094-3.457031 2.492187-5.082031 5.96875-5.976562 9.105469-.890625 3.191406-1.121094 6.363281-1.125 9.359375.015625 7.292969 1.488281 13.664062 1.535156 13.9375.824219 3.675781 4.476563 5.988281 8.15625 5.160156 3.675781-.828125 5.984375-4.480469 5.160156-8.160156" fill="#000000" data-original="#54596e" style="" class=""/><path xmlns="http://www.w3.org/2000/svg" d="m111.324219 226.257812c-.058594 0-.105469 0-.148438.007813l-.257812.019531-.003907.011719-.304687.515625c-.558594 1.078125-1.046875 3.84375-1.011719 6.761719-.011718 4.71875.949219 9.777343 1.167969 10.765625l.035156.171875c.351563 1.570312.136719 3.132812-.515625 4.472656l8.851563 2.730469c.660156-3.078125 3.398437-5.386719 6.675781-5.386719h12.988281c-6.355469-6.34375-11.636719-10.949219-15.917969-14.113281-6.207031-4.679688-10.339843-5.957032-11.558593-5.957032" fill="#3c290e" data-original="#dbbb76" style="" class=""/><path xmlns="http://www.w3.org/2000/svg" d="m108.160156 219.4375c-13.910156.003906-7.527344 26.574219-7.527344 26.574219l9.648438 2.972656c.652344-1.339844.871094-2.902344.519531-4.472656l-.039062-.171875c-.214844-.992188-1.175781-6.046875-1.164063-10.765625-.039062-2.917969.449219-5.683594 1.011719-6.761719l.300781-.515625.007813-.011719.253906-.019531c.042969-.007813.09375-.007813.148437-.007813 1.222657 0 5.355469 1.277344 11.5625 5.957032 4.277344 3.164062 9.5625 7.769531 15.917969 14.113281h-12.988281c-3.277344 0-6.015625 2.308594-6.675781 5.386719l4.675781 1.441406h30.898438c-24.832032-25.519531-38.824219-33.71875-46.550782-33.71875" fill="#000000" data-original="#54596e" style="" class=""/><path xmlns="http://www.w3.org/2000/svg" d="m152.089844 306.988281c.355468.082031 7.386718 1.882813 16.914062 1.894531 9.152344-.027343 20.898438-1.621093 30.921875-9.082031 4.980469-3.722656 9.371094-8.949219 12.371094-15.730469 3.011719-6.785156 4.667969-15.035156 4.664063-24.957031 0-11.925781-2.363282-26.304687-7.777344-43.921875-1.109375-3.605468-4.929688-5.628906-8.53125-4.519531-3.605469 1.109375-5.628906 4.929687-4.519532 8.53125 5.136719 16.679687 7.183594 29.808594 7.175782 39.910156 0 8.421875-1.398438 14.707031-3.492188 19.414063-3.167968 7.023437-7.765625 10.859375-13.265625 13.386718-5.484375 2.484376-11.921875 3.324219-17.546875 3.316407-3.882812 0-7.359375-.382813-9.8125-.765625-1.226562-.1875-2.199218-.375-2.84375-.511719l-.710937-.15625-.152344-.035156h-.007813c-3.652343-.9375-7.371093 1.265625-8.304687 4.917969-.933594 3.652343 1.265625 7.371093 4.917969 8.308593" fill="#000000" data-original="#54596e" style="" class=""/><path xmlns="http://www.w3.org/2000/svg" d="m259.457031 48.835938c-6.4375 0-85.558593 39.40625-93.84375 80.804687-4.933593 24.691406 16.21875 50.578125 29.132813 75.160156 1.253906 2.386719 2.429687 4.773438 3.53125 7.160157.679687-.566407 1.476562-1.011719 2.375-1.285157.667968-.207031 1.34375-.304687 2.011718-.304687 2.914063 0 5.617188 1.886718 6.519532 4.820312 5.417968 17.621094 7.777344 32 7.78125 43.921875 0 9.921875-1.652344 18.175781-4.667969 24.957031-3 6.78125-7.390625 12.011719-12.367187 15.730469-10.027344 7.460938-21.773438 9.058594-30.921876 9.082031-3.636718 0-6.90625-.265624-9.582031-.597656l18.246094 9.125c.78125.195313 4.984375.902344 10.945313.902344 15.429687 0 42.636718-4.734375 52.828124-35.304688 11.195313-33.589843-6.226562-66.730468-21.585937-95.976562-9.898437-18.84375-7.351563-51.222656-5-62.988281 6.746094-33.695313 43.902344-73.621094 44.621094-74.371094.546875-.566406.511719-.835937-.023438-.835937" fill="#3c290e" data-original="#dbbb76" style="" class=""/><path xmlns="http://www.w3.org/2000/svg" d="m202.664062 210.367188c-.667968 0-1.34375.097656-2.011718.304687-.898438.277344-1.695313.722656-2.375 1.289063 9.875 21.398437 13.453125 42.59375 7.890625 59.289062-9.5625 28.667969-54.410157 31.289062-58.027344 31.289062-.113281 0-.183594 0-.214844-.007812l11.5 5.753906c2.675781.328125 5.945313.59375 9.578125.597656 9.152344-.027343 20.898438-1.621093 30.921875-9.082031 4.980469-3.722656 9.371094-8.949219 12.371094-15.730469 3.011719-6.785156 4.667969-15.035156 4.664063-24.957031 0-11.925781-2.363282-26.304687-7.777344-43.921875-.902344-2.9375-3.605469-4.824218-6.519532-4.824218" fill="#000000" data-original="#54596e" style="" class=""/></g></svg>
