<?xml version="1.0"?>
<svg xmlns="http://www.w3.org/2000/svg" xmlns:xlink="http://www.w3.org/1999/xlink" xmlns:svgjs="http://svgjs.com/svgjs" version="1.1" width="512" height="512" x="0" y="0" viewBox="0 0 512 512" style="enable-background:new 0 0 512 512" xml:space="preserve" class=""><g><path xmlns="http://www.w3.org/2000/svg" d="m512 0h-32v23.648438c-.007812 24.152343-17.960938 44.539062-41.921875 47.597656l-287.789063 36.738281c-4.800781.703125-9.601562 1.601563-14.175781 2.6875-44.972656 10.464844-83.441406 39.414063-105.953125 79.726563-24.519531 43.0625-30.042968 94.375-15.25 141.664062l15.875 50.546875c-20.1875 40.148437-30.7304685 84.453125-30.785156 129.390625h512zm0 0" fill="#5f4c2e" data-original="#ecce93" style="" class=""/><path xmlns="http://www.w3.org/2000/svg" d="m365.328125 480c-78.054687 0-141.328125-63.273438-141.328125-141.328125v-2.671875h-.273438c-1.382812-26.847656-23.515624-47.925781-50.398437-48h-29.328125c-8.835938 0-16 7.164062-16 16s7.164062 16 16 16h29.328125c4.953125-.003906 9.703125 1.960938 13.207031 5.464844s5.46875 8.253906 5.464844 13.207031v173.328125h32v-73.328125c32.410156 45.9375 85.105469 73.28125 141.328125 73.328125h146.671875v-32zm0 0" fill="#3c290e" data-original="#e5bd76" style="" class=""/><path xmlns="http://www.w3.org/2000/svg" d="m352 384h32v32h-32zm0 0" fill="#3c290e" data-original="#ffffff" style="" class=""/></g></svg>
