<?xml version="1.0"?>
<svg xmlns="http://www.w3.org/2000/svg" xmlns:xlink="http://www.w3.org/1999/xlink" xmlns:svgjs="http://svgjs.com/svgjs" version="1.1" width="512" height="512" x="0" y="0" viewBox="0 0 512 512" style="enable-background:new 0 0 512 512" xml:space="preserve" class=""><g transform="matrix(1.22,0,0,1.22,-51.31980823516858,63.67955698966966)"><g xmlns="http://www.w3.org/2000/svg"><g><path clip-rule="evenodd" d="m286.012 404.577c-5.966 43.115 1.591 77.868 8.551 99.921h178.98c14.205-87.505 10.142-163.219-2.216-217.927-116.677-19.503-142.161 34.356-185.315 118.006z" fill="#5f4c2e" fill-rule="evenodd" data-original="#fed2a4" style="" class=""/></g><g><path clip-rule="evenodd" d="m425.304 303.55c11.534 51.109 15.853 120.614 4.744 200.948h43.495c14.205-87.505 10.142-163.219-2.216-217.927-9.773 2.92-41.165-7.568-50.768-3.855-5.681 2.211 10.37 18.34 4.745 20.834z" fill="#3c290e" fill-rule="evenodd" data-original="#ffbd86" style="" class=""/></g><g><path clip-rule="evenodd" d="m40.667 286.571c-12.358 54.709-16.421 130.422-2.188 217.927h178.952c6.96-22.054 14.517-56.806 8.58-99.921-4.119-58.167-9.148-113.443-185.344-118.006z" fill="#5f4c2e" fill-rule="evenodd" data-original="#fed2a4" style="" class=""/></g><g><path clip-rule="evenodd" d="m183.652 364.75c5.085 56.296-2.273 110.92-9.034 139.748h42.813c6.96-22.054 14.517-56.806 8.58-99.921.54-39.827-30.654-43.767-42.359-39.827z" fill="#3c290e" fill-rule="evenodd" data-original="#ffbd86" style="" class=""/></g><g><path clip-rule="evenodd" d="m56.434 224.634c131.934 57.458 267.391 57.458 399.126 0-29.773-102.671-33.125-153.581-32.727-217.134h-333.643c.37 63.553-2.983 114.463-32.756 217.134z" fill="#5f4c2e" fill-rule="evenodd" data-original="#fed2a4" style="" class=""/></g><g><path clip-rule="evenodd" d="m455.561 224.634c-29.774-102.671-33.126-153.581-32.728-217.134h-47.671c-.398 63.553 2.955 123.817 32.728 226.488 19.318 17.235 36.023 3.572 47.671-9.354z" fill="#3c290e" fill-rule="evenodd" data-original="#ffbd86" style="" class=""/></g><g><path clip-rule="evenodd" d="m256.012 419.686c9.318 0 18.637-5.017 30.001-15.109 3.409-3.005 6.989-6.491 10.824-10.403 52.529-53.887 111.564-88.866 174.492-107.603-5.029-22.224-10.512-42.576-15.767-61.937-66.308 14.797-132.786 22.195-199.549 22.167-66.763.028-133.269-7.37-199.577-22.167-5.227 19.361-10.739 39.713-15.767 61.937 62.927 18.737 121.962 53.717 174.52 107.603 3.807 3.912 7.415 7.398 10.824 10.403 11.333 10.091 20.68 15.109 29.999 15.109z" fill="#75cef8" fill-rule="evenodd" data-original="#75cef8" style="" class=""/></g><g><path clip-rule="evenodd" d="m425.304 303.55c15.057-6.69 30.427-12.331 46.024-16.98-5.029-22.224-10.512-42.576-15.767-61.937-15.881 3.543-31.762 6.661-47.671 9.354 5.256 19.361 10.739 39.713 15.767 61.937.568 2.495 1.108 5.047 1.647 7.626z" fill="#60b7ff" fill-rule="evenodd" data-original="#60b7ff" style="" class=""/></g><g><path d="m292.573 135.897c-1.838 0-3.681-.672-5.128-2.029-8.839-8.289-20.002-12.853-31.433-12.853-11.45 0-22.622 4.564-31.461 12.853-3.022 2.833-7.768 2.68-10.602-.341-2.833-3.022-2.681-7.768.341-10.602 11.63-10.905 26.447-16.911 41.722-16.911 15.257 0 30.064 6.006 41.693 16.911 3.021 2.833 3.175 7.58.341 10.602-1.476 1.575-3.472 2.37-5.473 2.37z" fill="#000000" data-original="#000000" style="" class=""/></g><g><path clip-rule="evenodd" d="m256.012 193.849c9.972 0 18.068-11.31 18.068-25.257 0-13.975-8.097-25.285-18.068-25.285-10 0-18.097 11.31-18.097 25.285 0 13.947 8.096 25.257 18.097 25.257z" fill="#3c290e" fill-rule="evenodd" data-original="#f6a96c" style="" class=""/></g><g><path d="m256.012 201.349c-14.353 0-25.597-14.389-25.597-32.757 0-18.384 11.244-32.785 25.597-32.785 14.099 0 25.568 14.707 25.568 32.785 0 18.369-11.232 32.757-25.568 32.757zm0-50.541c-5.012 0-10.597 7.304-10.597 17.785 0 10.464 5.585 17.757 10.597 17.757 4.999 0 10.568-7.292 10.568-17.757 0-10.18-5.579-17.785-10.568-17.785z" fill="#000000" data-original="#000000" style="" class=""/></g><path d="m83.289 107.571c.335.045.667.066.996.066 3.703 0 6.925-2.743 7.425-6.514 4.376-32.974 5.156-61.291 4.98-93.664-.022-4.141-3.353-7.46-7.54-7.459-4.142.022-7.482 3.398-7.459 7.54.172 31.754-.586 59.485-4.85 91.609-.546 4.106 2.342 7.877 6.448 8.422z" fill="#000000" data-original="#000000" style="" class=""/><path d="m478.644 284.915c-4.877-21.553-10.061-40.942-15.845-62.246-.012-.042-.023-.083-.035-.124-30.693-105.839-32.802-155.871-32.431-214.998.025-4.142-3.311-7.521-7.453-7.547-.016 0-.032 0-.048 0-4.12 0-7.473 3.327-7.499 7.453-.426 68.048 4.142 117.845 30.807 211.546-57.302 12.257-115.412 19.036-172.856 20.133-4.142.079-7.436 3.5-7.356 7.642.078 4.093 3.42 7.357 7.496 7.357.049 0 .098 0 .146-.001 58.704-1.12 118.082-8.079 176.614-20.658 4.395 16.269 8.44 31.638 12.267 47.988-63.625 20.195-121.121 56.326-170.979 107.473-16.14 16.517-26.414 23.253-35.461 23.253-9.075 0-19.347-6.736-35.455-23.248-49.893-51.155-107.397-87.285-171.011-107.477 3.959-16.894 8.15-32.688 12.272-47.987 58.529 12.578 117.906 19.537 176.607 20.657.049.001.097.001.146.001 4.075 0 7.417-3.264 7.496-7.357.079-4.142-3.214-7.562-7.355-7.642-57.444-1.096-115.553-7.876-172.855-20.132 8.831-31.016 15.462-58.282 20.217-83.126.779-4.068-1.888-7.998-5.957-8.776-4.068-.783-7.998 1.888-8.776 5.957-4.241 22.16-10.012 46.324-17.557 73.478-1.451 5.223-4.578 16.101-4.591 16.147 0 0-10.857 40.209-15.843 62.24-14.316 63.377-15.123 141.786-2.274 220.784.599 3.681 3.781 6.297 7.394 6.297.4 0 .806-.032 1.213-.098 4.088-.665 6.864-4.519 6.199-8.607-12.014-73.862-11.832-147.013.405-207.122 60.732 19.519 115.717 54.215 163.531 103.239 3.103 3.181 6.126 6.157 9.098 8.895 3.958 31.591 1.069 63.18-8.637 93.935-1.247 3.95.945 8.163 4.895 9.41.751.237 1.511.35 2.259.35 3.185 0 6.141-2.046 7.15-5.245 8.888-28.162 12.416-56.988 10.577-85.917 6.832 4.055 13.659 6.347 20.852 6.347 7.18 0 14.005-2.296 20.843-6.356-1.855 28.926 1.666 57.755 10.557 85.926 1.01 3.199 3.965 5.245 7.15 5.245.747 0 1.509-.113 2.259-.35 3.95-1.247 6.142-5.459 4.895-9.41-9.71-30.768-12.589-62.361-8.609-93.948 2.971-2.734 5.995-5.707 9.1-8.884 47.784-49.019 102.758-83.715 163.501-103.237 12.235 60.095 12.426 133.246.433 207.124-.663 4.088 2.113 7.941 6.201 8.605.407.066.812.098 1.211.098 3.613 0 6.797-2.618 7.395-6.299 12.826-79.019 12.009-157.427-2.303-220.788z" fill="#000000" data-original="#000000" style="" class=""/></g></g></svg>
