<svg enable-background="new 0 0 256 256" height="512" viewBox="0 0 256 256" width="512" xmlns="http://www.w3.org/2000/svg"><path d="m30.418 31.877c2.382-1.787 4.494-3.875 6.363-6.178.071-.087.162-.162.235-.248-2.524-3.912-6.384-11.02-8.225-20.228-2.267-11.333-35.003 15.436-2.019 30.11 1.244-1.471 2.521-2.612 3.646-3.456z" fill="#c16a44"/><path d="m80.544 5.224c-1.842 9.208-5.701 16.316-8.225 20.228.074.086.164.16.235.248 1.869 2.303 3.981 4.391 6.363 6.178 1.125.844 2.401 1.984 3.646 3.457 32.984-14.676.248-41.444-2.019-30.111z" fill="#c16a44"/><path d="m93.85 9.154c-6.273-.651-7.407 9.046-7.407 9.046s-1.617 9.174-7.906 13.348l-.005.019c.131.101.254.211.386.31 1.125.844 2.401 1.984 3.646 3.457 17.588-7.825 16.488-19.088 11.286-26.18z" fill="#f98080"/><path d="m15.485 9.154c6.273-.651 7.407 9.046 7.407 9.046s1.617 9.174 7.906 13.348l.005.019c-.131.101-.254.211-.386.31-1.125.844-2.401 1.984-3.646 3.457-17.588-7.825-16.488-19.088-11.286-26.18z" fill="#f98080"/><path d="m206.59 77.266c-40.387-28.148-33.044 31.82-66.088 4.895s-37.939 12.239-51.401 19.582c-6.919 3.774-14.153 1.723-18.728-2.485-.716.497-1.429.885-2.136 1.192 0 0 .001 0 .002-.001-.784 1.353-1.568 2.643-2.344 3.802-5.478 8.189-16.966 8.189-22.444 0-.775-1.159-1.559-2.446-2.342-3.797-1.539-.667-3.112-1.741-4.663-3.387-.027-.028-.046-.061-.072-.09-1.781 4.303-3.378 9.122-4.181 13.945l6.119-3.672s-3.672 15.91 6.119 25.701v-6.119l.874.874c10.256 10.256 22.999 17.673 36.982 21.527 5.611 20.638 27.49 38.259 30.067 52.865 2.802 15.88 1.838 29.823.644 36.114-.327 1.726-1.769 3.017-3.52 3.163-6.61.552-9.609 4.245-10.935 6.693-1.328 2.452.525 5.431 3.314 5.431h20.401c2.454 0 4.276-2.272 3.744-4.667l-1.086-4.885c-.216-.972-.325-1.965-.325-2.96v-27.874c0-3.672 6.119-9.791 3.672-20.805-2.448-11.015-1.224-29.372-1.224-29.372 24.477 8.567 46.057-3.055 46.057-3.055 2.655 4.728 6.345 8.79 10.24 11.622 10.19 7.411 14.686 23.253 17.134 34.268 1.966 8.848-.927 25.594-5.511 31.839-1.037 1.413-2.602 2.352-4.338 2.598-7.36 1.046-9.776 6.684-10.569 10.274-.343 1.553.848 3.019 2.439 3.019h24.812c1.143 0 2.143-.777 2.425-1.884 1.196-4.694-.691-10.354-.691-10.354 0-13.462 1.224-15.91 6.119-33.044 4.683-16.39-13.462-34.268 8.567-55.073s23.254-47.732-17.133-75.88z" fill="#c16a44"/><path d="m238.441 117.324c1.461 8.38-.39 16.375-4.854 23.819.884 3.939.874 8.807-1.296 14.45-4.728 12.294-2.149 22.761-.733 26.884.386 1.124 1.437 1.877 2.625 1.877 1.744 0 3.035-1.583 2.721-3.298-.858-4.692-1.279-14.328 4.566-28.522 5.116-12.429 1.064-26.162-3.029-35.21z" fill="#c16a44"/><path d="m236.677 179.557c.069.54.144 1.048.226 1.498.314 1.715-.978 3.298-2.721 3.298-1.188 0-2.239-.753-2.625-1.877-.223-.648-.473-1.469-.72-2.412-.607.372-1.142.846-1.542 1.442-.736 1.097-1.099 2.6-.374 4.606 1.933 5.347-4.832 8.02 0 12.476 3.623 3.341 6.703 4.678 6.795 7.016.027.699 1.06.948 1.491.373 1.034-1.381 1.911-3.288 1.502-5.549-.339-1.874.074-3.78 1.238-5.348 1.382-1.861 2.664-4.364 1.537-6.294-3.163-5.42 1.505-7.779-4.807-9.229z" fill="#7d3d1a"/><path d="m78.918 31.877c-2.382-1.787-4.494-3.875-6.363-6.178-3.36-4.14-9.552-6.45-17.887-6.45s-14.527 2.31-17.887 6.45c-1.869 2.303-3.981 4.391-6.363 6.178-3.84 2.881-9.462 9.106-9.462 20.858 0 13.01 8.262 23.981 12.744 28.977 1.292-5.007 4.125-9.845 7.581-13.016-.025.186-.055.374-.055.554 0-2.249 2.01-4.989 4.893-7.064.185-8.615 2.674-14.058 4.922-17.228 1.77-2.496 5.482-2.496 7.252 0 2.209 3.115 4.647 8.426 4.908 16.779 3.228 2.115 5.538 5.098 5.538 7.513 0 .034-.01.063-.01.096 3.15 3.164 5.689 7.698 6.895 12.378 4.479-4.99 12.756-15.968 12.756-28.989 0-11.751-5.622-17.976-9.462-20.858z" fill="#c16a44"/><path d="m180.053 250.481c.793-3.589 3.209-9.228 10.569-10.274.021-.003.04-.012.061-.015.066-12.533 1.354-15.306 6.116-31.975 1.652-5.783.463-11.753-.802-17.969-2.789-7.358-6.77-14.461-12.661-18.746-3.895-2.833-7.585-6.894-10.24-11.622 0 0-5.893 3.167-15.003 4.975 2.078 2.607 4.441 4.869 6.885 6.647 10.19 7.411 14.686 23.253 17.134 34.268 1.966 8.848-.927 25.594-5.511 31.839-1.037 1.413-2.602 2.352-4.338 2.598-7.36 1.046-9.776 6.684-10.569 10.274-.343 1.553.848 3.019 2.439 3.019h18.358c-1.59 0-2.781-1.466-2.438-3.019z" fill="#c16a44"/><path d="m98.544 248.069c1.603-2.961 4.241-5.126 7.743-6.122h.001c-.023-.32-.053-.639-.053-.96v-27.874c0-3.205 4.662-8.279 4.217-16.845-.001-.002-.002-.005-.004-.007-6.073-13.376-23.285-29.09-28.162-47.027-3.944-1.087-7.785-2.467-11.504-4.105.812 28.193 20.689 42.663 23.214 56.971 2.802 15.88 1.838 29.823.644 36.114-.327 1.726-1.769 3.017-3.52 3.163-6.61.552-9.609 4.245-10.935 6.693-1.328 2.452.525 5.431 3.314 5.431h18.358c-2.788-.001-4.641-2.98-3.313-5.432z" fill="#c16a44"/><path d="m126.003 248.832-1.086-4.885c-.216-.972-.325-1.965-.325-2.96v-.737c-5.092.985-9.261.177-12.054-.809-.629 1.083-1.758 1.825-3.059 1.934-6.61.552-9.609 4.245-10.935 6.693-1.328 2.452.525 5.431 3.314 5.431h20.401c2.453.001 4.276-2.271 3.744-4.667z" fill="#7d3d1a"/><path d="m209.728 251.615c1.196-4.694-.691-10.354-.691-10.354 0-.555.003-1.086.007-1.605-6.942 2.06-12.463.672-15.575-.62-.842.6-1.805 1.023-2.848 1.171-7.36 1.046-9.776 6.684-10.569 10.274-.343 1.553.848 3.019 2.439 3.019h24.812c1.144 0 2.143-.777 2.425-1.885z" fill="#7d3d1a"/><g fill="#ffc097"><path d="m68.729 69.347c-.112 4.127-7.097 4.452-13.746 4.452-.105 0-.21-.001-.315-.001v23.899s9.464 8.664 18.222-.63c6.803-7.219 2.758-20.771-4.161-27.72z"/><path d="m41.226 69.25c0-.18.03-.368.055-.554-7.324 6.721-11.857 20.921-4.836 28.371 8.759 9.294 18.222.63 18.222.63v-23.899c-6.607-.011-13.441-.391-13.441-4.548z"/><path d="m68.739 69.25c0-4.223-7.053-10.196-13.757-10.196s-13.756 5.973-13.756 10.196 7.053 4.549 13.757 4.549 13.756-.326 13.756-4.549z"/><path d="m54.983 59.054c2.871 0 5.801 1.099 8.219 2.683-.261-8.354-2.699-13.665-4.908-16.779-1.77-2.496-5.482-2.496-7.252 0-2.248 3.17-4.737 8.613-4.922 17.228 2.53-1.82 5.73-3.132 8.863-3.132z"/><path d="m54.668 97.697s-6.409 5.858-13.559 2.757c.783 1.351 1.567 2.639 2.342 3.798 5.479 8.189 16.966 8.189 22.444 0 .776-1.16 1.561-2.449 2.344-3.803-7.155 3.112-13.571-2.752-13.571-2.752z"/></g><path d="m98.544 248.069c1.09-2.013 3.316-4.863 7.744-6.122-.023-.32-.053-.639-.053-.96v-.737c-5.092.985-9.261.177-12.054-.809-.629 1.083-1.758 1.825-3.059 1.934-6.61.552-9.609 4.245-10.935 6.693-1.328 2.452.525 5.431 3.314 5.431h18.358c-2.79.001-4.643-2.978-3.315-5.43z" fill="#7d3d1a"/><path d="m180.053 250.481c.793-3.589 3.209-9.228 10.569-10.274.021-.003.041-.01.062-.013.001-.177.001-.364.002-.538-6.942 2.06-12.463.672-15.575-.62-.842.6-1.805 1.023-2.848 1.171-7.36 1.046-9.776 6.684-10.569 10.274-.343 1.553.848 3.019 2.439 3.019h18.358c-1.59 0-2.781-1.466-2.438-3.019z" fill="#7d3d1a"/><path d="m173.099 162.38c-.874 0-1.723-.459-2.182-1.275-2.732-4.866-5.616-12.481-3.832-21.123 1.692-8.2 7.129-15.192 16.16-20.783 1.173-.724 2.714-.364 3.441.811.727 1.174.364 2.714-.811 3.441-20.34 12.592-14.188 28.815-10.6 35.205.676 1.204.248 2.729-.955 3.404-.386.217-.806.32-1.221.32z"/><path d="m82.285 151.734c-1.1 0-2.108-.732-2.411-1.845-2.874-10.569-1.348-20.349 4.664-29.897.736-1.169 2.279-1.521 3.448-.783 1.168.735 1.519 2.278.784 3.447-5.225 8.299-6.556 16.777-4.07 25.921.362 1.333-.424 2.706-1.757 3.068-.22.06-.441.089-.658.089z"/><path d="m207.304 256h-24.812c-1.524 0-2.945-.681-3.899-1.868-.95-1.183-1.308-2.71-.981-4.19.887-4.015 3.711-10.938 12.659-12.21 1.063-.15 2.037-.734 2.674-1.602 4.201-5.723 6.91-21.606 5.086-29.818-2.394-10.77-6.674-25.886-16.164-32.788-3.726-2.709-7.123-6.351-9.737-10.408-5.902 2.622-23.063 8.854-42.751 3.188-.219 5.672-.416 17.622 1.326 25.462 1.842 8.289-.726 14.131-2.425 17.997-.583 1.327-1.187 2.701-1.187 3.351v27.874c0 .812.089 1.626.265 2.418l1.085 4.885c.419 1.886-.033 3.831-1.242 5.339-1.209 1.507-3.01 2.371-4.942 2.371h-20.401c-2.224 0-4.233-1.145-5.375-3.061-1.121-1.883-1.172-4.147-.137-6.061 2.528-4.67 7.118-7.51 12.925-7.995.632-.053 1.155-.521 1.272-1.138 1.07-5.644 2.138-19.411-.65-35.213-1.135-6.435-6.739-14.031-12.673-22.073-6.431-8.716-13.684-18.548-16.949-29.201-12.351-3.622-23.77-9.991-33.34-18.571v.264c0 1.011-.609 1.923-1.543 2.31-.933.386-2.009.173-2.725-.542-7.044-7.044-7.81-16.728-7.474-22.68l-1.71 1.026c-.836.503-1.887.471-2.693-.077-.806-.549-1.22-1.516-1.059-2.478.743-4.457 2.202-9.332 4.337-14.489.326-.786 1.029-1.354 1.866-1.504.838-.155 1.694.135 2.273.757.036.038.082.092.125.146 1.196 1.252 2.463 2.172 3.774 2.74.491.213.901.577 1.169 1.04.837 1.444 1.575 2.643 2.257 3.662 2.139 3.197 5.472 5.031 9.144 5.031s7.005-1.834 9.145-5.032c.674-1.008 1.4-2.185 2.218-3.597.195-.362.48-.678.837-.909.125-.082.258-.152.395-.21.593-.26 1.142-.568 1.68-.941.961-.667 2.257-.579 3.118.214 3.553 3.267 9.579 5.543 15.838 2.131 3.381-1.845 6.41-6.439 9.618-11.304 5.026-7.623 10.722-16.263 20.161-17.709 7.085-1.091 15.066 2.082 24.399 9.687 14.109 11.497 19.139 5.918 26.101-1.807 7.635-8.474 17.139-19.022 39.838-3.201 20.98 14.622 32.195 29.815 33.334 45.156.9 12.13-4.454 23.769-15.913 34.591-13.18 12.447-10.988 23.222-8.668 34.628 1.289 6.34 2.622 12.895.787 19.314-.572 2.005-1.095 3.809-1.571 5.453-3.558 12.282-4.433 15.303-4.451 26.528.443 1.501 1.79 6.728.614 11.347-.566 2.218-2.559 3.767-4.848 3.767zm-34.21-98.619c.876 0 1.725.46 2.183 1.274 2.384 4.245 5.769 8.089 9.531 10.825 10.86 7.898 15.533 24.184 18.104 35.747 2.137 9.616-.915 27.021-5.936 33.86-1.427 1.945-3.615 3.256-6.003 3.595-5.663.805-7.736 4.978-8.479 8.337l24.81-.02c.996-3.906-.623-8.901-.64-8.952-.083-.252-.127-.521-.127-.786 0-12.245 1.078-15.966 4.648-28.295.476-1.64.996-3.438 1.566-5.436 1.5-5.247.344-10.929-.88-16.944-2.374-11.674-5.064-24.904 10.135-39.26 10.312-9.739 15.144-20.03 14.36-30.586-1.021-13.767-11.521-27.704-31.207-41.425-19.077-13.297-25.651-5.999-33.265 2.447-7.112 7.893-15.175 16.839-32.973 2.336-8.175-6.661-14.874-9.485-20.483-8.621-7.244 1.11-12.074 8.435-16.744 15.519-3.56 5.399-6.923 10.5-11.397 12.94-6.52 3.555-14.245 2.883-20.165-1.623-.042.022-.084.044-.126.064-.731 1.243-1.4 2.315-2.034 3.263-3.083 4.608-7.931 7.252-13.3 7.252s-10.217-2.644-13.3-7.251c-.631-.943-1.299-2.014-2.032-3.258-.66-.334-1.306-.725-1.935-1.169-.565 1.554-1.058 3.072-1.479 4.549l1.097-.658c.86-.516 1.944-.468 2.756.121.812.59 1.192 1.607.966 2.585-.026.113-2.078 9.493 1.575 17.676.27-.424.667-.766 1.152-.966.933-.386 2.009-.173 2.724.542l.874.874c9.932 9.932 22.339 17.153 35.878 20.885.852.234 1.517.901 1.749 1.754 2.794 10.278 9.784 19.752 16.544 28.915 6.291 8.527 12.233 16.582 13.573 24.172 2.725 15.44 2.047 29.589.639 37.014-.533 2.815-2.905 4.949-5.767 5.188-4.188.351-7.198 2.165-8.945 5.394-.262.483-.09.909.035 1.12.111.187.438.62 1.08.62h20.401c.557 0 .892-.313 1.042-.5s.383-.581.262-1.125l-1.085-4.886c-.255-1.147-.384-2.326-.384-3.502v-27.874c0-1.7.746-3.397 1.61-5.362 1.607-3.658 3.608-8.21 2.121-14.901-2.497-11.235-1.329-29.316-1.278-30.08.052-.779.465-1.489 1.117-1.92.652-.43 1.468-.533 2.204-.273 23.089 8.08 43.842-2.788 44.048-2.899.376-.2.78-.296 1.18-.296zm-134.834-62.034c.003.004.006.007.009.01-.003-.003-.006-.006-.009-.01z"/><path d="m127.039 165.436c-.328 0-.662-.064-.983-.202-1.269-.543-1.857-2.013-1.314-3.282 1.451-3.391 5.018-13.38 4.116-18.799-.227-1.362.693-2.65 2.055-2.877 1.361-.231 2.65.692 2.877 2.055 1.329 7.975-4.215 21.038-4.451 21.59-.407.947-1.33 1.515-2.3 1.515z"/><path d="m234.183 186.853c-2.251 0-4.256-1.432-4.989-3.563-1.452-4.226-4.284-15.469.764-28.595 1.723-4.478 2.123-8.853 1.19-13.004-.141-.626-.035-1.283.296-1.834 4.312-7.19 5.838-14.627 4.534-22.104-.216-1.241.523-2.448 1.728-2.819 1.197-.371 2.494.211 3.013 1.359 4.39 9.701 8.483 24.029 3.063 37.191-5.649 13.72-5.193 22.881-4.419 27.121.286 1.557-.13 3.145-1.139 4.355-1.002 1.203-2.475 1.893-4.041 1.893zm2.045-45.272c.885 4.829.347 9.84-1.604 14.908-4.457 11.593-1.976 21.467-.701 25.174.039.115.142.189.261.189.033 0 .123 0 .199-.092.06-.071.08-.157.062-.255-.874-4.781-1.423-15.024 4.714-29.926 2.754-6.688 2.642-13.85 1.282-20.403-.856 3.515-2.261 6.988-4.213 10.405z"/><path d="m236.536 208.795c-.341 0-.685-.051-1.022-.156-1.341-.417-2.241-1.57-2.295-2.938-.017-.429-1.568-1.643-2.596-2.446-1.011-.791-2.158-1.688-3.396-2.829-4.026-3.713-2.362-7.293-1.368-9.432.779-1.677 1.196-2.69.711-4.032-1.142-3.16-.276-5.469.65-6.849.576-.859 1.354-1.594 2.309-2.18.674-.416 1.505-.485 2.24-.188.734.295 1.285.92 1.485 1.686.269 1.022.511 1.778.667 2.232.039.116.142.19.261.19.033 0 .123 0 .199-.092.06-.071.08-.157.062-.255-.09-.491-.172-1.047-.247-1.635-.103-.811.197-1.62.803-2.168.606-.549 1.441-.767 2.237-.583 4.715 1.083 5.604 3.242 5.511 6.373-.036 1.222-.07 2.375.896 4.03 1.009 1.729 1.536 4.701-1.689 9.045-.727.979-1.006 2.191-.785 3.412.465 2.571-.213 5.162-1.962 7.495-.632.845-1.631 1.32-2.671 1.32zm-4.994-22.652c.727 2.924-.346 5.231-1.148 6.958-.949 2.042-1.12 2.41.223 3.648 1.089 1.004 2.151 1.834 3.088 2.567.957.749 1.862 1.456 2.606 2.216-.001-.222-.021-.441-.061-.661-.47-2.596.131-5.182 1.69-7.283 1.336-1.799 1.659-3.076 1.386-3.543-1.041-1.782-1.414-3.337-1.537-4.621-.97.914-2.253 1.429-3.606 1.429-.95 0-1.856-.255-2.641-.71z"/><path d="m75.624 84.225c-.197 0-.396-.023-.593-.071-.896-.219-1.598-.912-1.828-1.805-1.081-4.194-3.416-8.396-6.245-11.238-.484-.486-.747-1.149-.728-1.835.001-.035.003-.075.006-.116-.073-1.249-1.611-3.5-4.405-5.331-.682-.446-1.103-1.198-1.128-2.013-.247-7.9-2.556-12.741-4.449-15.411-.369-.521-.947-.818-1.586-.818-.64 0-1.218.298-1.587.818-1.938 2.734-4.287 7.702-4.461 15.836-.017.785-.402 1.517-1.039 1.976-2.241 1.612-3.536 3.437-3.802 4.613-.003.066-.01.133-.019.2-.02.139-.029.196-.033.249 0 .02-.001.039-.001.06-.022 1.157-.831 2.108-1.914 2.364-2.589 2.823-4.671 6.687-5.69 10.635-.23.893-.933 1.585-1.828 1.804-.896.219-1.839-.073-2.454-.76-4.999-5.572-13.384-16.962-13.384-30.647 0-13.058 6.554-19.926 10.461-22.857 2.127-1.597 4.12-3.532 5.922-5.754 3.915-4.824 10.771-7.374 19.829-7.374 9.056 0 15.913 2.55 19.828 7.374 1.803 2.222 3.796 4.157 5.922 5.753 3.907 2.933 10.461 9.801 10.461 22.858 0 13.692-8.393 25.086-13.396 30.659-.479.536-1.159.831-1.859.831zm-4.456-15.945c2.177 2.365 4.032 5.289 5.377 8.434 4.31-5.585 9.334-14.195 9.334-23.979 0-10.338-4.602-15.962-8.462-18.858-2.454-1.842-4.743-4.063-6.804-6.603-2.891-3.562-8.554-5.524-15.945-5.524-7.392 0-13.055 1.962-15.946 5.524-2.061 2.54-4.35 4.761-6.804 6.603-3.86 2.896-8.462 8.521-8.462 18.858 0 9.78 5.023 18.39 9.33 23.973 1.518-3.523 3.684-6.788 6.19-9.268.598-2.223 2.246-4.528 4.686-6.519.407-8.701 3.099-14.248 5.34-17.41 1.3-1.832 3.418-2.926 5.666-2.926 2.248 0 4.366 1.094 5.665 2.926 2.184 3.081 4.822 8.469 5.311 16.89 2.599 1.958 5.078 4.81 5.524 7.879z"/><path d="m82.564 37.834c-.72 0-1.424-.311-1.911-.887-.982-1.163-2.071-2.196-3.237-3.071-2.434-1.826-4.706-4.027-6.754-6.541-.094-.095-.17-.174-.24-.256-.721-.84-.803-2.054-.203-2.983 2.646-4.1 6.16-10.787 7.874-19.362.588-2.94 2.694-4.71 5.634-4.733h.054c5.57 0 13.724 6.735 15.549 15.16 1.14 5.264.609 15.18-15.751 22.458-.327.145-.673.215-1.015.215zm-7.15-12.623c1.555 1.772 3.233 3.337 5.004 4.666.965.725 1.886 1.533 2.752 2.414 8.733-4.294 12.626-9.827 11.273-16.072-1.408-6.504-7.828-11.219-10.656-11.219-.007 0-.013 0-.02 0-.467.004-.636.039-.771.714-1.661 8.305-4.867 14.98-7.582 19.497zm-4.72 2.155h.01z"/><path d="m26.771 37.834c-.342 0-.688-.07-1.015-.216-16.36-7.278-16.89-17.194-15.751-22.458 1.825-8.424 9.979-15.16 15.549-15.16h.054c2.94.023 5.046 1.793 5.634 4.733 1.714 8.575 5.229 15.263 7.874 19.362.6.93.518 2.144-.203 2.983-.076.088-.157.173-.241.256-2.045 2.512-4.318 4.714-6.754 6.541-1.166.876-2.255 1.909-3.237 3.071-.485.577-1.19.888-1.91.888zm-1.222-32.834c-2.829 0-9.248 4.715-10.657 11.219-1.353 6.245 2.541 11.778 11.273 16.072.865-.881 1.786-1.688 2.75-2.413 0 0 0 0 .001-.001 1.772-1.329 3.451-2.895 5.005-4.666-2.714-4.517-5.921-11.192-7.582-19.497-.134-.675-.303-.71-.77-.714-.007 0-.014 0-.02 0z"/><path d="m78.539 34.048c-.81 0-1.604-.393-2.085-1.118-.764-1.15-.45-2.701.701-3.465 5.296-3.514 6.812-11.622 6.828-11.703.245-1.357 1.546-2.263 2.899-2.021 1.357.242 2.263 1.535 2.023 2.894-.074.417-1.885 10.284-8.986 14.996-.425.282-.905.417-1.38.417z"/><path d="m30.796 34.048c-.475 0-.955-.135-1.38-.417-7.101-4.712-8.912-14.579-8.986-14.997-.24-1.359.668-2.656 2.028-2.896 1.362-.241 2.654.666 2.895 2.023.015.081 1.531 8.189 6.827 11.703 1.15.764 1.464 2.314.701 3.465-.48.726-1.275 1.119-2.085 1.119z"/><path d="m29.716 55.815c-1.377 0-2.496-1.114-2.5-2.492-.013-4.188 3.382-7.604 7.569-7.617h.024c4.176 0 7.58 3.39 7.593 7.568.004 1.381-1.111 2.504-2.492 2.508-.002 0-.005 0-.008 0-1.377 0-2.496-1.114-2.5-2.492-.004-1.427-1.167-2.584-2.593-2.584-.003 0-.005 0-.008 0-.692.002-1.342.274-1.831.766s-.756 1.144-.754 1.836c.004 1.381-1.111 2.504-2.492 2.508-.003-.001-.006-.001-.008-.001z"/><path d="m69.417 55.815c-1.377 0-2.496-1.114-2.5-2.492-.007-2.027.777-3.938 2.207-5.376s3.334-2.235 5.362-2.241h.024c4.176 0 7.58 3.39 7.593 7.568.004 1.38-1.111 2.503-2.492 2.508-.003 0-.006 0-.008 0-1.377 0-2.496-1.114-2.5-2.492-.005-1.427-1.167-2.584-2.593-2.584-.003 0-.005 0-.008 0-.692.002-1.343.274-1.831.766s-.756 1.143-.753 1.836c.004 1.38-1.111 2.503-2.492 2.508-.003-.001-.006-.001-.009-.001z"/><path d="m182.492 256h-18.358c-1.524 0-2.946-.682-3.9-1.869-.949-1.184-1.307-2.71-.979-4.19.887-4.014 3.711-10.938 12.659-12.209 1.063-.15 2.037-.734 2.674-1.602 4.201-5.723 6.91-21.606 5.086-29.818-2.394-10.77-6.674-25.886-16.164-32.788-2.648-1.926-5.196-4.384-7.37-7.109-.544-.683-.692-1.599-.393-2.418s1.005-1.423 1.86-1.593c8.589-1.706 14.254-4.697 14.31-4.728 1.199-.642 2.693-.206 3.36.979 2.384 4.245 5.769 8.089 9.531 10.825 5.488 3.992 10.04 10.682 13.527 19.882.048.126.085.255.112.388 1.273 6.26 2.59 12.733.756 19.154-.57 1.995-1.091 3.792-1.565 5.43-3.467 11.968-4.398 15.185-4.455 25.872-.006 1.168-.818 2.166-1.939 2.423-.089.021-.186.041-.268.053-5.654.804-7.731 4.963-8.478 8.318 1.331.003 2.417 1.046 2.49 2.358.003.051.005.102.005.152 0 1.382-1.12 2.49-2.501 2.49zm-19.716-89.662c1.175 1.165 2.412 2.225 3.674 3.142 10.86 7.9 15.533 24.186 18.104 35.748 2.137 9.616-.915 27.021-5.936 33.86-1.427 1.945-3.615 3.256-6.003 3.595-5.663.805-7.736 4.978-8.479 8.337l13.356-.014c.001-.354.04-.71.118-1.064.815-3.688 3.265-9.83 10.595-11.792.178-9.842 1.32-13.783 4.629-25.207.474-1.633.992-3.423 1.561-5.411 1.481-5.188.384-10.726-.808-16.585-3.126-8.177-7.068-14.038-11.722-17.423-3.728-2.711-7.127-6.354-9.742-10.415-1.963.864-5.186 2.13-9.347 3.229z"/><path d="m101.857 256h-18.357c-2.224 0-4.233-1.145-5.375-3.061-1.121-1.882-1.172-4.147-.137-6.061 2.526-4.67 7.117-7.51 12.924-7.995.632-.053 1.155-.521 1.272-1.138 1.07-5.644 2.138-19.411-.65-35.213-.88-4.986-4.239-10.252-8.129-16.35-6.505-10.198-14.601-22.89-15.122-40.982-.024-.857.392-1.667 1.103-2.146s1.619-.559 2.403-.214c3.65 1.607 7.405 2.947 11.162 3.983.852.235 1.516.901 1.748 1.754 2.791 10.266 9.783 19.748 16.544 28.918 4.592 6.227 8.929 12.108 11.481 17.731.006.012.011.024.017.037.121.276.191.572.207.874.313 6.02-1.618 10.414-3.027 13.624-.583 1.328-1.187 2.701-1.187 3.352v27.874c0 .192.017.385.031.577l.015.207c.083 1.181-.672 2.257-1.81 2.58-2.761.786-4.916 2.482-6.229 4.908-.262.483-.09.909.036 1.12.111.187.438.62 1.08.62 1.381 0 2.5 1.119 2.5 2.5s-1.119 2.501-2.5 2.501zm-28.333-107.035c1.409 14.64 8.12 25.159 14.097 34.529 4.177 6.549 7.784 12.204 8.837 18.17 2.725 15.44 2.047 29.589.639 37.014-.534 2.815-2.906 4.949-5.768 5.188-4.188.351-7.198 2.165-8.944 5.393-.262.484-.09.91.035 1.121.111.187.438.62 1.08.62h12.227c-.284-1.384-.079-2.832.619-4.121 1.659-3.062 4.19-5.346 7.389-6.684v-27.082c0-1.7.746-3.397 1.609-5.362 1.234-2.81 2.76-6.285 2.63-10.886-2.37-5.031-6.446-10.56-10.755-16.403-6.432-8.723-13.687-18.562-16.949-29.204-2.261-.664-4.516-1.432-6.746-2.293z"/><path d="m122.259 256h-20.401c-2.224 0-4.234-1.145-5.375-3.061-1.121-1.883-1.172-4.147-.137-6.061 2.528-4.67 7.118-7.51 12.925-7.995.461-.038.874-.3 1.106-.698.604-1.039 1.861-1.5 2.993-1.102 2.331.823 6.09 1.613 10.748.712.732-.146 1.49.051 2.066.525.576.476.909 1.183.909 1.929v.737c0 .812.089 1.626.265 2.418l1.085 4.885c.419 1.886-.034 3.831-1.242 5.339-1.209 1.508-3.011 2.372-4.942 2.372zm-8.898-13.685c-1.017.883-2.3 1.437-3.675 1.551-4.187.351-7.197 2.165-8.944 5.394-.262.483-.09.909.035 1.12.111.187.438.62 1.08.62h20.401c.557 0 .892-.313 1.042-.5s.383-.581.262-1.125v-.001l-1.085-4.885c-.102-.459-.184-.923-.246-1.39-3.538.306-6.563-.155-8.87-.784z"/><path d="m207.304 256h-24.812c-1.524 0-2.945-.681-3.899-1.868-.95-1.183-1.308-2.71-.981-4.19.887-4.015 3.711-10.938 12.659-12.21.598-.085 1.187-.331 1.749-.731.702-.5 1.612-.603 2.408-.273 2.986 1.239 7.822 2.338 13.906.533.759-.227 1.582-.078 2.216.4.633.478 1.003 1.227.995 2.02-.004.394-.007.794-.008 1.207.443 1.501 1.79 6.727.614 11.346-.565 2.217-2.558 3.766-4.847 3.766zm0-5 2.425.615-2.423-.617c.721-2.831.058-6.437-.433-8.246-5.434 1.02-9.945.19-13.158-.945-.873.447-1.791.74-2.74.875-5.665.806-7.738 4.979-8.48 8.338z"/><path d="m63.859 103.887c-4.605 0-8.659-2.312-10.879-4.346-.518-.474-.812-1.143-.812-1.844v-23.899c0-1.381 1.119-2.5 2.5-2.5l.315.001c9.738 0 11.227-1.266 11.247-2.021.027-.999.647-1.886 1.576-2.255.93-.368 1.99-.148 2.694.56 3.847 3.864 6.803 9.484 7.907 15.035 1.296 6.518-.017 12.259-3.698 16.164-3.561 3.779-7.364 5.105-10.85 5.105zm-6.691-7.38c2.199 1.613 8.16 4.938 13.903-1.154 4.82-5.114 2.937-14.997-1.939-21.683-2.787 2.217-7.836 2.564-11.964 2.619z"/><path d="m45.477 103.887c-3.487.001-7.289-1.325-10.851-5.104-2.905-3.083-4.346-7.311-4.168-12.226.254-7.005 3.924-14.923 9.132-19.702.776-.713 1.913-.861 2.847-.375.933.487 1.461 1.506 1.321 2.55-.018.133-.027.191-.032.242.027.761 1.512 2.011 10.945 2.026 1.379.002 2.496 1.121 2.496 2.5v23.899c0 .701-.294 1.37-.812 1.844-2.219 2.033-6.274 4.346-10.878 4.346zm-5.049-30.528c-2.898 3.843-4.808 8.845-4.972 13.378-.09 2.475.325 5.979 2.81 8.615 5.731 6.083 11.752 2.714 13.903 1.15v-20.224c-4.17-.08-9.175-.507-11.741-2.919z"/><path d="m54.983 76.299c-6.08 0-16.257 0-16.257-7.049 0-5.933 8.66-12.696 16.257-12.696 7.596 0 16.256 6.764 16.256 12.696 0 7.049-10.176 7.049-16.256 7.049zm0-14.745c-5.814 0-11.257 5.292-11.257 7.696 0 .935 1.953 2.049 11.257 2.049s11.256-1.114 11.256-2.049c0-2.404-5.442-7.696-11.256-7.696z"/><path d="m46.119 64.687c-.398 0-.797-.095-1.163-.287-.839-.441-1.356-1.319-1.336-2.267.202-9.4 3.038-15.314 5.382-18.621 1.3-1.832 3.418-2.926 5.666-2.926 2.248 0 4.366 1.094 5.665 2.926 2.291 3.231 5.081 9.003 5.367 18.147.029.932-.462 1.803-1.276 2.259-.813.454-1.812.423-2.593-.09-2.239-1.467-4.671-2.274-6.849-2.274-2.355 0-5.053.97-7.403 2.662-.433.311-.945.471-1.46.471zm8.549-19.101c-.64 0-1.218.298-1.587.818-1.555 2.194-3.374 5.825-4.123 11.375 3.767-1.509 7.55-1.615 11.383-.248-.771-5.424-2.563-8.979-4.086-11.127-.369-.52-.947-.818-1.587-.818z"/><path d="m54.673 112.894c-5.369 0-10.217-2.644-13.3-7.251-.743-1.11-1.537-2.397-2.428-3.935-.541-.935-.422-2.11.296-2.916.717-.806 1.871-1.06 2.862-.632 5.539 2.403 10.67-2.122 10.886-2.315.954-.857 2.411-.859 3.359.002.244.218 5.366 4.716 10.893 2.31.99-.431 2.145-.177 2.863.629.719.806.839 1.981.298 2.916-.889 1.536-1.684 2.825-2.43 3.94-3.082 4.608-7.93 7.252-13.299 7.252zm-8.414-9.048c2.129 2.587 5.137 4.048 8.414 4.048s6.283-1.46 8.413-4.047c-3.625-.211-6.647-1.821-8.417-3.014-1.77 1.19-4.789 2.8-8.41 3.013zm8.409-6.149h.01z"/><path d="m101.857 256h-18.357c-2.224 0-4.233-1.145-5.375-3.061-1.121-1.882-1.172-4.147-.137-6.061 2.526-4.67 7.117-7.51 12.924-7.995.461-.038.875-.3 1.107-.699.604-1.037 1.861-1.499 2.993-1.101 2.331.823 6.088 1.613 10.748.712.734-.146 1.49.051 2.066.525.576.476.909 1.183.909 1.929v.737c0 .192.017.385.031.577l.015.207c.083 1.181-.672 2.257-1.81 2.58-2.802.797-4.897 2.448-6.229 4.908-.262.483-.09.909.036 1.12.111.187.438.62 1.08.62 1.381 0 2.5 1.119 2.5 2.5s-1.12 2.502-2.501 2.502zm-6.854-13.685c-1.017.883-2.3 1.437-3.675 1.551-4.188.351-7.197 2.165-8.943 5.393-.262.484-.09.91.035 1.121.111.187.438.62 1.08.62h12.227c-.284-1.384-.079-2.832.618-4.121.64-1.182 1.572-2.536 2.908-3.795-1.599-.149-3.025-.435-4.25-.769zm3.54 5.754h.01z"/><path d="m182.492 256h-18.358c-1.524 0-2.946-.682-3.9-1.869-.949-1.184-1.307-2.711-.979-4.19.887-4.014 3.711-10.938 12.659-12.209.598-.085 1.187-.331 1.749-.731.702-.5 1.613-.603 2.408-.273 2.986 1.239 7.823 2.338 13.906.533.76-.225 1.584-.076 2.218.401.633.479 1.002 1.229.993 2.023l-.003.523c-.007 1.199-.861 2.218-2.026 2.441-.067.014-.141.026-.198.035-5.639.801-7.716 4.96-8.462 8.315 1.33.003 2.417 1.045 2.49 2.358.003.05.005.102.005.152-.001 1.383-1.121 2.491-2.502 2.491zm-7.135-14.193c-.873.446-1.79.74-2.74.875-5.665.806-7.738 4.979-8.48 8.338l13.356-.014c.001-.354.04-.71.118-1.064.429-1.94 1.311-4.562 3.117-6.895-2.052-.237-3.856-.705-5.371-1.24z"/></svg>