<?xml version="1.0"?>
<svg xmlns="http://www.w3.org/2000/svg" xmlns:xlink="http://www.w3.org/1999/xlink" xmlns:svgjs="http://svgjs.com/svgjs" version="1.1" width="512" height="512" x="0" y="0" viewBox="0 0 64 64" style="enable-background:new 0 0 512 512" xml:space="preserve" class=""><g><g xmlns="http://www.w3.org/2000/svg"><g><g><path d="m32 14v1c-3 3-7 4-7 4v5c0 1.94.78 3.68 2.05 4.95.47.47.99.86 1.57 1.18l-.62 2.87-3.88.71-5.96 1.08c-.71-.72-1.16-1.7-1.16-2.79 0-1.26.58-2.39 1.5-3.12 1.5-1.21 2.5-2.94 2.5-4.87v-5.01c0-2.48.82-4.76 2.2-6.6l.8 1.6z" fill="#000000" data-original="#b27946" style="" class=""/></g><g><path d="m40.8 12.4c1.38 1.84 2.2 4.12 2.2 6.6v5.01c0 1.93 1 3.66 2.5 4.87.92.73 1.5 1.86 1.5 3.12 0 1.09-.45 2.07-1.16 2.79l-5.96-1.08-3.88-.71-.62-2.87c2.16-1.19 3.62-3.49 3.62-6.13v-5s-4-1-7-4v-1h8z" fill="#000000" data-original="#b27946" style="" class=""/></g><g><path d="m32 2c.65 0 1.3.18 1.86.51l9.14 5.49-2.2 4.4-.8 1.6h-8-8l-.8-1.6-2.2-4.4 9.14-5.49c.56-.33 1.21-.51 1.86-.51z" fill="#e6e9ed" data-original="#e6e9ed" style=""/></g><g><path d="m21 56h4v6h-4z" fill="#e6e9ed" data-original="#e6e9ed" style=""/></g><g><path d="m50.12 37.54c-.56-.91-1.38-1.66-2.37-2.16-.5-.25-1.03-.43-1.58-.53l-.33-.06-5.96-1.08c-.45 3.23-2.13 5-3.12 5.78-.43.34-.94.51-1.48.51-.8 0-1.55-.4-1.99-1.07l-1.29-1.93-1.29 1.93c-.44.67-1.19 1.07-1.99 1.07-.54 0-1.05-.17-1.48-.51-.99-.78-2.67-2.55-3.12-5.78l-5.96 1.08-.33.06c-.55.1-1.08.28-1.58.53-.99.5-1.81 1.25-2.37 2.16-.56.92-.88 1.98-.88 3.09v.37c0 1.48.8 2.77 2 3.46.59.34 1.27.54 2 .54h2 .01c-.01.16-.01.31-.01.47 0 1.65.49 3.26 1.41 4.64v.01c.27-.08.55-.12.83-.12h3.76v-8h10.28 3.72v20h4v-11l.59-.89c.92-1.38 1.41-2.99 1.41-4.64 0-.16 0-.31-.01-.47h.01 2c.73 0 1.41-.2 2-.54 1.2-.69 2-1.98 2-3.46v-.37c0-1.11-.32-2.17-.88-3.09z" fill="#e6e9ed" data-original="#e6e9ed" style=""/></g><g><path d="m35.28 42h-10.28v20h14v-20z" fill="#b4dd7f" data-original="#b4dd7f" style=""/></g><g><path d="m36 33 3.88.71c-.45 3.23-2.13 5-3.12 5.78-.43.34-.94.51-1.48.51-.8 0-1.55-.4-1.99-1.07l-1.29-1.93c.88 0 1.7-.3 2.36-.81.66-.52 1.16-1.25 1.37-2.1z" fill="#ccd1d9" data-original="#ccd1d9" style=""/></g><g><path d="m32 37-1.29 1.93c-.44.67-1.19 1.07-1.99 1.07-.54 0-1.05-.17-1.48-.51-.99-.78-2.67-2.55-3.12-5.78l3.88-.71.27 1.09c.43 1.71 1.97 2.91 3.73 2.91z" fill="#ccd1d9" data-original="#ccd1d9" style=""/></g><g><path d="m49 44.46v17.54h-6v-11l.59-.89c.92-1.38 1.41-2.99 1.41-4.64 0-.16 0-.31-.01-.47h.01 2c.73 0 1.41-.2 2-.54z" fill="#674526" data-original="#f0d0b4" style="" class=""/></g><g><path d="m36 52v2c0 1.1-.9 2-2 2h-6v-6l1.43-1.43c.37-.37.86-.57 1.37-.57.74 0 1.41.41 1.74 1.07l.46.93h1c1.1 0 2 .9 2 2z" fill="#674526" data-original="#f0d0b4" style="" class=""/></g><g><path d="m19 56c-2.21 0-4-1.79-4-4v-7.54c.59.34 1.27.54 2 .54h2 .01c-.01.16-.01.31-.01.47 0 1.65.49 3.26 1.41 4.64v.01c.27-.08.55-.12.83-.12h3.76 3v6h-3-4z" fill="#674526" data-original="#f0d0b4" style="" class=""/></g><g><path d="m28.62 30.13 3.38.87c1.23 0 2.38-.31 3.38-.87l.62 2.87-.27 1.09c-.21.85-.71 1.58-1.37 2.1-.66.51-1.48.81-2.36.81-1.76 0-3.3-1.2-3.73-2.91l-.27-1.09z" fill="#674526" data-original="#f0d0b4" style="" class=""/></g><g><path d="m32 15c3 3 7 4 7 4v5c0 2.64-1.46 4.94-3.62 6.13-1 .56-2.15.87-3.38.87l-3.38-.87c-.58-.32-1.1-.71-1.57-1.18-1.27-1.27-2.05-3.01-2.05-4.95v-5s4-1 7-4z" fill="#674526" data-original="#f0d0b4" style="" class=""/></g></g><g><path d="m48.2 34.482c-.236-.118-.483-.213-.731-.303.335-.675.531-1.411.531-2.179 0-1.523-.682-2.945-1.872-3.901-1.353-1.085-2.128-2.576-2.128-4.089v-5.01c0-2.409-.709-4.703-2.041-6.681l2.35-4.7-9.937-5.962c-1.432-.859-3.313-.859-4.744 0l-9.937 5.962 2.35 4.7c-1.332 1.978-2.041 4.272-2.041 6.681v5.01c0 1.514-.775 3.004-2.128 4.09-1.19.955-1.872 2.377-1.872 3.9 0 .768.196 1.504.531 2.179-.247.09-.494.185-.729.303-2.345 1.171-3.802 3.529-3.802 6.151v.367c0 1.627.793 3.061 2 3.974v7.026c0 2.757 2.243 5 5 5h1v6h30v-18.026c1.207-.914 2-2.348 2-3.974v-.367c0-2.622-1.457-4.98-3.8-6.151zm-6.2-15.482v5.01c0 2.123 1.048 4.182 2.875 5.648.715.574 1.125 1.428 1.125 2.342 0 .614-.198 1.201-.553 1.701l-8.61-1.566-.33-1.532c2.107-1.442 3.493-3.863 3.493-6.603l-.001-5.778-.754-.191c-.034-.009-3.125-.816-5.758-3.03h7.132l.281-.563c.721 1.401 1.1 2.951 1.1 4.562zm-10 11c-3.309 0-6-2.691-6-6v-4.257c1.235-.412 3.76-1.422 6-3.376 2.24 1.954 4.765 2.964 6 3.376v4.257c0 3.309-2.691 6-6 6zm0 2c.934 0 1.828-.169 2.662-.465l.312 1.448-.216.865c-.318 1.266-1.451 2.152-2.758 2.152s-2.44-.886-2.757-2.152l-.216-.865.312-1.448c.833.296 1.727.465 2.661.465zm-4.743 2.151.045.181c.398 1.594 1.557 2.827 3.03 3.367l-.454.681c-.435.653-1.416.801-2.015.328-.757-.597-2.013-1.897-2.575-4.199zm9.441.181.045-.181 1.968.358c-.561 2.302-1.817 3.602-2.575 4.199-.598.473-1.58.325-2.015-.328l-.454-.681c1.474-.54 2.632-1.773 3.031-3.367zm-6.041-30.96c.811-.486 1.875-.486 2.686 0l8.349 5.009-2.31 4.619h-14.764l-2.31-4.619zm-11.533 26.287c1.828-1.468 2.876-3.526 2.876-5.649v-5.01c0-1.611.379-3.161 1.101-4.563l.281.563h7.132c-2.633 2.214-5.724 3.021-5.758 3.03l-.756.192v5.778c0 2.74 1.386 5.161 3.493 6.604l-.33 1.532-8.61 1.566c-.355-.501-.553-1.088-.553-1.702 0-.914.41-1.768 1.124-2.341zm-3.124 22.341v-6.101c.323.066.658.101 1 .101h1.039c.073 1.278.395 2.519.978 3.676-.214.144-.417.309-.604.496l-1.121 1.121 1.414 1.414 1.121-1.121c.38-.378.882-.586 1.416-.586h5.757v4h-8c-1.654 0-3-1.346-3-3zm22 9h-12v-4h8c1.654 0 3-1.346 3-3v-2c0-1.654-1.346-3-3-3h-.382l-.188-.376c-.501-1.002-1.508-1.624-2.627-1.624-.785 0-1.522.306-2.077.86l-1.14 1.14h-1.586v-6h12zm-9-10.586 1.14-1.14c.431-.428 1.23-.3 1.501.244l.741 1.482h1.618c.551 0 1 .448 1 1v2c0 .552-.449 1-1 1h-5zm-7 6.586h2v4h-2zm26 4h-4v-9.697l.427-.64c.93-1.395 1.439-2.999 1.534-4.663h1.039c.342 0 .677-.035 1-.101zm2-20c0 1.654-1.346 3-3 3h-1.124c-.304-1.944-1.201-3.74-2.62-5.158l-.549-.549-1.414 1.414.549.549c1.391 1.391 2.158 3.242 2.158 5.21 0 1.459-.428 2.873-1.237 4.088l-.763 1.143v10.303h-2v-20h-4.72-6.56-4.72v8h-2.757c-.102 0-.201.022-.302.029-.606-1.091-.941-2.306-.941-3.563 0-1.968.767-3.818 2.158-5.21l.549-.549-1.414-1.414-.549.549c-1.418 1.418-2.315 3.214-2.62 5.158h-1.124c-1.654 0-3-1.346-3-3v-.367c0-1.859 1.033-3.531 2.698-4.363.411-.206.851-.354 1.307-.437l5.321-.967c.686 2.947 2.318 4.638 3.3 5.412.589.466 1.333.722 2.094.722 1.137 0 2.192-.564 2.823-1.511l.457-.686.458.686c.63.947 1.685 1.511 2.822 1.511.761 0 1.504-.256 2.094-.722.981-.774 2.613-2.466 3.3-5.412l5.321.967c.456.083.896.23 1.309.438 1.663.831 2.696 2.502 2.696 4.362z" fill="#000000" data-original="#000000" style="" class=""/><path d="m31 11h2v-2h2v-2h-2v-2h-2v2h-2v2h2z" fill="#000000" data-original="#000000" style="" class=""/><path d="m32 26c-.551 0-1-.448-1-1h-2c0 1.654 1.346 3 3 3s3-1.346 3-3h-2c0 .552-.449 1-1 1z" fill="#000000" data-original="#000000" style="" class=""/><circle cx="35" cy="21" r="1" fill="#000000" data-original="#000000" style="" class=""/><circle cx="29" cy="21" r="1" fill="#000000" data-original="#000000" style="" class=""/></g></g></g></svg>
