<svg id="Capa_1" enable-background="new 0 0 512.003 512.003" height="512" viewBox="0 0 512.003 512.003" width="512" xmlns="http://www.w3.org/2000/svg"><path d="m336.852 308.419c68.676 0 98.215 9.097 98.215 22.742 0 26.381-50.215 9.097-50.215 34.568 0 24.629 118.153 8.187 119.63 35.478.906 16.737-30.969 20.593-73.107 21.832-46.892 1.379-101.169-5.458-101.907 16.374-.769 22.722 47.261 8.628 47.261 35.009 0 40.495-241.456 39.585-241.456 0 0-26.381 48.03-12.286 47.261-35.009-.738-21.832-55.015-14.996-101.907-16.374-42.138-1.239-74.013-5.096-73.107-21.832 1.477-27.29 119.63-10.849 119.63-35.478 0-25.471-50.215-8.187-50.215-34.568 0-13.645 29.538-22.742 98.215-22.742z" fill="#baeefc"/><path d="m329.467 439.413c.421-12.46 18.284-15.581 42.255-16.221-38.648-.328-74.655-1.533-75.255 16.221-.769 22.722 47.261 8.628 47.261 35.009 0 18.282-49.215 28.124-103.207 29.779 65.055 1.983 136.207-7.796 136.207-29.779 0-26.381-48.03-12.287-47.261-35.009z" fill="#a2e1f8"/><path d="m384.851 365.729c0-25.471 50.215-8.187 50.215-34.568 0-13.645-29.538-22.742-98.215-22.742h-33c68.676 0 98.215 9.097 98.215 22.742 0 26.381-50.215 9.097-50.215 34.568 0 24.629 118.153 8.187 119.63 35.478.906 16.737-30.969 20.594-73.107 21.832-.893.026-1.79.049-2.688.069 11.721.106 23.936.276 35.688-.069 42.138-1.239 74.013-5.096 73.107-21.832-1.477-27.291-119.63-10.85-119.63-35.478z" fill="#a2e1f8"/><path d="" style="fill:none;stroke:#000;stroke-width:15;stroke-linecap:round;stroke-linejoin:round;stroke-miterlimit:10"/><path d="m256 120.473-70.846 122.709c-31.486 54.537 7.872 122.708 70.846 122.708 62.974 0 102.332-68.171 70.846-122.708z" fill="#82d5f2"/><path d="m342 42.453-31.61 54.75c-14.049 24.333 3.512 54.75 31.61 54.75 28.098 0 45.659-30.417 31.61-54.75z" fill="#baeefc"/><path d="m204 7.453-22.084 38.25c-9.815 17 2.454 38.25 22.084 38.25 19.63 0 31.899-21.25 22.084-38.25z" fill="#82d5f2"/><path d="m511.97 400.801c-1.111-20.53-34.307-23.179-69.452-25.983-13.082-1.043-25.438-2.029-35.243-3.856-4.162-.776-16.702-1.549-14.353-8.397 1.904-5.55 13.383-5.541 17.977-6.331 12.497-2.15 28.026-5.451 31.17-19.897 3.834-17.618-14.617-25.47-28.544-28.941-16.034-3.996-39.474-6.158-69.724-6.442 4.065-20.73.581-42.395-10.461-61.521l-70.846-122.71c-2.802-4.852-10.168-4.888-12.99 0l-17.598 30.48c-4.816 8.34 8.169 15.851 12.99 7.5l11.104-19.231 64.351 111.46c13.431 23.264 13.431 51.04 0 74.304-13.431 23.265-37.488 37.153-64.351 37.153s-50.919-13.889-64.351-37.153c-13.431-23.264-13.431-51.04 0-74.304l32.463-56.229c4.816-8.34-8.169-15.852-12.99-7.5l-32.463 56.229c-11.043 19.127-14.527 40.791-10.461 61.521-30.25.284-53.69 2.445-69.724 6.442-13.944 3.475-32.358 11.322-28.544 28.941 3.128 14.447 18.687 17.75 31.17 19.897 3.982.685 17.888 1.54 18.361 7.781.391 5.159-11.289 6.304-14.737 6.947-9.805 1.827-22.161 2.813-35.243 3.856-35.145 2.805-68.34 5.453-69.452 25.983-.282 5.21 1.468 10.027 5.06 13.933 10.697 11.63 36.749 14.668 75.316 15.802 10.667.313 21.656.208 32.283.106 18-.172 35.002-.334 47.23 1.565 4.2.653 16.875 2.339 14.94 9.105-1.367 4.78-12.507 5.866-16.001 6.628-12.379 2.7-31.086 6.782-31.086 26.48 0 13.552 14.394 23.301 44.004 29.806 22.68 4.981 52.956 7.726 85.252 7.726 32.012 0 61.839-2.715 83.987-7.645 29.078-6.474 43.213-16.249 43.213-29.887 0-19.698-18.708-23.78-31.086-26.48-3.657-.798-14.706-1.842-15.972-6.76-1.723-6.691 10.787-8.333 14.911-8.974 12.229-1.899 29.231-1.735 47.23-1.565 10.627.102 21.616.208 32.283-.106 9.627-.284 9.195-15.298-.44-14.994-10.375.306-21.216.2-31.699.102-18.634-.181-36.232-.348-49.677 1.742-11.497 1.786-25.773 6.466-27.644 19.764-2.389 16.983 14.497 22.542 27.81 25.447 15.68 3.421 19.284 5.631 19.284 11.825 0 2.85-6.578 9.703-31.473 15.244-21.109 4.699-49.779 7.287-80.728 7.287-30.793 0-60.693-2.688-82.033-7.376-25.489-5.6-32.223-12.362-32.223-15.155 0-6.194 3.604-8.404 19.284-11.825 13.313-2.906 30.199-8.464 27.81-25.447-1.871-13.297-16.147-17.978-27.644-19.764-13.445-2.088-31.042-1.921-49.677-1.742-10.484.099-21.323.204-31.699-.102-15.357-.451-56.151-1.649-64.717-10.962-.871-.947-1.186-1.779-1.121-2.968.073-1.359 3.175-4.338 14.332-6.881 11.212-2.557 26.526-3.778 41.335-4.96 15.05-1.201 29.266-2.335 40.418-4.798 9.39-2.073 21.602-6.042 23.397-16.996 2.997-18.294-16.918-24.13-30.847-26.526-4.74-.815-19.779-1.825-19.175-9.667.481-6.247 13.268-8.746 17.634-9.834 15.62-3.893 39.322-5.913 70.433-6.021 1.687 4.365 3.723 8.647 6.125 12.807 16.143 27.961 45.055 44.653 77.341 44.653s61.198-16.692 77.341-44.653c2.402-4.16 4.438-8.442 6.125-12.807 31.111.108 54.813 2.128 70.433 6.021 4.408 1.099 17.251 3.6 17.634 9.834.484 7.868-14.45 8.854-19.175 9.667-12.645 2.175-28.26 5.643-30.806 20.681-2.443 14.424 11.819 20.294 23.356 22.841 11.152 2.463 25.368 3.597 40.418 4.798 14.809 1.182 30.123 2.403 41.335 4.96 11.157 2.543 14.258 5.521 14.332 6.881.266 4.909-9.924 9.065-27.956 11.403-9.556 1.238-7.644 16.132 1.929 14.875 11.535-1.493 42.176-5.466 41.005-27.087z"/><path d="m307.36 313.736c2.071-3.587.842-8.174-2.745-10.245s-8.174-.843-10.245 2.745c-8.009 13.872-22.353 22.153-38.37 22.153-4.142 0-7.5 3.357-7.5 7.5s3.358 7.5 7.5 7.5c21.44 0 40.64-11.085 51.36-29.653z"/><path d="m342 159.453c15.907 0 30.152-8.225 38.105-22 7.954-13.776 7.954-30.225 0-44l-31.61-54.75c-2.802-4.852-10.168-4.888-12.99 0l-31.61 54.75c-7.954 13.775-7.954 30.224 0 44 7.953 13.775 22.198 22 38.105 22zm-25.115-58.5 25.115-43.5 25.115 43.5c5.242 9.079 5.242 19.92 0 29-5.242 9.079-14.631 14.5-25.115 14.5s-19.873-5.421-25.115-14.5c-5.241-9.08-5.242-19.921 0-29z"/><path d="m204 91.453c11.93 0 22.614-6.168 28.579-16.5s5.965-22.668 0-33l-22.083-38.25c-2.802-4.852-10.168-4.888-12.99 0l-22.083 38.25c-5.965 10.332-5.965 22.668 0 33 5.963 10.332 16.647 16.5 28.577 16.5zm-15.588-42 15.588-27 15.588 27c3.253 5.636 3.253 12.364 0 18-3.254 5.636-9.081 9-15.588 9s-12.334-3.364-15.588-9-3.254-12.365 0-18z"/></svg>