<svg id="Layer_1" height="512" viewBox="0 0 512 512" width="512" xmlns="http://www.w3.org/2000/svg" data-name="Layer 1"><path d="m495.99 244.59c.12-5.35-1.9-16.08-17.93-23.96a77.155 77.155 0 0 0 -16.97-5.77c-41.23-9.4-62.24-71.91-146.31-61.95s-106.77 1.31-143.12 21.72-40.7 42.39-76.63 53.76-89.27 22.23-77.32 52.04 8.8 52.23 46.85 51.2 80.6 44.51 165.92 22.53 194.94-26.29 230.11-49.65a89.409 89.409 0 0 0 19.26-16.95 69.856 69.856 0 0 0 13.04-23.1 58.58 58.58 0 0 0 3.1-19.87z" fill="#d9b8a7"/><path d="m37.71 300.43c-11.95-29.81 41.39-40.67 77.32-52.04s40.27-33.35 76.63-53.76 59.05-11.76 143.12-21.72 105.08 52.55 146.31 61.95a82.042 82.042 0 0 1 14.336 4.562c-1.34-5.611-5.536-12.977-17.366-18.792a77.155 77.155 0 0 0 -16.97-5.77c-41.23-9.4-62.24-71.91-146.31-61.95s-106.77 1.31-143.12 21.72-40.7 42.39-76.63 53.76-89.27 22.23-77.32 52.04c9.817 24.478 9.453 43.959 30.05 49.585-3.204-8.255-5.56-18.398-10.05-29.585z" fill="#bc9a8b"/><path d="m478.06 220.63c16.03 7.88 18.05 18.61 17.93 23.96 0 0-12.76-15.55-19.62-4.25-4.62 7.59 8.39 6.57.56 17.37-8.26 11.38 15.96 6.75 15.96 6.75a69.856 69.856 0 0 1 -13.04 23.1s-16.1-2.19-14.3-14.14c2.37-15.67-3.68-10.63-8.57-32.88s21.08-19.91 21.08-19.91z" fill="#997869"/><path d="m495.99 244.59a58.58 58.58 0 0 1 -3.1 19.87s-24.22 4.63-15.96-6.75c7.83-10.8-5.18-9.78-.56-17.37 6.86-11.3 19.62 4.25 19.62 4.25z" fill="#bf9b88"/><g fill="#997e73"><path d="m383.172 268.841a5 5 0 0 1 -4.642-3.14c-9.807-24.456 1.367-51.054 1.847-52.174a5 5 0 0 1 9.193 3.936c-.124.294-9.987 24-1.759 44.516a5 5 0 0 1 -4.639 6.862z"/><path d="m284.775 242.726a5 5 0 0 1 -4.642-3.14 53.5 53.5 0 0 1 3.5-47.242 5 5 0 0 1 8.361 5.484 43.393 43.393 0 0 0 -2.577 38.035 5 5 0 0 1 -4.64 6.863z"/><path d="m252.523 303.458a5 5 0 0 1 -4.279-2.406c-11.784-19.414-5.432-39.781-5.156-40.638a5 5 0 0 1 9.523 3.05c-.067.216-5.162 17 4.181 32.4a5 5 0 0 1 -4.269 7.6z"/><path d="m189.122 257.79a5 5 0 0 1 -4.565-2.955 53.707 53.707 0 0 1 .6-45.687 5 5 0 0 1 8.762 4.82 43.586 43.586 0 0 0 -.241 36.775 5 5 0 0 1 -4.56 7.047z"/><path d="m165.273 306.8c-5.188-10.255-5.207-16.3-4.62-19.229a4.889 4.889 0 0 0 -1.13-4.27l-.154-.169a4.971 4.971 0 0 0 -8.581 2.5c-.953 5.556-.457 13.867 5.666 25.89a5 5 0 0 0 7.367 1.8 5.14 5.14 0 0 0 1.452-6.522z"/><path d="m107.1 272.522a5 5 0 0 1 -4.643-3.139c-8.16-20.35-1.876-26.776.245-28.261a5 5 0 0 1 6.234 7.793c-.7 1.168-1.447 6.147 2.8 16.745a5 5 0 0 1 -4.639 6.862z"/></g></svg>